STARTFONT 2.3
FONT -FontForge-Lobster-Book-R-Normal--16-160-72-72-P-93-ISO10646-1
SIZE 16 72 72  2
FONTBOUNDINGBOX 33 24 -8 -8
COMMENT "Generated by fontforge, http://fontforge.sourceforge.net"
COMMENT "Copyright 2010 The Lobster Project Authors (https://github.com/impallari/The-Lobster-Font), with Reserved Font Name "Lobster"."
STARTPROPERTIES 41
FOUNDRY "FontForge"
FAMILY_NAME "Lobster"
WEIGHT_NAME "Book"
SLANT "R"
SETWIDTH_NAME "Normal"
ADD_STYLE_NAME ""
PIXEL_SIZE 16
POINT_SIZE 160
RESOLUTION_X 72
RESOLUTION_Y 72
SPACING "P"
AVERAGE_WIDTH 93
CHARSET_REGISTRY "ISO10646"
CHARSET_ENCODING "1"
FONTNAME_REGISTRY ""
CHARSET_COLLECTIONS "ISO8859-2 ISO8859-5 ISO8859-9 ISO8859-4 ISO10646-1"
BITS_PER_PIXEL 2
FONT_NAME "Lobster-Regular"
FACE_NAME "Lobster Regular"
COPYRIGHT "Copyright 2010 The Lobster Project Authors (https://github.com/impallari/The-Lobster-Font), with Reserved Font Name "Lobster"."
FONT_VERSION "2.100"
FONT_ASCENT 13
FONT_DESCENT 3
UNDERLINE_POSITION -2
UNDERLINE_THICKNESS 1
X_HEIGHT 8
CAP_HEIGHT 11
DEFAULT_CHAR 1
RAW_ASCENT 800
RAW_DESCENT 200
NORM_SPACE 3
RELATIVE_WEIGHT 40
RELATIVE_SETWIDTH 50
SUPERSCRIPT_X 0
SUPERSCRIPT_Y 5
SUPERSCRIPT_SIZE 9
SUBSCRIPT_X 0
SUBSCRIPT_Y 1
SUBSCRIPT_SIZE 9
AVG_LOWERCASE_WIDTH 74
AVG_UPPERCASE_WIDTH 99
ENDPROPERTIES
CHARS 1148
STARTCHAR NULL.dup1
ENCODING 0
SWIDTH 600 0
DWIDTH 10 0
BBX 1 1 0 0
BITMAP
00
ENDCHAR
STARTCHAR nonmarkingreturn
ENCODING 13
SWIDTH 600 0
DWIDTH 10 0
BBX 1 1 0 0
BITMAP
00
ENDCHAR
STARTCHAR space
ENCODING 32
SWIDTH 217 0
DWIDTH 3 0
BBX 1 1 0 0
BITMAP
00
ENDCHAR
STARTCHAR exclam
ENCODING 33
SWIDTH 257 0
DWIDTH 4 0
BBX 5 12 0 0
BITMAP
0180
07C0
0B80
0B40
0B00
0E00
0D00
1D00
1400
2800
7C00
3800
ENDCHAR
STARTCHAR quotedbl
ENCODING 34
SWIDTH 353 0
DWIDTH 6 0
BBX 6 4 1 8
BITMAP
2DD0
39C0
7280
A300
ENDCHAR
STARTCHAR numbersign
ENCODING 35
SWIDTH 659 0
DWIDTH 11 0
BBX 9 10 1 1
BITMAP
034900
070D00
060C00
7FFF40
092800
0C2400
FFFE00
187000
246000
249000
ENDCHAR
STARTCHAR dollar
ENCODING 36
SWIDTH 548 0
DWIDTH 9 0
BBX 9 16 0 -2
BITMAP
000800
001800
01BE00
076740
0B6740
0BE000
03E000
01F800
00FD00
7DBE00
B56E00
B26D00
767800
1FE000
060000
050000
ENDCHAR
STARTCHAR percent
ENCODING 37
SWIDTH 796 0
DWIDTH 13 0
BBX 13 12 0 0
BITMAP
07D03400
1DA06000
38B0C000
34A28000
74E30000
35C92E00
2E5CB340
0025D380
0061C340
00D2C740
0181CA00
0300B800
ENDCHAR
STARTCHAR ampersand
ENCODING 38
SWIDTH 682 0
DWIDTH 11 0
BBX 11 12 0 0
BITMAP
01BD00
03C700
0B4740
0B4A00
0B8000
07D014
1F4AF4
7E2FE0
BC1540
BC0200
7D0900
2FE000
ENDCHAR
STARTCHAR quotesingle
ENCODING 39
SWIDTH 196 0
DWIDTH 3 0
BBX 3 4 1 8
BITMAP
2C
34
70
50
ENDCHAR
STARTCHAR parenleft
ENCODING 40
SWIDTH 437 0
DWIDTH 7 0
BBX 7 16 2 -4
BITMAP
0024
01D0
0340
0A00
1D00
3C00
3800
7400
B400
B400
7400
7400
3400
2800
0C00
0500
ENDCHAR
STARTCHAR parenright
ENCODING 41
SWIDTH 413 0
DWIDTH 7 0
BBX 6 16 -1 -4
BITMAP
0200
0180
00D0
00E0
00F0
00B0
00F0
00F0
00E0
01D0
02C0
0380
0B00
1D00
7400
8000
ENDCHAR
STARTCHAR asterisk
ENCODING 42
SWIDTH 515 0
DWIDTH 8 0
BBX 6 6 1 6
BITMAP
0600
6AA0
2F90
7FD0
5A60
0A00
ENDCHAR
STARTCHAR plus
ENCODING 43
SWIDTH 442 0
DWIDTH 7 0
BBX 7 6 0 2
BITMAP
0340
0340
BFF4
1A50
0A00
0500
ENDCHAR
STARTCHAR comma
ENCODING 44
SWIDTH 216 0
DWIDTH 3 0
BBX 3 4 0 -2
BITMAP
74
B8
34
20
ENDCHAR
STARTCHAR hyphen
ENCODING 45
SWIDTH 290 0
DWIDTH 5 0
BBX 4 1 0 4
BITMAP
BE
ENDCHAR
STARTCHAR period
ENCODING 46
SWIDTH 263 0
DWIDTH 4 0
BBX 3 3 0 0
BITMAP
24
7C
78
ENDCHAR
STARTCHAR slash
ENCODING 47
SWIDTH 311 0
DWIDTH 5 0
BBX 5 16 0 -4
BITMAP
0280
0240
0340
0700
0600
0A00
0900
0C00
1C00
1800
2400
3400
3000
7000
A000
9000
ENDCHAR
STARTCHAR zero
ENCODING 48
SWIDTH 546 0
DWIDTH 9 0
BBX 9 12 0 0
BITMAP
01BD00
078B40
1F0780
2E0780
3D0780
7C0780
BC0B80
B80F40
B81F00
782D00
3C7800
1FD000
ENDCHAR
STARTCHAR one
ENCODING 49
SWIDTH 317 0
DWIDTH 5 0
BBX 5 12 0 0
BITMAP
0180
3F80
0B80
0F40
0F40
1F00
2E00
2E00
3D00
3C00
7C00
B800
ENDCHAR
STARTCHAR two
ENCODING 50
SWIDTH 492 0
DWIDTH 8 0
BBX 8 12 0 0
BITMAP
07E4
2C7D
383D
2D3D
047C
00F4
02D0
0A00
2800
B548
FFFC
96F4
ENDCHAR
STARTCHAR three
ENCODING 51
SWIDTH 514 0
DWIDTH 8 0
BBX 8 12 0 0
BITMAP
06F8
0E1E
1E0F
0A1E
0078
01F4
007D
7C3E
B42E
F03D
B4B8
2F90
ENDCHAR
STARTCHAR four
ENCODING 52
SWIDTH 476 0
DWIDTH 8 0
BBX 8 12 0 0
BITMAP
02D0
02E0
02D0
03C8
0B5C
1D28
2435
BFFE
96F8
00E0
01E0
02D0
ENDCHAR
STARTCHAR five
ENCODING 53
SWIDTH 517 0
DWIDTH 8 0
BBX 8 12 0 0
BITMAP
0001
0BFF
0EBD
0D00
1C00
1EF4
147D
142E
782E
B03D
B4B8
2F90
ENDCHAR
STARTCHAR six
ENCODING 54
SWIDTH 500 0
DWIDTH 8 0
BBX 8 12 0 0
BITMAP
01BD
0787
1F0B
2E05
7C00
7DF8
BD2D
B81E
B81E
B82D
7C78
1BD0
ENDCHAR
STARTCHAR seven
ENCODING 55
SWIDTH 464 0
DWIDTH 7 0
BBX 7 12 1 0
BITMAP
7E04
FFFC
4174
00E0
02C0
0B40
1E00
3D00
7C00
B800
B800
7800
ENDCHAR
STARTCHAR eight
ENCODING 56
SWIDTH 499 0
DWIDTH 8 0
BBX 8 12 0 0
BITMAP
02F8
0F4E
1F0B
1F0E
0FA8
07F0
1EFC
787E
F42E
F02E
B87C
1FE0
ENDCHAR
STARTCHAR nine
ENCODING 57
SWIDTH 489 0
DWIDTH 8 0
BBX 8 12 0 0
BITMAP
06F8
1D2D
381E
781E
B42F
787E
2FAE
003D
107C
B0B4
A2E0
6F40
ENDCHAR
STARTCHAR colon
ENCODING 58
SWIDTH 267 0
DWIDTH 4 0
BBX 4 7 0 1
BITMAP
09
2F
1E
00
28
7C
38
ENDCHAR
STARTCHAR semicolon
ENCODING 59
SWIDTH 276 0
DWIDTH 4 0
BBX 4 9 0 -2
BITMAP
09
1F
1E
00
14
7C
3C
14
20
ENDCHAR
STARTCHAR less
ENCODING 60
SWIDTH 358 0
DWIDTH 6 0
BBX 6 6 0 1
BITMAP
00A0
0B80
B900
7900
0B80
0040
ENDCHAR
STARTCHAR equal
ENCODING 61
SWIDTH 515 0
DWIDTH 8 0
BBX 8 5 0 2
BITMAP
2FFD
2FFD
0000
3FF8
7FF8
ENDCHAR
STARTCHAR greater
ENCODING 62
SWIDTH 362 0
DWIDTH 6 0
BBX 6 6 0 1
BITMAP
3400
1F40
02D0
1B40
B400
4000
ENDCHAR
STARTCHAR question
ENCODING 63
SWIDTH 441 0
DWIDTH 7 0
BBX 7 12 0 0
BITMAP
0BE0
38B8
387C
28B4
01D0
0740
0D00
1800
0000
2800
7D00
2800
ENDCHAR
STARTCHAR at
ENCODING 64
SWIDTH 688 0
DWIDTH 11 0
BBX 11 11 0 -1
BITMAP
01BF80
0790A0
1DBA74
76DE34
B38D34
E75C70
D76DD0
D39F40
E00100
B41D00
1BE400
ENDCHAR
STARTCHAR A
ENCODING 65
SWIDTH 668 0
DWIDTH 11 0
BBX 11 14 0 -2
BITMAP
0000BC
0003F8
000DB8
0028F4
0070F4
2FF9F0
B6C2E0
6382E0
0B43D0
0F07C0
1E07C0
2D0B80
2D0000
1D0000
ENDCHAR
STARTCHAR B
ENCODING 66
SWIDTH 641 0
DWIDTH 10 0
BBX 10 12 0 0
BITMAP
01BE40
1E52C0
35F1D0
B2E1D0
A2E740
63FF80
07C3D0
07C2E0
0B82E0
0F42D0
0F4780
1F7E00
ENDCHAR
STARTCHAR C
ENCODING 67
SWIDTH 497 0
DWIDTH 8 0
BBX 9 12 0 0
BITMAP
01BE00
07D340
1F4380
2F0640
3E0000
7D0000
BC0000
BC0000
BC0000
BC0000
7E0600
1BE400
ENDCHAR
STARTCHAR D
ENCODING 68
SWIDTH 663 0
DWIDTH 11 0
BBX 11 12 0 0
BITMAP
02BE40
1E52D0
75F0F0
A2E0F4
E3D0F4
63D0F4
07C0F0
0B81F0
0B82E0
0F43C0
1F4B40
1FBD00
ENDCHAR
STARTCHAR E
ENCODING 69
SWIDTH 459 0
DWIDTH 7 0
BBX 8 12 0 0
BITMAP
01B9
0786
0B4A
0F49
0B40
07D0
2F40
7D00
BC00
FC01
BD18
2F90
ENDCHAR
STARTCHAR F
ENCODING 70
SWIDTH 459 0
DWIDTH 7 0
BBX 10 12 0 0
BITMAP
06FFE0
2AFA80
72E000
A2E000
A3D000
67FD00
07D400
0B8000
0F4000
0F4000
1F0000
1E0000
ENDCHAR
STARTCHAR G
ENCODING 71
SWIDTH 578 0
DWIDTH 9 0
BBX 9 15 0 -3
BITMAP
01BE40
0BD2C0
2F02C0
3D0280
7C0000
BC0140
B80780
BC0F40
3D2F00
1BAE00
001E00
0B6D00
287C00
28B400
1BD000
ENDCHAR
STARTCHAR H
ENCODING 72
SWIDTH 665 0
DWIDTH 11 0
BBX 11 12 0 0
BITMAP
01B47C
1EF0B8
35F0B8
B2E0F4
A2E0F0
63FFF0
07D6E0
07C2E0
0B83D0
0F47C0
0F47C0
1F0B80
ENDCHAR
STARTCHAR I
ENCODING 73
SWIDTH 375 0
DWIDTH 6 0
BBX 7 12 0 0
BITMAP
02F4
1EF0
75F0
A2E0
E3D0
53D0
07C0
0B80
0B80
0F40
1F00
1F00
ENDCHAR
STARTCHAR J
ENCODING 74
SWIDTH 536 0
DWIDTH 9 0
BBX 9 15 0 -3
BITMAP
000BC0
007BC0
01DB80
038B40
038F40
015F00
001F00
002E00
003D00
007D00
007C00
2EB800
A0F400
A1E000
2F8000
ENDCHAR
STARTCHAR K
ENCODING 75
SWIDTH 601 0
DWIDTH 10 0
BBX 11 12 0 0
BITMAP
02F474
1EF1D0
75E340
A2EA00
E3E800
53FE00
07CB80
0B8780
0B8B40
0F4F40
1F1F00
1F0F00
ENDCHAR
STARTCHAR L
ENCODING 76
SWIDTH 379 0
DWIDTH 6 0
BBX 11 16 0 -4
BITMAP
02F400
1EF000
71E000
A2E000
A3D000
53C000
07C000
0B8000
0B8000
0F4000
1F0000
1F4000
02E400
007E54
000BF4
0002E0
ENDCHAR
STARTCHAR M
ENCODING 77
SWIDTH 787 0
DWIDTH 13 0
BBX 12 12 1 0
BITMAP
06F42E
1DF43E
71F47E
A2F4FD
A7F5FD
1AF6BC
0DF7BC
1CFA78
28FDB8
35FCB8
71F8F4
A1F0F4
ENDCHAR
STARTCHAR N
ENCODING 78
SWIDTH 668 0
DWIDTH 11 0
BBX 12 12 0 0
BITMAP
06F40D
2DF81C
71F82C
A2FC28
E3BD38
637D74
076E70
0B1FB0
0A0FE0
0E0FD0
1D0BD0
1C07C0
ENDCHAR
STARTCHAR O
ENCODING 79
SWIDTH 665 0
DWIDTH 11 0
BBX 11 12 0 0
BITMAP
01BF80
0A55E0
38F0B4
B2D0B4
A7C0B4
6B80B4
0F40F0
0F41F0
1F02D0
1F0780
0F9F00
06F800
ENDCHAR
STARTCHAR P
ENCODING 80
SWIDTH 573 0
DWIDTH 9 0
BBX 10 12 0 0
BITMAP
02FE00
1D52C0
75F1D0
A2E1D0
E3D2D0
53D380
07DE00
0BD400
0B8000
0F4000
1F0000
1F0000
ENDCHAR
STARTCHAR Q
ENCODING 81
SWIDTH 665 0
DWIDTH 11 0
BBX 11 14 0 -2
BITMAP
01BF80
0A55E0
38F0B4
B2D0B4
A7C0B4
5B80F4
0F40F4
0F41F0
1F03E0
1FABC0
0F6F40
06FE00
000BD0
000140
ENDCHAR
STARTCHAR R
ENCODING 82
SWIDTH 601 0
DWIDTH 10 0
BBX 10 12 0 0
BITMAP
02FE40
1E52C0
75F1D0
A2E2C0
E3D740
53FF40
07CB80
0B8780
0B8B40
0F4F40
1F1F00
1F0F00
ENDCHAR
STARTCHAR S
ENCODING 83
SWIDTH 570 0
DWIDTH 9 0
BBX 9 12 0 0
BITMAP
01BE00
07D380
0B8280
07C240
03E000
01F800
007E00
2F2F00
781F40
741F00
397D00
1BE400
ENDCHAR
STARTCHAR T
ENCODING 84
SWIDTH 481 0
DWIDTH 8 0
BBX 12 12 0 0
BITMAP
06FE45
297FFD
70BEA8
A0B800
E0F800
A0F400
01F000
02F000
02E000
03D000
07C000
07C000
ENDCHAR
STARTCHAR U
ENCODING 85
SWIDTH 716 0
DWIDTH 11 0
BBX 12 12 0 0
BITMAP
06F81F
2DB41F
B0F42E
E1F02D
D2E03D
52D07C
03C078
07C0B8
0780F4
0782E0
07EBD0
01BE00
ENDCHAR
STARTCHAR V
ENCODING 86
SWIDTH 615 0
DWIDTH 10 0
BBX 11 12 0 0
BITMAP
02F418
1DF424
74F430
A0F460
E0F490
50F4C0
00F580
00F640
00FA00
00FD00
00BC00
00B800
ENDCHAR
STARTCHAR W
ENCODING 87
SWIDTH 962 0
DWIDTH 15 0
BBX 17 12 0 0
BITMAP
02F41F0240
1DF42F0300
74F43F0600
A0F47F0900
E0F4AF0C00
50F4DF1400
00F59F2000
00F65F2000
00FA1F9000
00FD1F8000
00BC1F8000
00B81F4000
ENDCHAR
STARTCHAR X
ENCODING 88
SWIDTH 620 0
DWIDTH 10 0
BBX 10 12 0 0
BITMAP
02F460
1DF8D0
74BD80
A0BF00
E07D00
503D00
003E00
007F00
00EF00
019F40
030F80
090B80
ENDCHAR
STARTCHAR Y
ENCODING 89
SWIDTH 620 0
DWIDTH 10 0
BBX 11 12 0 0
BITMAP
02F40C
1DF818
74BC30
A07D60
E03D90
503E80
002F40
002F00
002E00
003E00
007D00
007C00
ENDCHAR
STARTCHAR Z
ENCODING 90
SWIDTH 542 0
DWIDTH 9 0
BBX 9 12 0 0
BITMAP
0BFF80
2C2F00
183E00
00BC00
00F800
02F000
03E000
0BC000
0F8000
2F0600
3E0B00
BFFD00
ENDCHAR
STARTCHAR bracketleft
ENCODING 91
SWIDTH 400 0
DWIDTH 6 0
BBX 7 16 0 -4
BITMAP
03F8
0380
0740
0700
0B00
0E00
0E00
1D00
2C00
2C00
3800
3400
7400
B000
B000
FD00
ENDCHAR
STARTCHAR backslash
ENCODING 92
SWIDTH 362 0
DWIDTH 6 0
BBX 5 16 0 -4
BITMAP
7000
3000
2400
2800
1800
0C00
0D00
0900
0A00
0700
0300
0340
0240
0180
01C0
00C0
ENDCHAR
STARTCHAR bracketright
ENCODING 93
SWIDTH 400 0
DWIDTH 6 0
BBX 7 16 -1 -4
BITMAP
02F8
0038
0074
00B0
00B0
00E0
01D0
01D0
02C0
02C0
0380
0740
0740
0B00
0E00
BE00
ENDCHAR
STARTCHAR asciicircum
ENCODING 94
SWIDTH 421 0
DWIDTH 7 0
BBX 5 3 1 9
BITMAP
0600
2F00
A140
ENDCHAR
STARTCHAR underscore
ENCODING 95
SWIDTH 444 0
DWIDTH 7 0
BBX 7 1 0 0
BITMAP
7FF4
ENDCHAR
STARTCHAR grave
ENCODING 96
SWIDTH 201 0
DWIDTH 3 0
BBX 3 3 0 9
BITMAP
70
34
24
ENDCHAR
STARTCHAR a
ENCODING 97
SWIDTH 526 0
DWIDTH 8 0
BBX 10 8 -1 0
BITMAP
02FB80
0B4F40
1E0F00
3D1F00
3D2E00
7D3E20
3EBE90
1F5F40
ENDCHAR
STARTCHAR b
ENCODING 98
SWIDTH 444 0
DWIDTH 7 0
BBX 7 11 0 0
BITMAP
1F00
2E00
2E00
3FE0
7C74
7C34
B874
F474
F4A0
F5D0
7E40
ENDCHAR
STARTCHAR c
ENCODING 99
SWIDTH 384 0
DWIDTH 6 0
BBX 8 8 -1 0
BITMAP
02F4
0B5C
1F14
3E00
3D00
7D01
3D18
1F90
ENDCHAR
STARTCHAR d
ENCODING 100
SWIDTH 525 0
DWIDTH 8 0
BBX 10 11 -1 0
BITMAP
0002D0
0007C0
000B80
02FB80
0B8F40
1F0F40
3E1F00
3D2E00
7D2E10
3D7E10
1F9F80
ENDCHAR
STARTCHAR e
ENCODING 101
SWIDTH 384 0
DWIDTH 6 0
BBX 8 8 -1 0
BITMAP
02F4
0B5C
1E28
3D74
3F90
7D01
3D18
1F90
ENDCHAR
STARTCHAR f
ENCODING 102
SWIDTH 267 0
DWIDTH 4 0
BBX 10 16 -4 -4
BITMAP
0007E0
001F20
002E00
002D00
003F40
007C00
007C00
00B800
00F400
00F400
01F000
02E000
1BE000
36D000
67C000
2E4000
ENDCHAR
STARTCHAR g
ENCODING 103
SWIDTH 507 0
DWIDTH 8 0
BBX 10 12 -1 -4
BITMAP
02FB80
0B8F40
1F0F00
3E1F00
3D2E00
7D2E10
3D7D50
1FBE80
01BC00
0AB800
0CF400
07D000
ENDCHAR
STARTCHAR h
ENCODING 104
SWIDTH 505 0
DWIDTH 8 0
BBX 10 11 -1 0
BITMAP
07C000
0B8000
0B4000
0FBD00
1F5E00
1E1E00
2E2E00
3D3D00
3D3D10
7C3D50
B82F40
ENDCHAR
STARTCHAR i
ENCODING 105
SWIDTH 267 0
DWIDTH 4 0
BBX 5 11 0 0
BITMAP
1E00
2F00
1900
3D00
7C00
7C00
B800
F400
F480
FA40
B900
ENDCHAR
STARTCHAR j
ENCODING 106
SWIDTH 240 0
DWIDTH 4 0
BBX 9 15 -4 -4
BITMAP
001D00
002E00
001900
003D00
007C00
007C00
00B800
00F400
00F540
01F200
01F900
0BE000
3BD000
67C000
2E4000
ENDCHAR
STARTCHAR k
ENCODING 107
SWIDTH 518 0
DWIDTH 8 0
BBX 10 11 -1 0
BITMAP
07C000
0B8000
0B8000
0F4A00
1F6400
1FF800
2FBE00
3D2E00
3D3D20
7C3E90
B81F40
ENDCHAR
STARTCHAR l
ENCODING 108
SWIDTH 267 0
DWIDTH 4 0
BBX 5 11 0 0
BITMAP
1F00
2E00
2D00
3D00
7C00
7C00
B800
F400
F480
FA40
B900
ENDCHAR
STARTCHAR m
ENCODING 109
SWIDTH 752 0
DWIDTH 12 0
BBX 14 8 -1 0
BITMAP
0FBEBD00
1F6F6E00
1E2E2E00
2E2E2E00
3D3D3D00
3D3C3C10
7C7C3C50
B8B82F40
ENDCHAR
STARTCHAR n
ENCODING 110
SWIDTH 505 0
DWIDTH 8 0
BBX 10 8 -1 0
BITMAP
0FBD00
1F5E00
1E1E00
2E2E00
3D3D00
3D3D10
7C3D50
B82F40
ENDCHAR
STARTCHAR o
ENCODING 111
SWIDTH 439 0
DWIDTH 7 0
BBX 10 8 -1 0
BITMAP
02F400
0B9C00
1F1D90
3E1D00
3D1C00
7D2800
3D7000
1F9000
ENDCHAR
STARTCHAR p
ENCODING 112
SWIDTH 468 0
DWIDTH 7 0
BBX 9 13 -2 -4
BITMAP
019000
03EF40
07D7C0
0783C0
0B87C0
0F4780
0F4F40
1F6F00
2FF800
2E0000
3D0000
3C0000
640000
ENDCHAR
STARTCHAR q
ENCODING 113
SWIDTH 486 0
DWIDTH 8 0
BBX 9 12 -1 -4
BITMAP
02FF80
0B8F40
1F0F00
3E1F00
3D2E00
7D2D00
3D7D00
1FBC00
007C00
00B800
00F400
009000
ENDCHAR
STARTCHAR r
ENCODING 114
SWIDTH 376 0
DWIDTH 6 0
BBX 7 8 -1 0
BITMAP
0FBC
1F6C
1E00
2E00
3D00
3D00
7C00
B800
ENDCHAR
STARTCHAR s
ENCODING 115
SWIDTH 382 0
DWIDTH 6 0
BBX 8 9 -1 0
BITMAP
0150
03E0
07E0
0AF0
19F0
25F0
75F5
62F4
2F80
ENDCHAR
STARTCHAR t
ENCODING 116
SWIDTH 267 0
DWIDTH 4 0
BBX 5 11 0 0
BITMAP
0500
2E00
2E00
7F40
7C00
7C00
B800
F400
F480
FA40
B900
ENDCHAR
STARTCHAR u
ENCODING 117
SWIDTH 505 0
DWIDTH 8 0
BBX 9 8 0 0
BITMAP
3D3D00
7C7C00
7C7800
B8B800
F4F400
F5F440
FAFA00
B9B900
ENDCHAR
STARTCHAR v
ENCODING 118
SWIDTH 414 0
DWIDTH 7 0
BBX 7 8 0 0
BITMAP
3D70
7C74
7C24
B830
F460
F490
FA80
BE00
ENDCHAR
STARTCHAR w
ENCODING 119
SWIDTH 661 0
DWIDTH 11 0
BBX 11 8 0 0
BITMAP
3D3D70
7C7C74
7C7824
B8B830
F4F460
F5F4D0
FAFB80
B9BE00
ENDCHAR
STARTCHAR x
ENCODING 120
SWIDTH 522 0
DWIDTH 8 0
BBX 9 9 0 0
BITMAP
000A00
0B8B00
12D200
12E900
41F400
81E000
47F040
18F540
207D00
ENDCHAR
STARTCHAR y
ENCODING 121
SWIDTH 486 0
DWIDTH 8 0
BBX 9 12 0 -4
BITMAP
3D3D00
7C7C00
7C7800
B8B800
F4F400
F5F140
FBF200
BAF800
0BE000
27D000
6BC000
2E4000
ENDCHAR
STARTCHAR z
ENCODING 122
SWIDTH 428 0
DWIDTH 7 0
BBX 7 8 0 0
BITMAP
1FF8
35F0
12D0
07C0
0F40
2E10
3D70
BFE0
ENDCHAR
STARTCHAR braceleft
ENCODING 123
SWIDTH 352 0
DWIDTH 6 0
BBX 7 16 0 -4
BITMAP
00B4
02C0
0380
0740
0740
0740
0B00
0A00
7C00
1D00
1D00
2C00
3C00
3800
7800
2D00
ENDCHAR
STARTCHAR bar
ENCODING 124
SWIDTH 532 0
DWIDTH 9 0
BBX 2 16 3 -4
BITMAP
B0
B0
B0
B0
B0
B0
B0
B0
B0
B0
B0
B0
B0
B0
B0
B0
ENDCHAR
STARTCHAR braceright
ENCODING 125
SWIDTH 352 0
DWIDTH 6 0
BBX 6 16 -1 -4
BITMAP
0780
01E0
01E0
01D0
02C0
02C0
0380
0380
02E0
0B40
0B00
0E00
0E00
1E00
2D00
F400
ENDCHAR
STARTCHAR asciitilde
ENCODING 126
SWIDTH 431 0
DWIDTH 7 0
BBX 6 2 1 9
BITMAP
1500
6BD0
ENDCHAR
STARTCHAR uni00A0
ENCODING 160
SWIDTH 217 0
DWIDTH 3 0
BBX 1 1 0 0
BITMAP
00
ENDCHAR
STARTCHAR exclamdown
ENCODING 161
SWIDTH 219 0
DWIDTH 4 0
BBX 5 12 -1 -4
BITMAP
0740
0B80
0640
0000
0E00
0D00
1D00
2C00
3C00
7800
B800
F400
ENDCHAR
STARTCHAR cent
ENCODING 162
SWIDTH 384 0
DWIDTH 6 0
BBX 7 12 0 -1
BITMAP
0080
00C0
0BF4
2EA8
7A64
B600
F200
B600
7950
2F80
0800
0800
ENDCHAR
STARTCHAR sterling
ENCODING 163
SWIDTH 455 0
DWIDTH 7 0
BBX 9 12 0 0
BITMAP
007E00
02D740
03C600
078000
0B8000
7FF800
0F0000
1F0000
1E0000
2D0100
3FFE00
BFFD00
ENDCHAR
STARTCHAR currency
ENCODING 164
SWIDTH 500 0
DWIDTH 8 0
BBX 6 6 1 3
BITMAP
0010
AFA0
6090
6060
6090
AFA0
ENDCHAR
STARTCHAR yen
ENCODING 165
SWIDTH 558 0
DWIDTH 9 0
BBX 8 12 1 0
BITMAP
3D03
3E06
2F0C
1F58
0F64
0FA0
0BD0
2FE8
0B80
BFF8
1F40
1F00
ENDCHAR
STARTCHAR brokenbar
ENCODING 166
SWIDTH 532 0
DWIDTH 9 0
BBX 2 16 3 -4
BITMAP
B0
B0
B0
B0
B0
B0
B0
00
00
B0
B0
B0
B0
B0
B0
B0
ENDCHAR
STARTCHAR section
ENCODING 167
SWIDTH 542 0
DWIDTH 9 0
BBX 9 13 0 -1
BITMAP
00BE00
02D240
03C340
07D000
1EF400
2DBD00
1F5F00
0BDB00
02FA00
74F900
A0B000
A0E000
2A8000
ENDCHAR
STARTCHAR dieresis
ENCODING 168
SWIDTH 392 0
DWIDTH 6 0
BBX 5 2 1 9
BITMAP
A240
E380
ENDCHAR
STARTCHAR copyright
ENCODING 169
SWIDTH 587 0
DWIDTH 9 0
BBX 8 8 1 1
BITMAP
1BD0
6BE8
9869
A406
9855
8789
6428
1BD0
ENDCHAR
STARTCHAR ordfeminine
ENCODING 170
SWIDTH 345 0
DWIDTH 6 0
BBX 5 5 0 7
BITMAP
1FC0
3980
7280
7340
3A80
ENDCHAR
STARTCHAR guillemotleft
ENCODING 171
SWIDTH 589 0
DWIDTH 9 0
BBX 9 5 0 2
BITMAP
005140
065A00
64A000
64A400
075A00
ENDCHAR
STARTCHAR logicalnot
ENCODING 172
SWIDTH 444 0
DWIDTH 7 0
BBX 7 4 0 1
BITMAP
BFF4
00B0
00E0
0050
ENDCHAR
STARTCHAR uni00AD
ENCODING 173
SWIDTH 290 0
DWIDTH 5 0
BBX 4 1 0 4
BITMAP
BE
ENDCHAR
STARTCHAR registered
ENCODING 174
SWIDTH 553 0
DWIDTH 9 0
BBX 9 8 0 1
BITMAP
07E400
2BF900
262600
56A140
562140
212200
281900
06E400
ENDCHAR
STARTCHAR macron
ENCODING 175
SWIDTH 446 0
DWIDTH 7 0
BBX 6 1 1 9
BITMAP
BFD0
ENDCHAR
STARTCHAR degree
ENCODING 176
SWIDTH 314 0
DWIDTH 5 0
BBX 5 6 0 6
BITMAP
0A00
2640
7240
6240
6200
2800
ENDCHAR
STARTCHAR plusminus
ENCODING 177
SWIDTH 479 0
DWIDTH 8 0
BBX 7 8 0 2
BITMAP
0080
01C0
3FFC
1794
0340
0700
0000
7FF0
ENDCHAR
STARTCHAR uni00B2
ENCODING 178
SWIDTH 328 0
DWIDTH 5 0
BBX 4 7 1 5
BITMAP
2E
9B
5B
0D
24
90
FE
ENDCHAR
STARTCHAR uni00B3
ENCODING 179
SWIDTH 336 0
DWIDTH 5 0
BBX 4 7 1 5
BITMAP
2E
67
16
0D
D7
CB
68
ENDCHAR
STARTCHAR acute
ENCODING 180
SWIDTH 316 0
DWIDTH 5 0
BBX 3 3 2 9
BITMAP
38
70
90
ENDCHAR
STARTCHAR uni00B5
ENCODING 181
SWIDTH 505 0
DWIDTH 8 0
BBX 10 11 -1 -3
BITMAP
0F4F40
1F1F00
1F1E00
2E2E00
3D3D00
3D7D10
7EBE80
BE6E40
B80000
F40000
500000
ENDCHAR
STARTCHAR paragraph
ENCODING 182
SWIDTH 542 0
DWIDTH 9 0
BBX 7 13 1 -1
BITMAP
0BE4
3FEC
BFDC
BFAC
BFA8
BF78
2FF4
0B70
0AB0
0EA0
0DE0
1DD0
2DC0
ENDCHAR
STARTCHAR periodcentered
ENCODING 183
SWIDTH 434 0
DWIDTH 7 0
BBX 3 3 2 3
BITMAP
B8
FC
B8
ENDCHAR
STARTCHAR cedilla
ENCODING 184
SWIDTH 227 0
DWIDTH 4 0
BBX 4 4 0 -4
BITMAP
24
39
5E
79
ENDCHAR
STARTCHAR uni00B9
ENCODING 185
SWIDTH 229 0
DWIDTH 4 0
BBX 3 7 1 5
BITMAP
14
F4
70
A0
A0
D0
C0
ENDCHAR
STARTCHAR ordmasculine
ENCODING 186
SWIDTH 329 0
DWIDTH 5 0
BBX 5 5 0 7
BITMAP
1E00
3640
7200
7200
2D00
ENDCHAR
STARTCHAR guillemotright
ENCODING 187
SWIDTH 586 0
DWIDTH 9 0
BBX 9 5 0 2
BITMAP
141000
1A1900
01C280
069A40
64A400
ENDCHAR
STARTCHAR onequarter
ENCODING 188
SWIDTH 749 0
DWIDTH 12 0
BBX 11 12 1 0
BITMAP
140340
F40600
700D00
A02800
A03000
D09258
C1C2A8
024374
060674
0D0AB4
1800A0
3400E0
ENDCHAR
STARTCHAR onehalf
ENCODING 189
SWIDTH 745 0
DWIDTH 12 0
BBX 11 12 1 0
BITMAP
140340
F40600
700D00
A02800
A03000
D091F4
C1C328
024238
060060
0D0180
180200
3407F4
ENDCHAR
STARTCHAR threequarters
ENCODING 190
SWIDTH 836 0
DWIDTH 13 0
BBX 12 12 1 0
BITMAP
2E0060
6700C0
160280
0D0300
D70900
CB1C66
682477
00606A
00D08A
0181AE
03001C
0A001C
ENDCHAR
STARTCHAR questiondown
ENCODING 191
SWIDTH 439 0
DWIDTH 7 0
BBX 6 12 0 -4
BITMAP
01E0
02F0
0190
0000
00C0
0280
0B00
2C00
B5E0
F0B0
F4E0
7F80
ENDCHAR
STARTCHAR Agrave
ENCODING 192
SWIDTH 668 0
DWIDTH 11 0
BBX 11 18 0 -2
BITMAP
0000E0
0000A0
000070
000000
0000BC
0003F8
000DB8
0028F4
0070F4
2FF9F0
B6C2E0
6382E0
0B43D0
0F07C0
1E07C0
2D0B80
2D0000
1D0000
ENDCHAR
STARTCHAR Aacute
ENCODING 193
SWIDTH 668 0
DWIDTH 11 0
BBX 12 18 0 -2
BITMAP
000005
00000E
000028
000000
0000BC
0003F8
000DB8
0028F4
0070F4
2FF9F0
B6C2E0
6382E0
0B43D0
0F07C0
1E07C0
2D0B80
2D0000
1D0000
ENDCHAR
STARTCHAR Acircumflex
ENCODING 194
SWIDTH 668 0
DWIDTH 11 0
BBX 12 18 0 -2
BITMAP
000005
00001E
000092
000000
0000BC
0003F8
000DB8
0028F4
0070F4
2FF9F0
B6C2E0
6382E0
0B43D0
0F07C0
1E07C0
2D0B80
2D0000
1D0000
ENDCHAR
STARTCHAR Atilde
ENCODING 195
SWIDTH 668 0
DWIDTH 11 0
BBX 13 17 0 -2
BITMAP
00005400
0001BE40
00000000
0000BC00
0003F800
000DB800
0028F400
0070F400
2FF9F000
B6C2E000
6382E000
0B43D000
0F07C000
1E07C000
2D0B8000
2D000000
1D000000
ENDCHAR
STARTCHAR Adieresis
ENCODING 196
SWIDTH 668 0
DWIDTH 11 0
BBX 12 17 0 -2
BITMAP
00018A
0002CB
000000
0000BC
0003F8
000DB8
0028F4
0070F4
2FF9F0
B6C2E0
6382E0
0B43D0
0F07C0
1E07C0
2D0B80
2D0000
1D0000
ENDCHAR
STARTCHAR Aring
ENCODING 197
SWIDTH 668 0
DWIDTH 11 0
BBX 11 17 0 -2
BITMAP
000038
000058
000078
0000BC
0003F8
000DB8
0028F4
0070F4
2FF9F0
B6C2E0
6382E0
0B43D0
0F07C0
1E07C0
2D0B80
2D0000
1D0000
ENDCHAR
STARTCHAR AE
ENCODING 198
SWIDTH 764 0
DWIDTH 12 0
BBX 15 14 0 -2
BITMAP
0000B914
0002BEE0
000DB800
0024F400
0070F000
6FFAFF40
B2C2E500
1382D000
0B43D000
0F07C000
1E07FF40
2D0BFF40
2D000000
1D000000
ENDCHAR
STARTCHAR Ccedilla
ENCODING 199
SWIDTH 497 0
DWIDTH 8 0
BBX 9 15 0 -3
BITMAP
01BE00
07D340
1F4380
2F0200
3D0000
7D0000
BC0000
BC0000
BC0000
BE0600
7FFC00
1F9000
029000
00A000
068000
ENDCHAR
STARTCHAR Egrave
ENCODING 200
SWIDTH 459 0
DWIDTH 7 0
BBX 8 16 0 0
BITMAP
00A0
00B0
0070
0000
01B9
0786
0B4A
0F49
0B40
07D0
2F40
7D00
BC00
FC01
BD18
2F90
ENDCHAR
STARTCHAR Eacute
ENCODING 201
SWIDTH 459 0
DWIDTH 7 0
BBX 8 16 0 0
BITMAP
000B
000D
0018
0000
01B9
0786
0B4A
0F49
0B40
07D0
2F40
7D00
BC00
FC01
BD18
2F90
ENDCHAR
STARTCHAR Ecircumflex
ENCODING 202
SWIDTH 459 0
DWIDTH 7 0
BBX 8 16 0 0
BITMAP
0008
007D
0192
0000
01B9
0786
0B4A
0F49
0B40
07D0
2F40
7D00
BC00
FC01
BD18
2F90
ENDCHAR
STARTCHAR Edieresis
ENCODING 203
SWIDTH 459 0
DWIDTH 7 0
BBX 9 15 0 0
BITMAP
00E340
009340
000000
01B900
078600
0B4A00
0F4900
0B4000
07D000
2F4000
7D0000
BC0000
FC0100
BD1800
2F9000
ENDCHAR
STARTCHAR Igrave
ENCODING 204
SWIDTH 375 0
DWIDTH 6 0
BBX 7 16 0 0
BITMAP
01D0
00D0
00A0
0000
02F4
1EF0
75F0
A2E0
E3D0
53D0
07C0
0B80
0B80
0F40
1F00
1F00
ENDCHAR
STARTCHAR Iacute
ENCODING 205
SWIDTH 375 0
DWIDTH 6 0
BBX 8 16 0 0
BITMAP
0005
001C
0034
0000
02F4
1EF0
75F0
A2E0
E3D0
53D0
07C0
0B80
0B80
0F40
1F00
1F00
ENDCHAR
STARTCHAR Icircumflex
ENCODING 206
SWIDTH 375 0
DWIDTH 6 0
BBX 8 16 0 0
BITMAP
0004
0078
0289
0000
02F4
1EF0
75F0
A2E0
E3D0
53D0
07C0
0B80
0B80
0F40
1F00
1F00
ENDCHAR
STARTCHAR Idieresis
ENCODING 207
SWIDTH 375 0
DWIDTH 6 0
BBX 8 15 0 0
BITMAP
028A
028E
0000
02F4
1EF0
75F0
A2E0
E3D0
53D0
07C0
0B80
0B80
0F40
1F00
1F00
ENDCHAR
STARTCHAR Eth
ENCODING 208
SWIDTH 663 0
DWIDTH 11 0
BBX 11 12 0 0
BITMAP
02FE40
1D52E0
75F0F0
A2E0F4
A3D0F4
1BF4F4
07C0F0
0B81F0
0B82E0
0F43C0
1F4B40
1FBD00
ENDCHAR
STARTCHAR Ntilde
ENCODING 209
SWIDTH 686 0
DWIDTH 11 0
BBX 12 15 0 0
BITMAP
001BE4
0016E4
000000
06F40D
2DF81C
71F82C
A2FC28
E3BD38
637D74
076E70
0B1FB0
0A0FE0
0E0FD0
1D0BD0
1C07C0
ENDCHAR
STARTCHAR Ograve
ENCODING 210
SWIDTH 665 0
DWIDTH 11 0
BBX 11 16 0 0
BITMAP
003800
002800
001C00
000000
01BF80
0A55E0
38F0B4
B2D0B4
A7C0B4
6B80B4
0F40F0
0F41F0
1F02D0
1F0780
0F9F00
06F800
ENDCHAR
STARTCHAR Oacute
ENCODING 211
SWIDTH 665 0
DWIDTH 11 0
BBX 11 16 0 0
BITMAP
0001D0
000380
000700
000000
01BF80
0A55E0
38F0B4
B2D0B4
A7C0B4
6B80B4
0F40F0
0F41F0
1F02D0
1F0780
0F9F00
06F800
ENDCHAR
STARTCHAR Ocircumflex
ENCODING 212
SWIDTH 665 0
DWIDTH 11 0
BBX 11 16 0 0
BITMAP
000240
000B80
006480
000000
01BF80
0A55E0
38F0B4
B2D0B4
A7C0B4
6B80B4
0F40F0
0F41F0
1F02D0
1F0780
0F9F00
06F800
ENDCHAR
STARTCHAR Otilde
ENCODING 213
SWIDTH 665 0
DWIDTH 11 0
BBX 11 15 0 0
BITMAP
000540
006BE0
000000
01BF80
0A55E0
38F0B4
B2D0B4
A7C0B4
6B80B4
0F40F0
0F41F0
1F02D0
1F0780
0F9F00
06F800
ENDCHAR
STARTCHAR Odieresis
ENCODING 214
SWIDTH 665 0
DWIDTH 11 0
BBX 11 15 0 0
BITMAP
0075D0
0075D0
000000
01BF80
0A55E0
38F0B4
B2D0B4
A7C0B4
6B80B4
0F40F0
0F41F0
1F02D0
1F0780
0F9F00
06F800
ENDCHAR
STARTCHAR multiply
ENCODING 215
SWIDTH 414 0
DWIDTH 7 0
BBX 5 5 1 3
BITMAP
8240
BB40
3D00
BB40
D240
ENDCHAR
STARTCHAR Oslash
ENCODING 216
SWIDTH 658 0
DWIDTH 11 0
BBX 10 13 0 -1
BITMAP
000200
01BF40
1EBAE0
76E8F0
A7CCF0
6B88F0
0F55F0
1F26E0
1F23D0
1F2780
0FBE00
07F800
009000
ENDCHAR
STARTCHAR Ugrave
ENCODING 217
SWIDTH 716 0
DWIDTH 11 0
BBX 12 16 0 0
BITMAP
000740
000340
000280
000000
02B81F
1DF41E
70F02E
E1E03D
D2E03C
53D07C
03C0B8
0780F4
0B81F0
0B82E0
07EBC0
02FE00
ENDCHAR
STARTCHAR Uacute
ENCODING 218
SWIDTH 716 0
DWIDTH 11 0
BBX 12 16 0 0
BITMAP
0000B0
0000D0
000280
000000
02B81F
1DF41E
70F02E
E1E03D
D2E03C
53D07C
03C0B8
0780F4
0B81F0
0B82E0
07EBC0
02FE00
ENDCHAR
STARTCHAR Ucircumflex
ENCODING 219
SWIDTH 716 0
DWIDTH 11 0
BBX 12 16 0 0
BITMAP
000060
0002F0
000914
000000
02B81F
1DF41E
70F02E
E1E03D
D2E03C
53D07C
03C0B8
0780F4
0B81F0
0B82E0
07EBC0
02FE00
ENDCHAR
STARTCHAR Udieresis
ENCODING 220
SWIDTH 716 0
DWIDTH 11 0
BBX 12 15 0 0
BITMAP
000A38
000A28
000000
02B81F
1DF41E
70F02E
E1E03D
D2E03C
53D07C
03C0B8
0780F4
0B81F0
0B82E0
07EBC0
02FE00
ENDCHAR
STARTCHAR Yacute
ENCODING 221
SWIDTH 620 0
DWIDTH 10 0
BBX 11 16 0 0
BITMAP
000014
000074
000090
000000
02F40C
1DF818
74BC30
A07D60
E03D90
503E80
002F40
002F00
002E00
003E00
007D00
007C00
ENDCHAR
STARTCHAR Thorn
ENCODING 222
SWIDTH 583 0
DWIDTH 9 0
BBX 10 12 0 0
BITMAP
00A400
01F000
06FE40
26E2C0
B3D1D0
E7D1D0
A7C3C0
0B8B40
0BF900
0F4000
1F0000
1F0000
ENDCHAR
STARTCHAR germandbls
ENCODING 223
SWIDTH 480 0
DWIDTH 8 0
BBX 9 15 -2 -4
BITMAP
002F40
00F280
01E280
03D300
03D600
07CE00
0B8740
0B83C0
0F43C0
1F4780
1F7E00
2E0000
3D0000
3D0000
640000
ENDCHAR
STARTCHAR agrave
ENCODING 224
SWIDTH 526 0
DWIDTH 8 0
BBX 10 12 -1 0
BITMAP
007400
003400
002800
000000
02FB80
0B4F40
1E0F00
3D1F00
3D2E00
7D3E20
3EBE90
1F5F40
ENDCHAR
STARTCHAR aacute
ENCODING 225
SWIDTH 526 0
DWIDTH 8 0
BBX 10 12 -1 0
BITMAP
000E00
001C00
002400
000000
02FB80
0B4F40
1E0F00
3D1F00
3D2E00
7D3E20
3EBE90
1F5F40
ENDCHAR
STARTCHAR acircumflex
ENCODING 226
SWIDTH 526 0
DWIDTH 8 0
BBX 10 12 -1 0
BITMAP
000900
002E00
009200
000000
02FB80
0B4F40
1E0F00
3D1F00
3D2E00
7D3E20
3EBE90
1F5F40
ENDCHAR
STARTCHAR atilde
ENCODING 227
SWIDTH 526 0
DWIDTH 8 0
BBX 10 11 -1 0
BITMAP
01BE40
016E40
000000
02FB80
0B4F40
1E0F00
3D1F00
3D2E00
7D3E20
3EBE90
1F5F40
ENDCHAR
STARTCHAR adieresis
ENCODING 228
SWIDTH 526 0
DWIDTH 8 0
BBX 10 11 -1 0
BITMAP
00E380
00A340
000000
02FB80
0B4F40
1E0F00
3D1F00
3D2E00
7D3E20
3EBE90
1F5F40
ENDCHAR
STARTCHAR aring
ENCODING 229
SWIDTH 526 0
DWIDTH 8 0
BBX 10 11 -1 0
BITMAP
002C00
003800
000000
02FB80
0B4F40
1E0F00
3D1F00
3D2E00
7D3E20
3EBE90
1F5F40
ENDCHAR
STARTCHAR ae
ENCODING 230
SWIDTH 650 0
DWIDTH 10 0
BBX 11 8 0 0
BITMAP
0BEBE0
14BE70
00BC70
2FF9D0
B8FE40
F4F404
F6F820
7E7F80
ENDCHAR
STARTCHAR ccedilla
ENCODING 231
SWIDTH 384 0
DWIDTH 6 0
BBX 8 12 -1 -4
BITMAP
02F4
0B58
1F14
3E00
3D00
7D01
3D18
1FE0
0140
02E0
00A0
0680
ENDCHAR
STARTCHAR egrave
ENCODING 232
SWIDTH 384 0
DWIDTH 6 0
BBX 8 12 -1 0
BITMAP
01D0
00D0
00A0
0000
02F4
0B5C
1E28
3D74
3F90
7D01
3D18
1F90
ENDCHAR
STARTCHAR eacute
ENCODING 233
SWIDTH 384 0
DWIDTH 6 0
BBX 8 12 -1 0
BITMAP
001D
0028
0034
0000
02F4
0B5C
1E28
3D74
3F90
7D01
3D18
1F90
ENDCHAR
STARTCHAR ecircumflex
ENCODING 234
SWIDTH 384 0
DWIDTH 6 0
BBX 8 12 -1 0
BITMAP
0018
00BC
0289
0000
02F4
0B5C
1E28
3D74
3F90
7D01
3D18
1F90
ENDCHAR
STARTCHAR edieresis
ENCODING 235
SWIDTH 384 0
DWIDTH 6 0
BBX 8 11 -1 0
BITMAP
038E
028D
0000
02F4
0B5C
1E28
3D74
3F90
7D01
3D18
1F90
ENDCHAR
STARTCHAR igrave
ENCODING 236
SWIDTH 267 0
DWIDTH 4 0
BBX 5 12 0 0
BITMAP
3800
2800
1C00
0000
3D00
7C00
7C00
B800
F400
F480
FA40
B900
ENDCHAR
STARTCHAR iacute
ENCODING 237
SWIDTH 267 0
DWIDTH 4 0
BBX 5 12 0 0
BITMAP
0380
0700
0D00
0000
3D00
7C00
7C00
B800
F400
F480
FA40
B900
ENDCHAR
STARTCHAR icircumflex
ENCODING 238
SWIDTH 267 0
DWIDTH 4 0
BBX 5 12 0 0
BITMAP
0600
1F40
6180
0000
3D00
7C00
7C00
B800
F400
F480
FA40
B900
ENDCHAR
STARTCHAR idieresis
ENCODING 239
SWIDTH 267 0
DWIDTH 4 0
BBX 5 11 0 0
BITMAP
B280
6280
0000
3D00
7C00
7C00
B800
F400
F480
FA40
B900
ENDCHAR
STARTCHAR eth
ENCODING 240
SWIDTH 526 0
DWIDTH 8 0
BBX 10 12 -1 0
BITMAP
001800
001FD0
00AF40
000B40
02FF40
0B8F40
1F0F40
3E1F00
3D2E00
7D2E10
3D7E10
1F9F80
ENDCHAR
STARTCHAR ntilde
ENCODING 241
SWIDTH 505 0
DWIDTH 8 0
BBX 10 11 -1 0
BITMAP
02FA40
056A00
000000
0FBD00
1F5E00
1E1E00
2E2E00
3D3D00
3D3C20
7C3E80
B82F40
ENDCHAR
STARTCHAR ograve
ENCODING 242
SWIDTH 433 0
DWIDTH 7 0
BBX 10 12 -1 0
BITMAP
00E000
00A000
007000
000000
02F400
0F5C00
2E2D90
3D1D00
7D1C00
7C2800
3D7000
1F8000
ENDCHAR
STARTCHAR oacute
ENCODING 243
SWIDTH 439 0
DWIDTH 7 0
BBX 10 12 -1 0
BITMAP
001D00
002800
003400
000000
02F400
0B9C00
1F1D90
3E1D00
3D1C00
7D2800
3D7000
1F9000
ENDCHAR
STARTCHAR ocircumflex
ENCODING 244
SWIDTH 433 0
DWIDTH 7 0
BBX 10 12 -1 0
BITMAP
002400
00B800
024800
000000
02F400
0F5C00
2E2D90
3D1D00
7D1C00
7C2800
3D7000
1F8000
ENDCHAR
STARTCHAR otilde
ENCODING 245
SWIDTH 433 0
DWIDTH 7 0
BBX 10 11 -1 0
BITMAP
07E500
05B800
000000
02F400
0F5C00
2E2D90
3D1D00
7D1C00
7C2800
3D7000
1F8000
ENDCHAR
STARTCHAR odieresis
ENCODING 246
SWIDTH 433 0
DWIDTH 7 0
BBX 10 11 -1 0
BITMAP
035D00
035D00
000000
02F400
0F5C00
2E2D90
3D1D00
7D1C00
7C2800
3D7000
1F8000
ENDCHAR
STARTCHAR divide
ENCODING 247
SWIDTH 415 0
DWIDTH 7 0
BBX 7 8 0 1
BITMAP
02C0
03D0
0000
7FF4
0000
0A00
0F40
0B00
ENDCHAR
STARTCHAR oslash
ENCODING 248
SWIDTH 428 0
DWIDTH 7 0
BBX 9 9 -1 -1
BITMAP
02F640
0B9D00
1F1D00
3E7C00
3DAC00
7F6800
3D7000
2F8000
900000
ENDCHAR
STARTCHAR ugrave
ENCODING 249
SWIDTH 505 0
DWIDTH 8 0
BBX 9 12 0 0
BITMAP
038000
02C000
01C000
000000
3D3D00
7C7C00
7C7800
B8B800
F4F400
F5F440
FAFA00
B9B900
ENDCHAR
STARTCHAR uacute
ENCODING 250
SWIDTH 505 0
DWIDTH 8 0
BBX 9 12 0 0
BITMAP
003800
007000
00D000
000000
3D3D00
7C7C00
7C7800
B8B800
F4F400
F5F440
FAFA00
B9B900
ENDCHAR
STARTCHAR ucircumflex
ENCODING 251
SWIDTH 505 0
DWIDTH 8 0
BBX 9 12 0 0
BITMAP
006000
01F400
061800
000000
3D3D00
7C7C00
7C7800
B8B800
F4F400
F5F440
FAFA00
B9B900
ENDCHAR
STARTCHAR udieresis
ENCODING 252
SWIDTH 505 0
DWIDTH 8 0
BBX 9 11 0 0
BITMAP
0B2800
0A2800
000000
3D3D00
7C7C00
7C7800
B8B800
F4F400
F5F440
FAFA00
B9B900
ENDCHAR
STARTCHAR yacute
ENCODING 253
SWIDTH 505 0
DWIDTH 8 0
BBX 9 16 0 -4
BITMAP
003800
007000
00D000
000000
3D3D00
7C7C00
7C7800
B8B800
F4F400
F5F140
FBF200
BAF800
0BE000
27D000
6BC000
2E4000
ENDCHAR
STARTCHAR thorn
ENCODING 254
SWIDTH 473 0
DWIDTH 8 0
BBX 9 16 -2 -4
BITMAP
00A000
01F000
02E000
02D000
03EF40
07D7C0
0783C0
0B87C0
0F47C0
0F4B40
1F1F00
2FF800
2E0000
3D0000
3C0000
640000
ENDCHAR
STARTCHAR ydieresis
ENCODING 255
SWIDTH 505 0
DWIDTH 8 0
BBX 9 15 0 -4
BITMAP
0A3800
0A2800
000000
3D3D00
7C7C00
7C7800
B8B800
F4F400
F5F140
FBF200
BAF800
0BE000
27D000
6BC000
2E4000
ENDCHAR
STARTCHAR Amacron
ENCODING 256
SWIDTH 668 0
DWIDTH 11 0
BBX 13 16 0 -2
BITMAP
0002FF40
00000000
0000BC00
0003F800
000DB800
0028F400
0070F400
2FF9F000
B6C2E000
6382E000
0B43D000
0F07C000
1E07C000
2D0B8000
2D000000
1D000000
ENDCHAR
STARTCHAR amacron
ENCODING 257
SWIDTH 526 0
DWIDTH 8 0
BBX 10 11 -1 0
BITMAP
01FF80
000000
000000
02FB80
0B4F40
1E0F00
3D1F00
3D2E00
7D3E20
3EBE90
1F5F40
ENDCHAR
STARTCHAR Abreve
ENCODING 258
SWIDTH 668 0
DWIDTH 11 0
BBX 13 17 0 -2
BITMAP
0002C2C0
0000BA00
00000000
0000BC00
0003F800
000DB800
0028F400
0070F400
2FF9F000
B6C2E000
6382E000
0B43D000
0F07C000
1E07C000
2D0B8000
2D000000
1D000000
ENDCHAR
STARTCHAR abreve
ENCODING 259
SWIDTH 526 0
DWIDTH 8 0
BBX 10 12 -1 0
BITMAP
02C1C0
01D280
00BD00
000000
02FB80
0B4F40
1E0F00
3D1F00
3D2E00
7D3E20
3EBE90
1F5F40
ENDCHAR
STARTCHAR Aogonek
ENCODING 260
SWIDTH 668 0
DWIDTH 11 0
BBX 11 15 0 -3
BITMAP
0000BC
0003F8
000DB8
0028F4
0070F4
2FF9F0
B6C2E0
6382E0
0B43D0
0F07C0
1E07C0
2D0B80
2D0900
090D40
000B40
ENDCHAR
STARTCHAR aogonek
ENCODING 261
SWIDTH 526 0
DWIDTH 8 0
BBX 10 11 -1 -3
BITMAP
02FB80
0B8F40
1F0F40
3E1F00
3D2E00
7D2E10
3D7E10
1F9F80
000900
001C40
000E40
ENDCHAR
STARTCHAR Cacute
ENCODING 262
SWIDTH 497 0
DWIDTH 8 0
BBX 9 16 0 0
BITMAP
000740
000E00
001C00
000000
01BE00
07D340
1F4380
2F0640
3E0000
7D0000
BC0000
BC0000
BC0000
BC0000
7E0600
1BE400
ENDCHAR
STARTCHAR cacute
ENCODING 263
SWIDTH 384 0
DWIDTH 6 0
BBX 8 12 -1 0
BITMAP
000E
001C
0028
0000
02F4
0B5C
1F14
3E00
3D00
7D01
3D18
1F90
ENDCHAR
STARTCHAR Ccircumflex
ENCODING 264
SWIDTH 497 0
DWIDTH 8 0
BBX 9 16 0 0
BITMAP
000800
007D00
019200
000000
01BE00
07D340
1F4380
2F0640
3E0000
7D0000
BC0000
BC0000
BC0000
BC0000
7E0600
1BE400
ENDCHAR
STARTCHAR ccircumflex
ENCODING 265
SWIDTH 384 0
DWIDTH 6 0
BBX 8 12 -1 0
BITMAP
0018
00BC
0289
0000
02F4
0B5C
1F14
3E00
3D00
7D01
3D18
1F90
ENDCHAR
STARTCHAR Cdotaccent
ENCODING 266
SWIDTH 497 0
DWIDTH 8 0
BBX 9 15 0 0
BITMAP
000F40
000B40
000000
01BE00
07D340
1F4380
2F0640
3E0000
7D0000
BC0000
BC0000
BC0000
BC0000
7E0600
1BE400
ENDCHAR
STARTCHAR cdotaccent
ENCODING 267
SWIDTH 384 0
DWIDTH 6 0
BBX 8 12 -1 0
BITMAP
0078
007C
0024
0000
02F4
0B5C
1F14
3E00
3D00
7D01
3D18
1F90
ENDCHAR
STARTCHAR Ccaron
ENCODING 268
SWIDTH 497 0
DWIDTH 8 0
BBX 9 16 0 0
BITMAP
006180
003E00
002800
000000
01BE00
07D340
1F4380
2F0640
3E0000
7D0000
BC0000
BC0000
BC0000
BC0000
7E0600
1BE400
ENDCHAR
STARTCHAR ccaron
ENCODING 269
SWIDTH 384 0
DWIDTH 6 0
BBX 9 12 -1 0
BITMAP
008240
007D00
003400
000000
02F400
0B5800
1E1400
3D0000
3D0000
7D0500
3E6800
1F9000
ENDCHAR
STARTCHAR Dcaron
ENCODING 270
SWIDTH 663 0
DWIDTH 11 0
BBX 11 16 0 0
BITMAP
002180
002E00
001800
000000
02BE40
1E52D0
75F0F0
A2E0F4
E3D0F4
63D0F4
07C0F0
0B81F0
0B82E0
0F43C0
1F4B40
1FBD00
ENDCHAR
STARTCHAR dcaron
ENCODING 271
SWIDTH 525 0
DWIDTH 8 0
BBX 12 12 -1 0
BITMAP
00000A
0002DA
0007C9
000BC0
02FB80
0B8F40
1F0F40
3E1F00
3D2E00
7D2E10
3D7E10
1F9F80
ENDCHAR
STARTCHAR Dcroat
ENCODING 272
SWIDTH 663 0
DWIDTH 11 0
BBX 11 12 0 0
BITMAP
02FE40
1D52E0
75F0F0
A2E0F4
A3D0F4
1BF4F4
07C0F0
0B81F0
0B82E0
0F43C0
1F4B40
1FBD00
ENDCHAR
STARTCHAR dcroat
ENCODING 273
SWIDTH 525 0
DWIDTH 8 0
BBX 11 12 -1 0
BITMAP
000040
0003C0
002FF4
000B80
02FB80
0B8F40
1F0F40
3E1F00
3D2E00
7D2E10
3D7E10
1F9F80
ENDCHAR
STARTCHAR Emacron
ENCODING 274
SWIDTH 459 0
DWIDTH 7 0
BBX 9 15 0 0
BITMAP
01FF80
000000
000000
01B900
078600
0B4A00
0F4900
0B4000
07D000
2F4000
7D0000
BC0000
FC0100
BD1800
2F9000
ENDCHAR
STARTCHAR emacron
ENCODING 275
SWIDTH 384 0
DWIDTH 6 0
BBX 8 11 -1 0
BITMAP
0BFE
0000
0000
02F4
0B5C
1E28
3D74
3F90
7D01
3D18
1F90
ENDCHAR
STARTCHAR Ebreve
ENCODING 276
SWIDTH 459 0
DWIDTH 7 0
BBX 9 16 0 0
BITMAP
014080
01D2C0
007E00
000000
01B900
078600
0B4A00
0F4900
0B4000
07D000
2F4000
7D0000
BC0000
FC0100
BD1800
2F9000
ENDCHAR
STARTCHAR ebreve
ENCODING 277
SWIDTH 384 0
DWIDTH 6 0
BBX 8 12 -1 0
BITMAP
0A0B
0B1D
02E4
0000
02F4
0B5C
1E28
3D74
3F90
7D01
3D18
1F90
ENDCHAR
STARTCHAR Edotaccent
ENCODING 278
SWIDTH 459 0
DWIDTH 7 0
BBX 8 15 0 0
BITMAP
002E
002D
0000
01B9
0786
0B4A
0F49
0B40
07D0
2F40
7D00
BC00
FC01
BD18
2F90
ENDCHAR
STARTCHAR edotaccent
ENCODING 279
SWIDTH 384 0
DWIDTH 6 0
BBX 8 12 -1 0
BITMAP
0078
00BC
0064
0000
02F4
0B5C
1E28
3D74
3F90
7D01
3D18
1F90
ENDCHAR
STARTCHAR Eogonek
ENCODING 280
SWIDTH 459 0
DWIDTH 7 0
BBX 8 15 0 -3
BITMAP
06F8
0F4A
1E07
1E09
0F40
07D0
2F00
BD00
BC00
BD01
7F58
1FE0
0080
01C0
01E0
ENDCHAR
STARTCHAR eogonek
ENCODING 281
SWIDTH 384 0
DWIDTH 6 0
BBX 8 11 -1 -3
BITMAP
02F4
0B5C
1E28
3D74
3F90
7D01
3E58
1FE0
0240
0350
02D0
ENDCHAR
STARTCHAR Ecaron
ENCODING 282
SWIDTH 459 0
DWIDTH 7 0
BBX 9 16 0 0
BITMAP
002180
002E00
001800
000000
01B900
078600
0B4A00
0F4900
0B4000
07D000
2F4000
7D0000
BC0000
FC0100
BD1800
2F9000
ENDCHAR
STARTCHAR ecaron
ENCODING 283
SWIDTH 384 0
DWIDTH 6 0
BBX 9 12 -1 0
BITMAP
008640
007D00
003400
000000
02F400
0B5C00
1F2800
3D7000
3E8000
7D0100
3D1800
1F9000
ENDCHAR
STARTCHAR Gcircumflex
ENCODING 284
SWIDTH 578 0
DWIDTH 9 0
BBX 9 19 0 -3
BITMAP
000600
001F40
006540
000000
01BE40
0BD2C0
2F0280
3D0000
7C0000
BC0780
B80B40
BC0F40
3D2F00
1BAE00
001E00
0B6D00
287C00
28B400
1BD000
ENDCHAR
STARTCHAR gcircumflex
ENCODING 285
SWIDTH 507 0
DWIDTH 8 0
BBX 10 16 -1 -4
BITMAP
000900
002E00
009200
000000
02FB80
0B8F40
1F0F00
3E1F00
3D2E00
7D2E10
3D7D50
1FBE80
01BC00
0AB800
0CF400
07D000
ENDCHAR
STARTCHAR Gbreve
ENCODING 286
SWIDTH 578 0
DWIDTH 9 0
BBX 10 18 0 -3
BITMAP
007070
002E90
000000
01BE40
0BD2C0
2F02C0
3D0280
7C0000
BC0140
B80780
BC0F40
3D2F00
1BAE00
001E00
0B6D00
287C00
28B400
1BD000
ENDCHAR
STARTCHAR gbreve
ENCODING 287
SWIDTH 507 0
DWIDTH 8 0
BBX 10 16 -1 -4
BITMAP
02C1C0
01D280
00BD00
000000
02FB80
0B8F40
1F0F00
3E1F00
3D2E00
7D2E10
3D7D50
1FBE80
01BC00
0AB800
0CF400
07D000
ENDCHAR
STARTCHAR Gdotaccent
ENCODING 288
SWIDTH 578 0
DWIDTH 9 0
BBX 9 18 0 -3
BITMAP
001E00
001E00
000000
01BE40
0BD2C0
2F02C0
3D0280
7C0000
BC0140
B80780
BC0F40
3D2F00
1BAE00
001E00
0B6D00
287C00
28B400
1BD000
ENDCHAR
STARTCHAR gdotaccent
ENCODING 289
SWIDTH 507 0
DWIDTH 8 0
BBX 10 16 -1 -4
BITMAP
001D00
002E00
001900
000000
02FB80
0B8F40
1F0F00
3E1F00
3D2E00
7D2E10
3D7D50
1FBE80
01BC00
0AB800
0CF400
07D000
ENDCHAR
STARTCHAR Gcommaaccent
ENCODING 290
SWIDTH 578 0
DWIDTH 9 0
BBX 9 16 0 -4
BITMAP
01BD00
07D740
1F4740
2E0600
7D0000
BC0000
BC0740
F80B40
B80F00
BC1E00
7D7E00
1FAD00
000000
028000
018000
010000
ENDCHAR
STARTCHAR gcommaaccent
ENCODING 291
SWIDTH 507 0
DWIDTH 8 0
BBX 10 16 -1 -4
BITMAP
000400
002800
002800
000000
02FB80
0B8F40
1F0F00
3E1F00
3D2E00
7D2E10
3D7D50
1FBE80
01BC00
0AB800
0CF400
07D000
ENDCHAR
STARTCHAR Hcircumflex
ENCODING 292
SWIDTH 665 0
DWIDTH 11 0
BBX 11 16 0 0
BITMAP
000040
0002E0
000920
000000
01B47C
1EF0B8
35F0B8
B2E0F4
A2E0F0
63FFF0
07D6E0
07C2E0
0B83D0
0F47C0
0F47C0
1F0B80
ENDCHAR
STARTCHAR hcircumflex
ENCODING 293
SWIDTH 505 0
DWIDTH 8 0
BBX 10 15 -1 0
BITMAP
001000
00B000
02A400
040400
06C000
0B8000
0B4000
0FBD00
1F5E00
1E1E00
2E2E00
3D3D00
3D3D10
7C3D50
B82F40
ENDCHAR
STARTCHAR Hbar
ENCODING 294
SWIDTH 665 0
DWIDTH 11 0
BBX 12 12 0 0
BITMAP
01B47C
1EF0B8
75F0B8
B7FAFE
A2E0F4
63FFF0
07C2E0
07C2E0
0B83D0
0F47C0
0F47C0
1F0B80
ENDCHAR
STARTCHAR hbar
ENCODING 295
SWIDTH 505 0
DWIDTH 8 0
BBX 10 12 -1 0
BITMAP
014000
07C000
2FF400
0B4000
0FBD00
1F5E00
1E1E00
2E2E00
3D3D00
3D3D10
7C3D50
B82F40
ENDCHAR
STARTCHAR Itilde
ENCODING 296
SWIDTH 375 0
DWIDTH 6 0
BBX 8 15 0 0
BITMAP
0154
06BE
0000
02F4
1EF0
75F0
A2E0
E3D0
53D0
07C0
0B80
0B80
0F40
1F00
1F00
ENDCHAR
STARTCHAR itilde
ENCODING 297
SWIDTH 267 0
DWIDTH 4 0
BBX 5 11 0 0
BITMAP
3E40
5A00
0000
3D00
7C00
7C00
B800
F400
F480
FA40
B900
ENDCHAR
STARTCHAR Imacron
ENCODING 298
SWIDTH 375 0
DWIDTH 6 0
BBX 8 14 0 0
BITMAP
07FE
0000
02F4
1EF0
75F0
A2E0
E3D0
53D0
07C0
0B80
0B80
0F40
1F00
1F00
ENDCHAR
STARTCHAR imacron
ENCODING 299
SWIDTH 267 0
DWIDTH 4 0
BBX 5 11 0 0
BITMAP
BF80
0000
0000
3D00
7C00
7C00
B800
F400
F480
FA40
B900
ENDCHAR
STARTCHAR Ibreve
ENCODING 300
SWIDTH 375 0
DWIDTH 6 0
BBX 9 15 0 0
BITMAP
034740
01F900
000000
02F400
1EF000
75F000
A2E000
E3D000
53D000
07C000
0B8000
0B8000
0F4000
1F0000
1F0000
ENDCHAR
STARTCHAR ibreve
ENCODING 301
SWIDTH 267 0
DWIDTH 4 0
BBX 6 12 0 0
BITMAP
60D0
7180
2E00
0000
3D00
7C00
7C00
B800
F400
F480
FA40
B900
ENDCHAR
STARTCHAR Iogonek
ENCODING 302
SWIDTH 375 0
DWIDTH 6 0
BBX 7 19 0 -3
BITMAP
0340
0280
0180
0000
02F4
1EF0
75F0
A2E0
E3D0
53D0
07C0
0B80
0B80
0F40
1F00
1F00
1800
3440
2E00
ENDCHAR
STARTCHAR iogonek
ENCODING 303
SWIDTH 267 0
DWIDTH 4 0
BBX 6 14 -1 -3
BITMAP
0780
0BC0
0640
0F40
1F00
1F00
2E00
3D00
3D20
3E90
2E40
6000
A100
7D00
ENDCHAR
STARTCHAR Idotaccent
ENCODING 304
SWIDTH 375 0
DWIDTH 6 0
BBX 7 15 0 0
BITMAP
0078
0078
0000
02F4
1EF0
75F0
A2E0
E3D0
53D0
07C0
0B80
0B80
0F40
1F00
1F00
ENDCHAR
STARTCHAR dotlessi
ENCODING 305
SWIDTH 267 0
DWIDTH 4 0
BBX 5 8 0 0
BITMAP
3D00
7C00
7C00
B800
F400
F480
FA40
B900
ENDCHAR
STARTCHAR IJ
ENCODING 306
SWIDTH 663 0
DWIDTH 11 0
BBX 11 15 0 -3
BITMAP
02F468
1EF0F4
75F0F4
A2E1F0
E3D2E0
53D2E0
07C3D0
0B87C0
0B87C0
0F4B80
1F0F80
1F8F40
0D1F00
0D2D00
07E400
ENDCHAR
STARTCHAR ij
ENCODING 307
SWIDTH 507 0
DWIDTH 8 0
BBX 9 15 0 -4
BITMAP
1E0E00
2F1F00
190A00
3D2E00
7C3D00
7C3C00
B87C00
F4B800
F4B480
F9F640
B9F900
07F000
26E000
37D000
1F4000
ENDCHAR
STARTCHAR Jcircumflex
ENCODING 308
SWIDTH 536 0
DWIDTH 9 0
BBX 10 19 0 -3
BITMAP
000090
0002E0
000920
000000
000BC0
007BC0
01DB80
038B40
038F40
015F00
001F00
002E00
003D00
007D00
007C00
2EB800
A0F400
A1E000
2F8000
ENDCHAR
STARTCHAR jcircumflex
ENCODING 309
SWIDTH 240 0
DWIDTH 4 0
BBX 9 16 -4 -4
BITMAP
000600
001F00
00A140
000000
003D00
007C00
007C00
00B800
00F400
00F540
01F200
01F900
0BE000
3BD000
67C000
2E4000
ENDCHAR
STARTCHAR Kcommaaccent
ENCODING 310
SWIDTH 601 0
DWIDTH 10 0
BBX 11 15 0 -3
BITMAP
02F474
1EF1D0
75E340
A2EA00
E3E800
53FE00
07CB80
0B8780
0B8B40
0F4F40
1F1F00
1F0F00
005000
00E000
009000
ENDCHAR
STARTCHAR kcommaaccent
ENCODING 311
SWIDTH 518 0
DWIDTH 8 0
BBX 10 15 -1 -4
BITMAP
07C000
0B8000
0B8000
0F4A00
1F6400
1FF800
2FBE00
3D2E00
3D3D20
7C3E90
B81F40
000000
028000
018000
010000
ENDCHAR
STARTCHAR kgreenlandic
ENCODING 312
SWIDTH 518 0
DWIDTH 8 0
BBX 10 8 -1 0
BITMAP
0F4A00
1F6400
1FF800
2FBE00
3D2E00
3D3D20
7C3E90
B81F40
ENDCHAR
STARTCHAR Lacute
ENCODING 313
SWIDTH 379 0
DWIDTH 6 0
BBX 11 20 0 -4
BITMAP
000500
000D00
002800
001000
02F400
1EF000
71E000
A2E000
A3D000
53C000
07C000
0B8000
0B8000
0F4000
1F0000
1F4000
02E400
007E54
000BF4
0002E0
ENDCHAR
STARTCHAR lacute
ENCODING 314
SWIDTH 267 0
DWIDTH 4 0
BBX 6 15 0 0
BITMAP
01D0
0280
0700
0000
1F00
2E00
2D00
3D00
7C00
7C00
B800
F400
F480
FA40
B900
ENDCHAR
STARTCHAR Lcommaaccent
ENCODING 315
SWIDTH 379 0
DWIDTH 6 0
BBX 11 16 0 -4
BITMAP
02F400
1EF000
71E000
A2E000
A3D000
53C000
07C000
0B8000
0B8000
0F4000
1F0000
1F4000
02E400
2C7E54
180BF4
1402E0
ENDCHAR
STARTCHAR lcommaaccent
ENCODING 316
SWIDTH 267 0
DWIDTH 4 0
BBX 5 15 0 -4
BITMAP
1F00
2E00
2D00
3D00
7C00
7C00
B800
F400
F480
FA40
B900
0000
A000
A000
4000
ENDCHAR
STARTCHAR Lcaron
ENCODING 317
SWIDTH 379 0
DWIDTH 6 0
BBX 11 20 0 -4
BITMAP
004040
002740
002C00
001000
02F400
1EF000
71E000
A2E000
A3D000
53C000
07C000
0B8000
0B8000
0F4000
1F0000
1F4000
02E400
007E54
000BF4
0002E0
ENDCHAR
STARTCHAR lcaron
ENCODING 318
SWIDTH 267 0
DWIDTH 4 0
BBX 7 12 0 0
BITMAP
0074
1B74
2E20
2E00
3D00
7C00
7C00
B800
F400
F480
FA40
B900
ENDCHAR
STARTCHAR Ldot
ENCODING 319
SWIDTH 605 0
DWIDTH 10 0
BBX 11 16 0 -4
BITMAP
02B400
1EF000
75E000
A2E000
E3D000
A3D000
07C000
0B8780
0B8BC0
0F4240
1F0000
1F4000
02E000
007E54
000BF4
0002E0
ENDCHAR
STARTCHAR ldot
ENCODING 320
SWIDTH 353 0
DWIDTH 6 0
BBX 6 11 0 0
BITMAP
1A00
2E00
2E00
3D00
7D00
7DD0
B9D0
F800
F400
F400
B800
ENDCHAR
STARTCHAR Lslash
ENCODING 321
SWIDTH 392 0
DWIDTH 6 0
BBX 11 16 0 -4
BITMAP
02F400
1EF000
71E000
A2E500
A3F400
53D000
0BC000
1B8000
0B8000
0F4000
1F0000
1F4000
02E400
007E54
000BF4
0002E0
ENDCHAR
STARTCHAR lslash
ENCODING 322
SWIDTH 286 0
DWIDTH 5 0
BBX 6 11 -1 0
BITMAP
07C0
0B80
0B90
0FA0
1F40
2F00
7E00
3D00
3D20
3E90
2E40
ENDCHAR
STARTCHAR Nacute
ENCODING 323
SWIDTH 702 0
DWIDTH 11 0
BBX 12 16 0 0
BITMAP
000014
000074
0000A0
000000
06F40D
2DF81C
71F82C
A2FC28
E3BD38
637D74
076E70
0B1FB0
0A0FE0
0E0FD0
1D0BD0
1C07C0
ENDCHAR
STARTCHAR nacute
ENCODING 324
SWIDTH 505 0
DWIDTH 8 0
BBX 10 12 -1 0
BITMAP
000B00
000D00
002800
000000
0FBD00
1F5E00
1E1E00
2E2E00
3D3D00
3D3C20
7C3E80
B82F40
ENDCHAR
STARTCHAR Ncommaaccent
ENCODING 325
SWIDTH 668 0
DWIDTH 11 0
BBX 12 16 0 -4
BITMAP
06F40D
2DF81C
71F82C
A2FC28
E3BD38
637D74
076E70
0B1FB0
0A0FE0
0E0FD0
1D0BD0
1C07C0
000000
00D000
009000
004000
ENDCHAR
STARTCHAR ncommaaccent
ENCODING 326
SWIDTH 505 0
DWIDTH 8 0
BBX 10 12 -1 -4
BITMAP
0FBD00
1F5E00
1E1E00
2E2E00
3D3D00
3D3D10
7C3D50
B82F40
000000
034000
034000
010000
ENDCHAR
STARTCHAR Ncaron
ENCODING 327
SWIDTH 668 0
DWIDTH 11 0
BBX 12 16 0 0
BITMAP
000105
0002A4
0001D0
000000
06F40D
2DF81C
71F82C
A2FC28
E3BD38
637D74
076E70
0B1FB0
0A0FE0
0E0FD0
1D0BD0
1C07C0
ENDCHAR
STARTCHAR ncaron
ENCODING 328
SWIDTH 505 0
DWIDTH 8 0
BBX 10 12 -1 0
BITMAP
008600
00B800
006000
000000
0FBD00
1F5E00
1E1E00
2E2E00
3D3D00
3D3D10
7C3D50
B82F40
ENDCHAR
STARTCHAR napostrophe
ENCODING 329
SWIDTH 505 0
DWIDTH 8 0
BBX 10 12 -1 0
BITMAP
1D0000
0D0000
080000
000000
0FBD00
1F5E00
1E1E00
2E2E00
3D3D00
3D3D10
7C3D50
B82F40
ENDCHAR
STARTCHAR Eng
ENCODING 330
SWIDTH 723 0
DWIDTH 12 0
BBX 12 16 1 -4
BITMAP
06F01D
3AF42C
B2F828
E3F838
D3BC74
A77C70
0B2DB0
0A2EE0
0E1FD0
1D0FD0
1C0BC0
2C0780
024780
034B00
035E00
01A400
ENDCHAR
STARTCHAR eng
ENCODING 331
SWIDTH 505 0
DWIDTH 8 0
BBX 8 12 -1 -4
BITMAP
0FBD
1FAE
1F1E
2E2E
3D2D
3D3D
7C7C
B878
02F8
08F4
15F0
0B90
ENDCHAR
STARTCHAR Omacron
ENCODING 332
SWIDTH 665 0
DWIDTH 11 0
BBX 11 15 0 0
BITMAP
00BFE0
000000
000000
01BF80
0A55E0
38F0B4
B2D0B4
A7C0B4
6B80B4
0F40F0
0F41F0
1F02D0
1F0780
0F9F00
06F800
ENDCHAR
STARTCHAR omacron
ENCODING 333
SWIDTH 433 0
DWIDTH 7 0
BBX 10 11 -1 0
BITMAP
07FE00
000000
000000
02F400
0F5C00
2E2D90
3D1D00
7D1C00
7C2800
3D7000
1F8000
ENDCHAR
STARTCHAR Obreve
ENCODING 334
SWIDTH 665 0
DWIDTH 11 0
BBX 11 15 0 0
BITMAP
003834
001B90
000000
01BF80
0A55E0
38F0B4
B2D0B4
A7C0B4
6B80B4
0F40F0
0F41F0
1F02D0
1F0780
0F9F00
06F800
ENDCHAR
STARTCHAR obreve
ENCODING 335
SWIDTH 433 0
DWIDTH 7 0
BBX 10 12 -1 0
BITMAP
074340
038B00
01B800
000000
02F400
0F5C00
2E2D90
3D1D00
7D1C00
7C2800
3D7000
1F8000
ENDCHAR
STARTCHAR Ohungarumlaut
ENCODING 336
SWIDTH 665 0
DWIDTH 11 0
BBX 12 16 0 0
BITMAP
00029D
000728
000960
000000
01BF80
0A55E0
38F0B4
B2D0B4
A7C0B4
6B80B4
0F40F0
0F41F0
1F02D0
1F0780
0F9F00
06F800
ENDCHAR
STARTCHAR ohungarumlaut
ENCODING 337
SWIDTH 433 0
DWIDTH 7 0
BBX 10 12 -1 0
BITMAP
00B380
00D600
014800
000000
02F400
0F5C00
2E2D90
3D1D00
7D1C00
7C2800
3D7000
1F8000
ENDCHAR
STARTCHAR OE
ENCODING 338
SWIDTH 846 0
DWIDTH 14 0
BBX 15 12 0 0
BITMAP
01BFFFF4
1E65FAA0
38F0B400
B2D0B400
A7C0B400
1B80BF40
0F40F500
0F41E000
1F02D000
1F07C000
0F4FEA00
06FFFF00
ENDCHAR
STARTCHAR oe
ENCODING 339
SWIDTH 663 0
DWIDTH 11 0
BBX 12 8 0 0
BITMAP
0BD6E0
3D7F64
B8BE24
F4BD60
F07D40
F0BC05
F4FD64
7E6F90
ENDCHAR
STARTCHAR Racute
ENCODING 340
SWIDTH 601 0
DWIDTH 10 0
BBX 10 16 0 0
BITMAP
000380
000700
000D00
000000
02FE40
1E52C0
75F1D0
A2E2C0
E3D740
53FF40
07CB80
0B8780
0B8B40
0F4F40
1F1F00
1F0F00
ENDCHAR
STARTCHAR racute
ENCODING 341
SWIDTH 376 0
DWIDTH 6 0
BBX 7 12 -1 0
BITMAP
002C
0034
0060
0000
0FBC
1F6C
1E00
2E00
3D00
3D00
7C00
B800
ENDCHAR
STARTCHAR Rcommaaccent
ENCODING 342
SWIDTH 601 0
DWIDTH 10 0
BBX 10 15 0 -3
BITMAP
02FE40
1E52C0
75F1D0
A2E2C0
E3D740
53FF40
07CB80
0B8780
0B8B40
0F4F40
1F1F00
1F0F00
004000
01D000
008000
ENDCHAR
STARTCHAR rcommaaccent
ENCODING 343
SWIDTH 376 0
DWIDTH 6 0
BBX 7 12 -1 -4
BITMAP
0FBC
1F6C
1E00
2E00
3D00
3D00
7C00
B800
0000
0D00
0D00
0400
ENDCHAR
STARTCHAR Rcaron
ENCODING 344
SWIDTH 601 0
DWIDTH 10 0
BBX 10 16 0 0
BITMAP
0014A0
000F40
000900
000000
02FE40
1E52C0
75F1D0
A2E2C0
E3D740
53FF40
07CB80
0B8780
0B8B40
0F4F40
1F1F00
1F0F00
ENDCHAR
STARTCHAR rcaron
ENCODING 345
SWIDTH 376 0
DWIDTH 6 0
BBX 8 12 -1 0
BITMAP
0219
02F0
0180
0000
0FBC
1F6C
1E00
2E00
3D00
3D00
7C00
B800
ENDCHAR
STARTCHAR Sacute
ENCODING 346
SWIDTH 570 0
DWIDTH 9 0
BBX 9 16 0 0
BITMAP
000380
000B00
000D00
000000
01BE00
07D380
0B8280
07C240
03E000
01F800
007E00
2F2F00
781F40
741F00
397D00
1BE400
ENDCHAR
STARTCHAR sacute
ENCODING 347
SWIDTH 382 0
DWIDTH 6 0
BBX 8 12 -1 0
BITMAP
001D
0038
0070
0050
03E0
07E0
0AE0
09F0
25F0
75F5
62F4
2F80
ENDCHAR
STARTCHAR Scircumflex
ENCODING 348
SWIDTH 570 0
DWIDTH 9 0
BBX 9 16 0 0
BITMAP
000600
001F40
006140
000000
01BE00
07D380
0B8280
07C240
03E000
01F800
007E00
2F2F00
781F40
741F00
397D00
1BE400
ENDCHAR
STARTCHAR scircumflex
ENCODING 349
SWIDTH 382 0
DWIDTH 6 0
BBX 8 12 -1 0
BITMAP
0070
01F4
0658
0050
03E0
07E0
0AE0
09F0
25F0
75F5
62F4
2F80
ENDCHAR
STARTCHAR Scedilla
ENCODING 350
SWIDTH 570 0
DWIDTH 9 0
BBX 9 16 0 -4
BITMAP
01BE00
07D380
0B8280
07C240
03E000
01F800
007D00
2E2F00
781F40
741F00
382D00
1BE400
024000
02F000
04B000
07D000
ENDCHAR
STARTCHAR scedilla
ENCODING 351
SWIDTH 382 0
DWIDTH 6 0
BBX 8 12 -1 -4
BITMAP
02E0
07E0
0AE0
09F0
25F0
75F1
62F4
2F80
0800
1F40
1340
2E00
ENDCHAR
STARTCHAR Scaron
ENCODING 352
SWIDTH 570 0
DWIDTH 9 0
BBX 10 16 0 0
BITMAP
001460
000F80
000900
000000
01BE00
07D380
0B8280
07C240
03E000
01F800
007E00
2F2F00
781F40
741F00
397D00
1BE400
ENDCHAR
STARTCHAR scaron
ENCODING 353
SWIDTH 369 0
DWIDTH 6 0
BBX 8 12 -1 0
BITMAP
0209
01F4
00D0
0050
03E0
07E0
0AF0
09F0
25F0
75F5
66F4
2F80
ENDCHAR
STARTCHAR uni0162
ENCODING 354
SWIDTH 481 0
DWIDTH 8 0
BBX 12 16 0 -4
BITMAP
06FE45
297FFD
70BEA8
A0B800
E0F800
A0F400
01F000
02F000
02E000
03D000
07C000
07C000
020000
03E000
04E000
078000
ENDCHAR
STARTCHAR uni0163
ENCODING 355
SWIDTH 267 0
DWIDTH 4 0
BBX 6 15 -1 -4
BITMAP
0140
0B80
0B80
1FD0
1F00
1F00
2E00
3D00
3D20
3E90
2E40
1400
2F00
0B00
7D00
ENDCHAR
STARTCHAR Tcaron
ENCODING 356
SWIDTH 481 0
DWIDTH 8 0
BBX 12 16 0 0
BITMAP
001050
002A40
000D00
000000
06FE45
297FFD
70BEA8
A0B800
E0F800
A0F400
01F000
02F000
02E000
03D000
07C000
07C000
ENDCHAR
STARTCHAR tcaron
ENCODING 357
SWIDTH 267 0
DWIDTH 4 0
BBX 7 12 0 0
BITMAP
0074
0534
2E20
2E00
7F40
7C00
7C00
B800
F400
F480
FA40
B900
ENDCHAR
STARTCHAR Tbar
ENCODING 358
SWIDTH 481 0
DWIDTH 8 0
BBX 12 12 0 0
BITMAP
06FE45
287FFD
70BCA8
A0B800
E0F400
60F400
01F000
2FFF40
02E000
03D000
03C000
07C000
ENDCHAR
STARTCHAR tbar
ENCODING 359
SWIDTH 267 0
DWIDTH 4 0
BBX 6 11 -1 0
BITMAP
0140
0B80
0B80
1FD0
0F00
7FC0
2E00
2E00
3D10
3E90
2E40
ENDCHAR
STARTCHAR Utilde
ENCODING 360
SWIDTH 716 0
DWIDTH 11 0
BBX 12 15 0 0
BITMAP
000150
000AF8
000000
02B81F
1DF41E
70F02E
E1E03D
D2E03C
53D07C
03C0B8
0780F4
0B81F0
0B82E0
07EBC0
02FE00
ENDCHAR
STARTCHAR utilde
ENCODING 361
SWIDTH 505 0
DWIDTH 8 0
BBX 9 11 0 0
BITMAP
0BE900
15A800
000000
3D3D00
7C7C00
7C7800
B8B800
F4F400
F5F440
FAFA00
B9B900
ENDCHAR
STARTCHAR Umacron
ENCODING 362
SWIDTH 716 0
DWIDTH 11 0
BBX 12 15 0 0
BITMAP
000FFC
000000
000000
02B81F
1DF41E
70F02E
E1E03D
D2E03C
53D07C
03C0B8
0780F4
0B81F0
0B82E0
07EBC0
02FE00
ENDCHAR
STARTCHAR umacron
ENCODING 363
SWIDTH 505 0
DWIDTH 8 0
BBX 9 11 0 0
BITMAP
0FFC00
000000
000000
3D3D00
7C7C00
7C7800
B8B800
F4F400
F5F440
FAFA00
B9B900
ENDCHAR
STARTCHAR Ubreve
ENCODING 364
SWIDTH 716 0
DWIDTH 11 0
BBX 12 15 0 0
BITMAP
000E0E
0006E4
000000
02B81F
1DF41E
70F02E
E1E03D
D2E03C
53D07C
03C0B8
0780F4
0B81F0
0B82E0
07EBC0
02FE00
ENDCHAR
STARTCHAR ubreve
ENCODING 365
SWIDTH 505 0
DWIDTH 8 0
BBX 9 12 0 0
BITMAP
0D0A00
0E1C00
06E000
000000
3D3D00
7C7C00
7C7800
B8B800
F4F400
F5F440
FAFA00
B9B900
ENDCHAR
STARTCHAR Uring
ENCODING 366
SWIDTH 716 0
DWIDTH 11 0
BBX 12 16 0 0
BITMAP
0001D0
000220
0001D0
000000
02B81F
1DF41E
70F02E
E1E03D
D2E03C
53D07C
03C0B8
0780F4
0B81F0
0B82E0
07EBC0
02FE00
ENDCHAR
STARTCHAR uring
ENCODING 367
SWIDTH 505 0
DWIDTH 8 0
BBX 9 11 0 0
BITMAP
01E000
02D000
000000
3D3D00
7C7C00
7C7800
B8B800
F4F400
F5F440
FAFA00
B9B900
ENDCHAR
STARTCHAR Uhungarumlaut
ENCODING 368
SWIDTH 716 0
DWIDTH 11 0
BBX 12 16 0 0
BITMAP
0000D7
00028D
000318
000000
02B81F
1DF41E
70F02E
E1E03D
D2E03C
53D07C
03C0B8
0780F4
0B81F0
0B82E0
07EBC0
02FE00
ENDCHAR
STARTCHAR uhungarumlaut
ENCODING 369
SWIDTH 505 0
DWIDTH 8 0
BBX 9 12 0 0
BITMAP
01CE00
035C00
062400
000000
3D3D00
7C7C00
7C7800
B8B800
F4F400
F5F440
FAFA00
B9B900
ENDCHAR
STARTCHAR Uogonek
ENCODING 370
SWIDTH 716 0
DWIDTH 11 0
BBX 12 19 0 -3
BITMAP
000740
000340
000280
000000
02B81F
1DF41E
70F02E
E1F03D
D2E03C
93D07C
03C0B8
07C0B4
0B80F0
0B81E0
0783C0
02FE00
009000
00D100
00B800
ENDCHAR
STARTCHAR uogonek
ENCODING 371
SWIDTH 505 0
DWIDTH 8 0
BBX 9 11 0 -3
BITMAP
3D3D00
7C7C00
7C7800
B8B800
F4F400
F5F440
FAFA00
B9B800
009000
00D100
00B800
ENDCHAR
STARTCHAR Wcircumflex
ENCODING 372
SWIDTH 962 0
DWIDTH 15 0
BBX 17 16 0 0
BITMAP
0000014000
0000078000
0000248000
0000000000
02F41F0240
1DF42F0300
74F43F0600
A0F47F0900
E0F4AF0C00
50F4DF1400
00F59F2000
00F65F2000
00FA1F9000
00FD1F8000
00BC1F8000
00B81F4000
ENDCHAR
STARTCHAR wcircumflex
ENCODING 373
SWIDTH 661 0
DWIDTH 11 0
BBX 11 12 0 0
BITMAP
000900
002E00
00A200
000000
3D3D70
7C7C74
7C7824
B8B830
F4F460
F5F4D0
FAFB80
B9BE00
ENDCHAR
STARTCHAR Ycircumflex
ENCODING 374
SWIDTH 620 0
DWIDTH 10 0
BBX 11 16 0 0
BITMAP
000040
0001E0
000920
000000
02F40C
1DF818
74BC30
A07D60
E03D90
503E80
002F40
002F00
002E00
003E00
007D00
007C00
ENDCHAR
STARTCHAR ycircumflex
ENCODING 375
SWIDTH 505 0
DWIDTH 8 0
BBX 9 16 0 -4
BITMAP
006000
01F000
061400
000000
3D3D00
7C7C00
7C7800
B8B800
F4F400
F5F140
FBF200
BAF800
0BE000
27D000
6BC000
2E4000
ENDCHAR
STARTCHAR Ydieresis
ENCODING 376
SWIDTH 620 0
DWIDTH 10 0
BBX 11 15 0 0
BITMAP
000A28
000A38
000000
02F40C
1DF818
74BC30
A07D60
E03D90
503E80
002F40
002F00
002E00
003E00
007D00
007C00
ENDCHAR
STARTCHAR Zacute
ENCODING 377
SWIDTH 542 0
DWIDTH 9 0
BBX 9 16 0 0
BITMAP
000140
000740
000D00
000000
0BFF80
2C2F00
183E00
00BC00
00F800
02F000
03E000
0BC000
0F8000
2F0600
3E0B00
BFFD00
ENDCHAR
STARTCHAR zacute
ENCODING 378
SWIDTH 428 0
DWIDTH 7 0
BBX 7 12 0 0
BITMAP
0038
00B0
00D0
0000
1FF8
35F0
12D0
07C0
0F40
2E10
3D70
BFE0
ENDCHAR
STARTCHAR Zdotaccent
ENCODING 379
SWIDTH 530 0
DWIDTH 8 0
BBX 9 15 0 0
BITMAP
002400
003800
000000
0BFF80
2C2F00
183E00
00BC00
00F800
02F000
03E000
0BC000
0F8000
2F0600
3E0B00
BFFD00
ENDCHAR
STARTCHAR zdotaccent
ENCODING 380
SWIDTH 428 0
DWIDTH 7 0
BBX 7 11 0 0
BITMAP
01D0
01D0
0000
1FF8
35F0
12D0
07C0
0F40
2E10
3D70
BFE0
ENDCHAR
STARTCHAR Zcaron
ENCODING 381
SWIDTH 542 0
DWIDTH 9 0
BBX 9 16 0 0
BITMAP
001040
002A40
001800
000000
0BFF80
2C2F00
183E00
00BC00
00F800
02F000
03E000
0BC000
0F8000
2F0600
3E0B00
BFFD00
ENDCHAR
STARTCHAR zcaron
ENCODING 382
SWIDTH 428 0
DWIDTH 7 0
BBX 8 12 0 0
BITMAP
0219
02F0
0180
0000
1FF8
35F0
12D0
07C0
0F40
2E10
3D70
BFE0
ENDCHAR
STARTCHAR longs
ENCODING 383
SWIDTH 267 0
DWIDTH 4 0
BBX 10 16 -4 -4
BITMAP
0007E0
001F20
002E00
002D00
00BD00
007C00
007800
00B800
00B400
00F400
01F000
01E000
1BE000
36D000
67C000
2E4000
ENDCHAR
STARTCHAR uni018F
ENCODING 399
SWIDTH 544 0
DWIDTH 9 0
BBX 9 12 0 0
BITMAP
06F800
1FFF00
181F40
000F80
000F80
01BF40
0B5F40
3D2F00
783D00
B47800
75F000
2F8000
ENDCHAR
STARTCHAR florin
ENCODING 402
SWIDTH 267 0
DWIDTH 4 0
BBX 11 16 -4 -4
BITMAP
0001F8
00079C
000F54
001F00
00BFD0
003D00
003C00
007C00
00B800
00F400
01F000
02E000
03D000
57C000
DB4000
BD0000
ENDCHAR
STARTCHAR Ohorn
ENCODING 416
SWIDTH 665 0
DWIDTH 11 0
BBX 12 14 0 0
BITMAP
00000D
00000D
01BF9C
0A55F4
38F0B4
B2D0B4
A7C0B4
6B80B4
0F40F4
0F41F0
1F02D0
1F07C0
0F9F00
06F800
ENDCHAR
STARTCHAR ohorn
ENCODING 417
SWIDTH 439 0
DWIDTH 7 0
BBX 8 10 0 0
BITMAP
000A
000A
0BEC
2E74
BC34
F870
F470
F4A0
F5C0
7E00
ENDCHAR
STARTCHAR Uhorn
ENCODING 431
SWIDTH 716 0
DWIDTH 11 0
BBX 14 15 0 0
BITMAP
00000060
000000A0
000000D0
02B81F40
1DF41E00
70F02E00
E1E03D00
D2E03C00
53D07C00
03C0B800
0780F400
0B81F000
0B82E000
07EBC000
02FE0000
ENDCHAR
STARTCHAR uhorn
ENCODING 432
SWIDTH 505 0
DWIDTH 8 0
BBX 9 11 0 0
BITMAP
000140
000280
000340
3D3E00
7C7C00
7C7800
B8B800
F4F400
F5F440
FAFA00
B9B900
ENDCHAR
STARTCHAR uni01B7
ENCODING 439
SWIDTH 555 0
DWIDTH 9 0
BBX 9 12 0 0
BITMAP
0BFF80
1D1F00
083D00
00B800
02F000
02F800
003E00
002F00
102F00
B03E00
B0BC00
2FE000
ENDCHAR
STARTCHAR uni01CD
ENCODING 461
SWIDTH 668 0
DWIDTH 11 0
BBX 14 18 0 -2
BITMAP
00001050
00002A40
00001800
00000000
0000BC00
0003F800
000DB800
0028F400
0070F400
2FF9F000
B6C2E000
6382E000
0B43D000
0F07C000
1E07C000
2D0B8000
2D000000
1D000000
ENDCHAR
STARTCHAR uni01CE
ENCODING 462
SWIDTH 526 0
DWIDTH 8 0
BBX 10 12 -1 0
BITMAP
002180
002E00
001800
000000
02FB80
0B4F40
1E0F00
3D1F00
3D2E00
7D3E20
3EBE90
1F5F40
ENDCHAR
STARTCHAR uni01CF
ENCODING 463
SWIDTH 375 0
DWIDTH 6 0
BBX 9 16 0 0
BITMAP
004140
006A00
003400
000000
02F400
1EF000
75F000
A2E000
E3D000
53D000
07C000
0B8000
0B8000
0F4000
1F0000
1F0000
ENDCHAR
STARTCHAR uni01D0
ENCODING 464
SWIDTH 267 0
DWIDTH 4 0
BBX 6 12 0 0
BITMAP
2090
1F40
0D00
0000
3D00
7C00
7C00
B800
F400
F480
FA40
B900
ENDCHAR
STARTCHAR uni01D1
ENCODING 465
SWIDTH 665 0
DWIDTH 11 0
BBX 11 16 0 0
BITMAP
000518
0003E0
000240
000000
01BF80
0A55E0
38F0B4
B2D0B4
A7C0B4
6B80B4
0F40F0
0F41F0
1F02D0
1F0780
0F9F00
06F800
ENDCHAR
STARTCHAR uni01D2
ENCODING 466
SWIDTH 433 0
DWIDTH 7 0
BBX 10 12 -1 0
BITMAP
008600
00B800
006000
000000
02F400
0F5C10
2E2E90
3D1D00
7C2C00
7C3800
3EB000
1F8000
ENDCHAR
STARTCHAR uni01D3
ENCODING 467
SWIDTH 716 0
DWIDTH 11 0
BBX 12 16 0 0
BITMAP
000149
0000F4
000090
000000
02B81F
1DF41E
70F02E
E1E03D
D2E03C
53D07C
03C0B8
0780F4
0B81F0
0B82E0
07EBC0
02FE00
ENDCHAR
STARTCHAR uni01D4
ENCODING 468
SWIDTH 505 0
DWIDTH 8 0
BBX 9 12 0 0
BITMAP
020900
01F400
00D000
000000
3D3D00
7C7C00
7C7800
B8B800
F4F400
F5F440
FAFA00
B9B900
ENDCHAR
STARTCHAR uni01D5
ENCODING 469
SWIDTH 716 0
DWIDTH 11 0
BBX 12 16 0 0
BITMAP
000BFD
000000
000A1D
000A1C
02B81F
1DF41E
70F02E
E1E03D
D2E03C
53D07C
03C0B8
0780F4
0B81F0
0B82E0
07EBC0
02FE00
ENDCHAR
STARTCHAR uni01D6
ENCODING 470
SWIDTH 505 0
DWIDTH 8 0
BBX 9 13 0 0
BITMAP
07FE00
000000
0B2800
0A2800
000000
3D3D00
7C7C00
7C7800
B8B800
F4F400
F5F440
FAFA00
B9B900
ENDCHAR
STARTCHAR uni01D7
ENCODING 471
SWIDTH 716 0
DWIDTH 11 0
BBX 12 16 0 0
BITMAP
000074
002CEB
0019CA
000000
02B81F
1DF41E
70F02E
E1E03D
D2E03C
53D07C
03C0B8
0780F4
0B81F0
0B82E0
07EBC0
02FE00
ENDCHAR
STARTCHAR uni01D8
ENCODING 472
SWIDTH 505 0
DWIDTH 8 0
BBX 9 15 0 0
BITMAP
002C00
003400
00A000
000000
0B2800
0A2800
000000
3D3D00
7C7C00
7C7800
B8B800
F4F400
F5F440
FAFA00
B9B900
ENDCHAR
STARTCHAR uni01D9
ENCODING 473
SWIDTH 716 0
DWIDTH 11 0
BBX 12 16 0 0
BITMAP
000218
002EEB
001886
000000
02B81F
1DF41E
70F02E
E1E03D
D2E03C
53D07C
03C0B8
0780F4
0B81F0
0B82E0
07EBC0
02FE00
ENDCHAR
STARTCHAR uni01DA
ENCODING 474
SWIDTH 505 0
DWIDTH 8 0
BBX 9 15 0 0
BITMAP
010100
009900
00B000
004000
0B2800
0A2800
000000
3D3D00
7C7C00
7C7800
B8B800
F4F400
F5F440
FAFA00
B9B900
ENDCHAR
STARTCHAR uni01DB
ENCODING 475
SWIDTH 716 0
DWIDTH 11 0
BBX 12 16 0 0
BITMAP
0001D0
002CDB
0018AA
000000
02B81F
1DF41E
70F02E
E1E03D
D2E03C
53D07C
03C0B8
0780F4
0B81F0
0B82E0
07EBC0
02FE00
ENDCHAR
STARTCHAR uni01DC
ENCODING 476
SWIDTH 505 0
DWIDTH 8 0
BBX 9 15 0 0
BITMAP
028000
01C000
01C000
000000
0B2800
0A2800
000000
3D3D00
7C7C00
7C7800
B8B800
F4F400
F5F440
FAFA00
B9B900
ENDCHAR
STARTCHAR uni01E4
ENCODING 484
SWIDTH 601 0
DWIDTH 10 0
BBX 10 15 0 -3
BITMAP
01BE40
0BD2C0
2F02C0
3D0240
7C0000
BC0680
B86FD0
BC0F40
3D2F00
1BAE00
001E00
0B6D00
287C00
28B400
1BD000
ENDCHAR
STARTCHAR uni01E5
ENCODING 485
SWIDTH 507 0
DWIDTH 8 0
BBX 10 12 -1 -4
BITMAP
02FB80
0B8F40
1F0F00
3E1F00
3D2E00
7D2E10
3D7D50
1FBE40
01BC00
1FFE00
0CF400
07D000
ENDCHAR
STARTCHAR Gcaron
ENCODING 486
SWIDTH 578 0
DWIDTH 9 0
BBX 10 19 0 -3
BITMAP
001860
000F80
000A00
000000
01BE40
0BD2C0
2F02C0
3D0280
7C0000
BC0140
B80780
BC0F40
3D2F00
1BAE00
001E00
0B6D00
287C00
28B400
1BD000
ENDCHAR
STARTCHAR gcaron
ENCODING 487
SWIDTH 507 0
DWIDTH 8 0
BBX 10 16 -1 -4
BITMAP
002180
002E00
001800
000000
02FB80
0B8F40
1F0F00
3E1F00
3D2E00
7D2E10
3D7D50
1FBE80
01BC00
0AB800
0CF400
07D000
ENDCHAR
STARTCHAR uni01E8
ENCODING 488
SWIDTH 601 0
DWIDTH 10 0
BBX 11 16 0 0
BITMAP
000218
0002E0
000180
000000
02F474
1EF1D0
75E340
A2EA00
E3E800
53FE00
07CB80
0B8780
0B8B40
0F4F40
1F1F00
1F0F00
ENDCHAR
STARTCHAR uni01E9
ENCODING 489
SWIDTH 518 0
DWIDTH 8 0
BBX 10 15 -1 0
BITMAP
002090
001F40
000C00
000000
07C000
0B8000
0B8000
0F4A00
1F6400
1FF800
2FBE00
3D2E00
3D3D20
7C3E90
B81F40
ENDCHAR
STARTCHAR uni01EA
ENCODING 490
SWIDTH 665 0
DWIDTH 11 0
BBX 11 19 0 -3
BITMAP
007400
003800
002800
000000
01BF80
0A55E0
38F0B4
B2D0B4
A7C0B4
6B80B4
0F40F0
0F41F0
1F02D0
1F0780
0F9F00
06F800
024000
074000
02E000
ENDCHAR
STARTCHAR uni01EB
ENCODING 491
SWIDTH 433 0
DWIDTH 7 0
BBX 10 11 -1 -3
BITMAP
02F400
0F5C00
2E2D90
3D1D00
7D1C00
7C2800
3D7000
1F8000
180000
284000
1E4000
ENDCHAR
STARTCHAR uni01EE
ENCODING 494
SWIDTH 525 0
DWIDTH 8 0
BBX 9 16 0 0
BITMAP
005180
003E00
002400
000000
0BFF80
1D1F00
083D00
00B800
02F000
02F800
003E00
002F00
102F00
B03E00
B0BC00
2FE000
ENDCHAR
STARTCHAR uni01EF
ENCODING 495
SWIDTH 600 0
DWIDTH 10 0
BBX 8 16 0 -4
BITMAP
0219
02F0
0180
0000
2FF4
72E0
17C0
0B40
1F00
1F01
0B45
0BA4
1BD0
6B80
CF40
BD00
ENDCHAR
STARTCHAR uni01F4
ENCODING 500
SWIDTH 578 0
DWIDTH 9 0
BBX 9 19 0 -3
BITMAP
000280
000740
000A00
000000
01BE40
0BD2C0
2F0280
3D0000
7C0000
BC0780
B80B40
BC0F40
3D2F00
1BAE00
001E00
0B6D00
287C00
28B400
1BD000
ENDCHAR
STARTCHAR uni01F5
ENCODING 501
SWIDTH 507 0
DWIDTH 8 0
BBX 10 16 -1 -4
BITMAP
000E00
001C00
002400
000000
02FB80
0B8F40
1F0F00
3E1F00
3D2E00
7D2E10
3D7D50
1FBE80
01BC00
0AB800
0CF400
07D000
ENDCHAR
STARTCHAR Aringacute
ENCODING 506
SWIDTH 668 0
DWIDTH 11 0
BBX 13 18 0 -2
BITMAP
00000240
00000A00
00002D00
00002900
00003C00
0002FC00
0009B800
0028F400
0070F400
2FF9F000
B6C2E000
6382E000
0B43D000
0F07C000
1E07C000
2D0B8000
2D000000
1D000000
ENDCHAR
STARTCHAR aringacute
ENCODING 507
SWIDTH 526 0
DWIDTH 8 0
BBX 10 13 -1 0
BITMAP
000A00
001C00
002500
003800
000000
02FB80
0B4F40
1E0F00
3D1F00
3D2E00
7D3E20
3EBE90
1F5F40
ENDCHAR
STARTCHAR AEacute
ENCODING 508
SWIDTH 764 0
DWIDTH 12 0
BBX 15 18 0 -2
BITMAP
00000140
00000340
00000900
00000000
0000B914
0002BEE0
000DB800
0024F400
0070F000
6FFAFF40
B2C2E500
1382D000
0B43D000
0F07C000
1E07FF40
2D0BFF40
2D000000
1D000000
ENDCHAR
STARTCHAR aeacute
ENCODING 509
SWIDTH 650 0
DWIDTH 10 0
BBX 11 12 0 0
BITMAP
0002C0
000340
000A00
000000
0BEBE0
14BE70
00BC70
2FF9D0
B8FE40
F4F404
F6F820
7E7F80
ENDCHAR
STARTCHAR Oslashacute
ENCODING 510
SWIDTH 658 0
DWIDTH 11 0
BBX 10 17 0 -1
BITMAP
0000A0
0001D0
000280
000000
000200
01BF40
1EBAE0
76E8F0
A7CCF0
6B88F0
0F55F0
1F26E0
1F23D0
1F2780
0FBE00
07F800
009000
ENDCHAR
STARTCHAR oslashacute
ENCODING 511
SWIDTH 428 0
DWIDTH 7 0
BBX 9 13 -1 -1
BITMAP
000E00
001C00
003400
000000
02F640
0B9D00
1F1D00
3E7C00
3DAC00
7F6800
3D7000
2F8000
900000
ENDCHAR
STARTCHAR uni0200
ENCODING 512
SWIDTH 668 0
DWIDTH 11 0
BBX 11 18 0 -2
BITMAP
000E70
000728
000288
000000
0000BC
0003F8
000DB8
0028F4
0070F4
2FF9F0
B6C2E0
6382E0
0B43D0
0F07C0
1E07C0
2D0B80
2D0000
1D0000
ENDCHAR
STARTCHAR uni0201
ENCODING 513
SWIDTH 526 0
DWIDTH 8 0
BBX 10 12 -1 0
BITMAP
072800
028C00
008600
000000
02FB80
0B4F40
1E0F00
3D1F00
3D2E00
7D3E20
3EBE90
1F5F40
ENDCHAR
STARTCHAR uni0202
ENCODING 514
SWIDTH 668 0
DWIDTH 11 0
BBX 13 17 0 -2
BITMAP
00007E40
00028280
00000000
0000BC00
0003F800
000DB800
0028F400
0070F400
2FF9F000
B6C2E000
6382E000
0B43D000
0F07C000
1E07C000
2D0B8000
2D000000
1D000000
ENDCHAR
STARTCHAR uni0203
ENCODING 515
SWIDTH 526 0
DWIDTH 8 0
BBX 10 11 -1 0
BITMAP
00BE00
028380
000000
02FB80
0B4F40
1E0F00
3D1F00
3D2E00
7D3E20
3EBE90
1F5F40
ENDCHAR
STARTCHAR uni0204
ENCODING 516
SWIDTH 459 0
DWIDTH 7 0
BBX 8 16 0 0
BITMAP
0E74
0728
0189
0000
01B9
0786
0B4A
0F49
0B40
07D0
2F40
7D00
BC00
FC01
BD18
2F90
ENDCHAR
STARTCHAR uni0205
ENCODING 517
SWIDTH 384 0
DWIDTH 6 0
BBX 8 12 -1 0
BITMAP
1CE0
0A30
0218
0000
02F4
0B5C
1E28
3D74
3F90
7D05
3E68
1F90
ENDCHAR
STARTCHAR uni0206
ENCODING 518
SWIDTH 459 0
DWIDTH 7 0
BBX 9 15 0 0
BITMAP
007F40
02C2C0
000000
01B900
078600
0B4A00
0F4900
0B4000
07D000
2F4000
7D0000
BC0000
FC0100
BD1800
2F9000
ENDCHAR
STARTCHAR uni0207
ENCODING 519
SWIDTH 384 0
DWIDTH 6 0
BBX 8 11 -1 0
BITMAP
02F8
0E0D
0000
02F4
0B5C
1E28
3D74
3F90
7D01
3D18
1F90
ENDCHAR
STARTCHAR uni0208
ENCODING 520
SWIDTH 375 0
DWIDTH 6 0
BBX 7 16 0 0
BITMAP
2CE0
0970
0224
0000
02B4
1EF0
75F0
B2E0
E3D0
63D0
07C0
0B80
0B80
0F40
1F00
1F00
ENDCHAR
STARTCHAR uni0209
ENCODING 521
SWIDTH 267 0
DWIDTH 4 0
BBX 7 12 -2 0
BITMAP
76C0
1890
0920
0000
03D0
07C0
07C0
0B80
0F40
0F48
0FA4
0B90
ENDCHAR
STARTCHAR uni020A
ENCODING 522
SWIDTH 375 0
DWIDTH 6 0
BBX 8 15 0 0
BITMAP
01F9
0A0B
0000
02F4
1EF0
75F0
A2E0
E3D0
53D0
07C0
0B80
0B80
0F40
1F00
1F00
ENDCHAR
STARTCHAR uni020B
ENCODING 523
SWIDTH 267 0
DWIDTH 4 0
BBX 5 11 0 0
BITMAP
2F40
D280
0000
3D00
7C00
7C00
B800
F400
F480
FA40
B900
ENDCHAR
STARTCHAR uni020C
ENCODING 524
SWIDTH 665 0
DWIDTH 11 0
BBX 11 16 0 0
BITMAP
02CE00
009700
003280
000000
01BF80
0A55E0
38F0B4
B2D0B4
A7C0B4
6B80B4
0F40F0
0F41F0
1F02D0
1F0780
0F9F00
06F800
ENDCHAR
STARTCHAR uni020D
ENCODING 525
SWIDTH 433 0
DWIDTH 7 0
BBX 10 12 -1 0
BITMAP
2CE000
097000
021800
000000
02F400
0F5C10
2E2E90
3D1D00
7C2C00
7C3800
3EB000
1F8000
ENDCHAR
STARTCHAR uni020E
ENCODING 526
SWIDTH 665 0
DWIDTH 11 0
BBX 11 15 0 0
BITMAP
001BE0
003474
000000
01BF80
0A55E0
38F0B4
B2D0B4
A7C0B4
6B80B4
0F40F0
0F41F0
1F02D0
1F0780
0F9F00
06F800
ENDCHAR
STARTCHAR uni020F
ENCODING 527
SWIDTH 433 0
DWIDTH 7 0
BBX 10 11 -1 0
BITMAP
01FD00
0B0B00
000000
02F400
0F5C00
2E2D90
3D1D00
7D1C00
7C2800
3D7000
1F8000
ENDCHAR
STARTCHAR uni0210
ENCODING 528
SWIDTH 601 0
DWIDTH 10 0
BBX 10 16 0 0
BITMAP
0A7400
035C00
018900
000000
02FE40
1E52C0
75F1D0
A2E2C0
E3D740
53FF40
07CB80
0B8780
0B8B40
0F4F40
1F1F00
1F0F00
ENDCHAR
STARTCHAR uni0211
ENCODING 529
SWIDTH 376 0
DWIDTH 6 0
BBX 7 12 -1 0
BITMAP
76C0
1C90
0920
0000
0FBC
1F6C
1E00
2E00
3D00
3D00
7C00
B800
ENDCHAR
STARTCHAR uni0212
ENCODING 530
SWIDTH 601 0
DWIDTH 10 0
BBX 10 15 0 0
BITMAP
007F40
02C2C0
000000
02FE40
1E52C0
75F1D0
A2E2C0
E3D740
53FF40
07CB80
0B8780
0B8B40
0F4F40
1F1F00
1F0F00
ENDCHAR
STARTCHAR uni0213
ENCODING 531
SWIDTH 376 0
DWIDTH 6 0
BBX 8 11 -1 0
BITMAP
02F8
0E0E
0000
0FBC
1F6C
1E00
2E00
3D00
3D00
7C00
B800
ENDCHAR
STARTCHAR uni0214
ENCODING 532
SWIDTH 716 0
DWIDTH 11 0
BBX 12 16 0 0
BITMAP
0076C0
0028D0
000960
000000
02B81F
1DF41E
70F02E
E1E03D
D2E03C
53D07C
03C0B8
0780F4
0B81F0
0B82E0
07EBC0
02FE00
ENDCHAR
STARTCHAR uni0215
ENCODING 533
SWIDTH 505 0
DWIDTH 8 0
BBX 9 12 0 0
BITMAP
768000
28D000
096000
000000
3D3D00
7C7C00
7C7800
B8B800
F4F400
F5F440
FAFA00
B9B900
ENDCHAR
STARTCHAR uni0216
ENCODING 534
SWIDTH 716 0
DWIDTH 11 0
BBX 12 15 0 0
BITMAP
0006F8
001D1D
000000
02B81F
1DF41E
70F02E
E1E03D
D2E03C
53D07C
03C0B8
0780F4
0B81F0
0B82E0
07EBC0
02FE00
ENDCHAR
STARTCHAR uni0217
ENCODING 535
SWIDTH 505 0
DWIDTH 8 0
BBX 9 11 0 0
BITMAP
06F400
1D1C00
000000
3D3D00
7C7C00
7C7800
B8B800
F4F400
F5F440
FAFA00
B9B900
ENDCHAR
STARTCHAR Scommaaccent
ENCODING 536
SWIDTH 570 0
DWIDTH 9 0
BBX 9 15 0 -3
BITMAP
01BE00
07D380
0B8280
07C240
03E000
01F800
007E00
2F2F00
781F40
741F00
397D00
1BE400
010000
074000
020000
ENDCHAR
STARTCHAR scommaaccent
ENCODING 537
SWIDTH 382 0
DWIDTH 6 0
BBX 8 13 -1 -4
BITMAP
0150
03E0
07E0
0AF0
19F0
25F0
75F5
62F4
2F80
0000
0D00
0900
0400
ENDCHAR
STARTCHAR uni021A
ENCODING 538
SWIDTH 481 0
DWIDTH 8 0
BBX 12 16 0 -4
BITMAP
06FE45
297FFD
70BEA8
A0B800
E0F800
A0F400
01F000
02F000
02E000
03D000
07C000
07C000
000000
074000
030000
010000
ENDCHAR
STARTCHAR uni021B
ENCODING 539
SWIDTH 267 0
DWIDTH 4 0
BBX 5 15 0 -4
BITMAP
0500
2E00
2E00
7F40
7C00
7C00
B800
F400
F480
FA40
B900
0000
A000
A000
4000
ENDCHAR
STARTCHAR uni021E
ENCODING 542
SWIDTH 665 0
DWIDTH 11 0
BBX 11 16 0 0
BITMAP
000218
0002E0
000180
000000
01B47C
1EF0B8
35F0B8
B2E0F4
A2E0F0
63FFF0
07D6E0
07C2E0
0B83D0
0F47C0
0F47C0
1F0B80
ENDCHAR
STARTCHAR uni021F
ENCODING 543
SWIDTH 600 0
DWIDTH 10 0
BBX 10 15 -1 0
BITMAP
0014A0
000F40
000900
000000
07C000
0B8000
0B4000
0FBD00
1F5E00
1E1E00
2E2E00
3D3D00
3D3D10
7C3D50
B82F40
ENDCHAR
STARTCHAR uni0237
ENCODING 567
SWIDTH 240 0
DWIDTH 4 0
BBX 9 12 -4 -4
BITMAP
003D00
007C00
007C00
00B800
00F400
00F540
01F200
01F900
0BE000
3BD000
67C000
2E4000
ENDCHAR
STARTCHAR uni0259
ENCODING 601
SWIDTH 404 0
DWIDTH 6 0
BBX 6 8 0 0
BITMAP
2F90
11F0
01F0
1BF0
76F0
A3D0
D780
BD00
ENDCHAR
STARTCHAR uni0292
ENCODING 658
SWIDTH 442 0
DWIDTH 7 0
BBX 8 12 0 -4
BITMAP
2FF4
72E0
17C0
0B40
1F00
1F01
0B45
0BA4
1BD0
6B80
CF40
BD00
ENDCHAR
STARTCHAR uni02BB
ENCODING 699
SWIDTH 241 0
DWIDTH 4 0
BBX 2 4 2 8
BITMAP
10
60
F0
B0
ENDCHAR
STARTCHAR uni02BC
ENCODING 700
SWIDTH 228 0
DWIDTH 4 0
BBX 3 3 2 9
BITMAP
74
74
60
ENDCHAR
STARTCHAR circumflex
ENCODING 710
SWIDTH 293 0
DWIDTH 5 0
BBX 5 3 0 9
BITMAP
0600
1F40
6180
ENDCHAR
STARTCHAR caron
ENCODING 711
SWIDTH 294 0
DWIDTH 5 0
BBX 5 3 1 9
BITMAP
5180
3E00
2400
ENDCHAR
STARTCHAR uni02C9
ENCODING 713
SWIDTH 421 0
DWIDTH 7 0
BBX 6 1 2 9
BITMAP
FFD0
ENDCHAR
STARTCHAR uni02CA
ENCODING 714
SWIDTH 256 0
DWIDTH 4 0
BBX 3 3 2 9
BITMAP
38
60
80
ENDCHAR
STARTCHAR uni02CB
ENCODING 715
SWIDTH 274 0
DWIDTH 4 0
BBX 3 3 2 9
BITMAP
74
34
18
ENDCHAR
STARTCHAR breve
ENCODING 728
SWIDTH 431 0
DWIDTH 7 0
BBX 6 2 1 9
BITMAP
A1A0
6E40
ENDCHAR
STARTCHAR dotaccent
ENCODING 729
SWIDTH 250 0
DWIDTH 4 0
BBX 3 3 1 9
BITMAP
A0
F4
B0
ENDCHAR
STARTCHAR ring
ENCODING 730
SWIDTH 156 0
DWIDTH 3 0
BBX 3 3 0 9
BITMAP
B4
D4
B4
ENDCHAR
STARTCHAR ogonek
ENCODING 731
SWIDTH 291 0
DWIDTH 5 0
BBX 4 4 0 -3
BITMAP
04
24
70
3E
ENDCHAR
STARTCHAR tilde
ENCODING 732
SWIDTH 403 0
DWIDTH 6 0
BBX 6 2 1 9
BITMAP
1500
6F90
ENDCHAR
STARTCHAR hungarumlaut
ENCODING 733
SWIDTH 436 0
DWIDTH 7 0
BBX 6 3 1 9
BITMAP
1DA0
35C0
6240
ENDCHAR
STARTCHAR gravecomb
ENCODING 768
SWIDTH 0 0
DWIDTH 0 0
BBX 3 3 -3 9
BITMAP
B0
70
24
ENDCHAR
STARTCHAR acutecomb
ENCODING 769
SWIDTH 0 0
DWIDTH 0 0
BBX 3 3 -3 9
BITMAP
38
70
C0
ENDCHAR
STARTCHAR uni0302
ENCODING 770
SWIDTH 0 0
DWIDTH 0 0
BBX 4 3 -4 9
BITMAP
09
2E
92
ENDCHAR
STARTCHAR tildecomb
ENCODING 771
SWIDTH 0 0
DWIDTH 0 0
BBX 6 2 -6 9
BITMAP
1540
6BE0
ENDCHAR
STARTCHAR uni0304
ENCODING 772
SWIDTH 0 0
DWIDTH 0 0
BBX 6 1 -5 9
BITMAP
BFD0
ENDCHAR
STARTCHAR uni0306
ENCODING 774
SWIDTH 0 0
DWIDTH 0 0
BBX 6 2 -5 9
BITMAP
E1D0
6E40
ENDCHAR
STARTCHAR uni0307
ENCODING 775
SWIDTH 0 0
DWIDTH 0 0
BBX 3 3 -2 9
BITMAP
64
F8
B4
ENDCHAR
STARTCHAR uni0308
ENCODING 776
SWIDTH 0 0
DWIDTH 0 0
BBX 6 2 -5 9
BITMAP
35D0
75D0
ENDCHAR
STARTCHAR hookabovecomb
ENCODING 777
SWIDTH 0 0
DWIDTH 0 0
BBX 4 3 -4 9
BITMAP
7D
09
34
ENDCHAR
STARTCHAR uni030A
ENCODING 778
SWIDTH 0 0
DWIDTH 0 0
BBX 3 3 -2 9
BITMAP
B4
D4
B0
ENDCHAR
STARTCHAR uni030B
ENCODING 779
SWIDTH 0 0
DWIDTH 0 0
BBX 6 3 -5 9
BITMAP
2CE0
3580
9300
ENDCHAR
STARTCHAR uni030C
ENCODING 780
SWIDTH 0 0
DWIDTH 0 0
BBX 5 3 -4 9
BITMAP
8240
7D00
3400
ENDCHAR
STARTCHAR uni030F
ENCODING 783
SWIDTH 0 0
DWIDTH 0 0
BBX 5 3 -5 9
BITMAP
D700
7280
24C0
ENDCHAR
STARTCHAR uni0311
ENCODING 785
SWIDTH 0 0
DWIDTH 0 0
BBX 6 3 -6 8
BITMAP
0BD0
7470
5010
ENDCHAR
STARTCHAR uni031B
ENCODING 795
SWIDTH 0 0
DWIDTH 0 0
BBX 3 4 -2 7
BITMAP
34
34
A0
40
ENDCHAR
STARTCHAR dotbelowcomb
ENCODING 803
SWIDTH 0 0
DWIDTH 0 0
BBX 3 3 -3 -4
BITMAP
60
F8
B4
ENDCHAR
STARTCHAR uni0324
ENCODING 804
SWIDTH 0 0
DWIDTH 0 0
BBX 5 2 -7 -3
BITMAP
A280
A380
ENDCHAR
STARTCHAR uni0326
ENCODING 806
SWIDTH 0 0
DWIDTH 0 0
BBX 2 3 -4 -4
BITMAP
A0
60
40
ENDCHAR
STARTCHAR uni0327
ENCODING 807
SWIDTH 0 0
DWIDTH 0 0
BBX 4 4 -6 -4
BITMAP
14
29
1B
79
ENDCHAR
STARTCHAR uni0328
ENCODING 808
SWIDTH 0 0
DWIDTH 0 0
BBX 4 4 -6 -3
BITMAP
10
60
A1
7D
ENDCHAR
STARTCHAR uni032E
ENCODING 814
SWIDTH 0 0
DWIDTH 0 0
BBX 5 3 -7 -3
BITMAP
0040
A280
2A00
ENDCHAR
STARTCHAR uni0331
ENCODING 817
SWIDTH 0 0
DWIDTH 0 0
BBX 6 1 -8 -3
BITMAP
7FF0
ENDCHAR
STARTCHAR uni0335
ENCODING 821
SWIDTH 0 0
DWIDTH 0 0
BBX 6 1 -6 4
BITMAP
FFD0
ENDCHAR
STARTCHAR uni0394
ENCODING 916
SWIDTH 619 0
DWIDTH 10 0
BBX 10 13 0 -1
BITMAP
000A00
001F40
003B40
007380
00D380
0282C0
0742C0
0A01D0
1C01D0
3801E0
B000E0
BFFFE0
155540
ENDCHAR
STARTCHAR uni03A9
ENCODING 937
SWIDTH 745 0
DWIDTH 12 0
BBX 12 13 0 -1
BITMAP
002FE0
01E5B8
03802C
0A001C
0D001D
1C001C
2C0028
1C0034
1C0060
0D01C0
070640
7F4FF4
150550
ENDCHAR
STARTCHAR uni03BC
ENCODING 956
SWIDTH 505 0
DWIDTH 8 0
BBX 10 11 -1 -3
BITMAP
0A4A40
0F1F00
1F1F00
2E2E00
2D3D00
3D3D10
7DBD90
7F6F40
B80400
F40000
A00000
ENDCHAR
STARTCHAR pi
ENCODING 960
SWIDTH 530 0
DWIDTH 8 0
BBX 9 8 0 0
BITMAP
FFFF40
696900
343400
303000
707000
A0A000
A0A000
D06000
ENDCHAR
STARTCHAR uni0400
ENCODING 1024
SWIDTH 459 0
DWIDTH 7 0
BBX 8 16 0 0
BITMAP
00B0
0030
0024
0000
01B9
0786
0B4A
0F49
0B40
07D0
2F40
7D00
BC00
FC01
BD18
2F90
ENDCHAR
STARTCHAR uni0401
ENCODING 1025
SWIDTH 459 0
DWIDTH 7 0
BBX 9 15 0 0
BITMAP
00D740
00D740
000000
01B900
078600
0B4A00
0F4900
0B4000
07D000
2F4000
7D0000
BC0000
FC0100
BD1800
2F9000
ENDCHAR
STARTCHAR uni0402
ENCODING 1026
SWIDTH 725 0
DWIDTH 12 0
BBX 12 15 0 -3
BITMAP
06FFFD
297EA8
707C00
A0B800
A0F800
60FBE0
01F4F4
01F0B4
02E0F4
03D0F0
03D1E0
07C2D0
0003C0
000B40
007D00
ENDCHAR
STARTCHAR uni0403
ENCODING 1027
SWIDTH 400 0
DWIDTH 6 0
BBX 10 16 0 0
BITMAP
0000E0
000280
000300
000000
06FFF0
29FA90
75F000
B2E000
B2E000
23D000
07C000
07C000
0B8000
0F4000
0F4000
1F0000
ENDCHAR
STARTCHAR uni0404
ENCODING 1028
SWIDTH 497 0
DWIDTH 8 0
BBX 9 12 0 0
BITMAP
01BE00
07D340
1F4380
2F0640
3E0000
7FF400
BC0000
BC0000
BC0000
BC0100
7E0600
1BE400
ENDCHAR
STARTCHAR uni0405
ENCODING 1029
SWIDTH 570 0
DWIDTH 9 0
BBX 9 12 0 0
BITMAP
01BE00
07D380
0B8280
07C240
03E000
01F800
007E00
2F2F00
781F40
741F00
397D00
1BE400
ENDCHAR
STARTCHAR uni0406
ENCODING 1030
SWIDTH 374 0
DWIDTH 6 0
BBX 7 12 0 0
BITMAP
01B4
1EF0
75F0
B2E0
A2E0
53D0
07C0
07C0
0B80
0F40
0F40
1F00
ENDCHAR
STARTCHAR uni0407
ENCODING 1031
SWIDTH 375 0
DWIDTH 6 0
BBX 8 15 0 0
BITMAP
028A
028E
0000
02F4
1EF0
75F0
A2E0
E3D0
53D0
07C0
0B80
0B80
0F40
1F00
1F00
ENDCHAR
STARTCHAR uni0408
ENCODING 1032
SWIDTH 536 0
DWIDTH 9 0
BBX 9 15 0 -3
BITMAP
000BC0
007BC0
01DB80
038B40
038F40
015F00
001F00
002E00
003D00
007D00
007C00
2EB800
A0F400
A1E000
2F8000
ENDCHAR
STARTCHAR uni0409
ENCODING 1033
SWIDTH 817 0
DWIDTH 13 0
BBX 14 14 -1 -2
BITMAP
0002F000
000EF000
0036E000
00A2E000
02C3D000
0387EF40
0B07C7D0
1E0B82D0
2D0B42D0
3C0F43D0
781F4780
781F7E00
74000000
14000000
ENDCHAR
STARTCHAR uni040A
ENCODING 1034
SWIDTH 931 0
DWIDTH 15 0
BBX 15 12 0 0
BITMAP
01B47C00
1EF0B800
75F0B800
B2E0F400
A2E0F000
53FFFB90
07C2E1F0
07C2E0F4
0B83D0F4
0F47C0F0
0F47D2D0
1F0B9F80
ENDCHAR
STARTCHAR uni040B
ENCODING 1035
SWIDTH 745 0
DWIDTH 12 0
BBX 12 12 0 0
BITMAP
06FFFD
297EA8
707C00
A0B800
A0F800
60FBE0
01F4F4
01F0F4
02E0F4
03D1F0
03D1F0
07C1F0
ENDCHAR
STARTCHAR uni040C
ENCODING 1036
SWIDTH 635 0
DWIDTH 10 0
BBX 11 16 0 0
BITMAP
0000E0
000180
000300
000000
02B4B8
1EF2B8
75F600
B2EC00
A2F400
53FE40
07C780
07C780
0B8B80
0F4F40
0F4F00
1F0F40
ENDCHAR
STARTCHAR uni040D
ENCODING 1037
SWIDTH 705 0
DWIDTH 11 0
BBX 12 16 0 0
BITMAP
000700
000340
000240
000000
01B42E
1EF07D
75F0FD
B2E2FC
A2E3B8
53DAB8
07DCF4
07E8F0
0BF1F0
0FD2E0
0F82E0
1F43D0
ENDCHAR
STARTCHAR uni040E
ENCODING 1038
SWIDTH 644 0
DWIDTH 10 0
BBX 12 15 0 0
BITMAP
000504
001E18
000BA0
02B809
1DB818
74BC24
B07D30
A03DA0
502EC0
001F80
001F40
000E00
004900
02EC00
01E000
ENDCHAR
STARTCHAR uni040F
ENCODING 1039
SWIDTH 665 0
DWIDTH 11 0
BBX 11 17 0 -5
BITMAP
01B47C
1EF0B8
75F0B8
B2E0F4
A2D0F0
53D1F0
07C2E0
07C2E0
0B83D0
0F47C0
0F5BC0
1FFF80
008000
02D000
01F000
00F000
00A000
ENDCHAR
STARTCHAR uni0410
ENCODING 1040
SWIDTH 668 0
DWIDTH 11 0
BBX 11 14 0 -2
BITMAP
0000BC
0003F8
000DB8
0028F4
0070F4
2FF9F0
B6C2E0
6382E0
0B43D0
0F07C0
1E07C0
2D0B80
2D0000
1D0000
ENDCHAR
STARTCHAR uni0411
ENCODING 1041
SWIDTH 638 0
DWIDTH 10 0
BBX 10 12 0 0
BITMAP
06FFF0
2AFA90
B2E000
A3D000
E3D000
57EF40
07C7C0
0B83D0
0F42D0
0F43C0
1F4780
2E7E00
ENDCHAR
STARTCHAR uni0412
ENCODING 1042
SWIDTH 641 0
DWIDTH 10 0
BBX 10 12 0 0
BITMAP
01BE40
1E52C0
35F1D0
B2E1D0
A2E740
63FF80
07C3D0
07C2E0
0B82E0
0F42D0
0F4780
1F7E00
ENDCHAR
STARTCHAR uni0413
ENCODING 1043
SWIDTH 400 0
DWIDTH 6 0
BBX 10 12 0 0
BITMAP
06FFF0
29FA90
75F000
B2E000
B2E000
23D000
07C000
07C000
0B8000
0F4000
0F4000
1F0000
ENDCHAR
STARTCHAR uni0414
ENCODING 1044
SWIDTH 669 0
DWIDTH 11 0
BBX 12 12 -1 0
BITMAP
00AF90
0794B8
1D7C3C
2CB83D
28F82D
04F43D
01F03D
02F07C
2FE0B8
63D0F0
67D2D0
2F6F40
ENDCHAR
STARTCHAR uni0415
ENCODING 1045
SWIDTH 459 0
DWIDTH 7 0
BBX 8 12 0 0
BITMAP
01B9
0786
0B4A
0F49
0B40
07D0
2F40
7D00
BC00
FC01
BD18
2F90
ENDCHAR
STARTCHAR uni0416
ENCODING 1046
SWIDTH 777 0
DWIDTH 12 0
BBX 14 12 -1 0
BITMAP
07D1A1F0
07A2D7B0
0033DD00
0037E800
003BA000
02FFFE00
0B8F4F00
0F0F4F00
1F1F1F00
1E2E2E00
2E2E2D00
7C3D2E00
ENDCHAR
STARTCHAR uni0417
ENCODING 1047
SWIDTH 525 0
DWIDTH 8 0
BBX 8 12 0 0
BITMAP
02F8
082E
102F
002E
00BC
07F4
00BC
003E
503E
E07D
E0F8
6F90
ENDCHAR
STARTCHAR uni0418
ENCODING 1048
SWIDTH 705 0
DWIDTH 11 0
BBX 12 12 0 0
BITMAP
01B42E
1EF07D
75F0FD
B2E2FC
A2E3B8
53DAB8
07DCF4
07E8F0
0BF1F0
0FD2E0
0F82E0
1F43D0
ENDCHAR
STARTCHAR uni0419
ENCODING 1049
SWIDTH 705 0
DWIDTH 11 0
BBX 12 15 0 0
BITMAP
000904
001E24
000B90
01B42E
1EF07D
75F0FD
B2E2FC
A2E3B8
53DAB8
07DCF4
07E8F0
0BF1F0
0FD2E0
0F82E0
1F43D0
ENDCHAR
STARTCHAR uni041A
ENCODING 1050
SWIDTH 635 0
DWIDTH 10 0
BBX 11 12 0 0
BITMAP
02B4B8
1EF2B8
75F600
B2EC00
A2F400
53FE40
07C780
07C780
0B8B80
0F4F40
0F4F00
1F0F40
ENDCHAR
STARTCHAR uni041B
ENCODING 1051
SWIDTH 549 0
DWIDTH 9 0
BBX 10 14 -1 -2
BITMAP
0002F0
000AF0
0036E0
00A2E0
01C3D0
0387C0
0B47C0
0E0B80
2D0B40
3C0F40
7C1F00
781F00
740000
240000
ENDCHAR
STARTCHAR uni041C
ENCODING 1052
SWIDTH 787 0
DWIDTH 13 0
BBX 12 12 1 0
BITMAP
06F42E
1DF43E
71F47E
A2F4FD
A7F5FD
1AF6BC
0DF7BC
1CFA78
28FDB8
35FCB8
71F8F4
A1F0F4
ENDCHAR
STARTCHAR uni041D
ENCODING 1053
SWIDTH 665 0
DWIDTH 11 0
BBX 11 12 0 0
BITMAP
01B47C
1EF0B8
35F0B8
B2E0F4
A2E0F0
63FFF0
07D6E0
07C2E0
0B83D0
0F47C0
0F47C0
1F0B80
ENDCHAR
STARTCHAR uni041E
ENCODING 1054
SWIDTH 665 0
DWIDTH 11 0
BBX 11 12 0 0
BITMAP
01BF80
0A55E0
38F0B4
B2D0B4
A7C0B4
6B80B4
0F40F0
0F41F0
1F02D0
1F0780
0F9F00
06F800
ENDCHAR
STARTCHAR uni041F
ENCODING 1055
SWIDTH 688 0
DWIDTH 11 0
BBX 13 12 0 0
BITMAP
06FFFF80
2EFAFE00
75F0B800
A2E0F400
A2D0F000
53D1F000
07C2E000
07C2E000
0B83D000
0F47C000
0F47C000
1F0B8000
ENDCHAR
STARTCHAR uni0420
ENCODING 1056
SWIDTH 573 0
DWIDTH 9 0
BBX 10 12 0 0
BITMAP
02FE00
1D52C0
75F1D0
A2E1D0
E3D2D0
53D380
07DE00
0BD400
0B8000
0F4000
1F0000
1F0000
ENDCHAR
STARTCHAR uni0421
ENCODING 1057
SWIDTH 497 0
DWIDTH 8 0
BBX 9 12 0 0
BITMAP
01BE00
07D340
1F4380
2F0640
3E0000
7D0000
BC0000
BC0000
BC0000
BC0000
7E0600
1BE400
ENDCHAR
STARTCHAR uni0422
ENCODING 1058
SWIDTH 481 0
DWIDTH 8 0
BBX 12 12 0 0
BITMAP
06FE45
297FFD
70BEA8
A0B800
E0F800
A0F400
01F000
02F000
02E000
03D000
07C000
07C000
ENDCHAR
STARTCHAR uni0423
ENCODING 1059
SWIDTH 644 0
DWIDTH 10 0
BBX 12 12 0 0
BITMAP
02B809
1DB818
74BC24
B07D30
A03DA0
502EC0
001F80
001F40
000E00
004900
02EC00
01E000
ENDCHAR
STARTCHAR uni0424
ENCODING 1060
SWIDTH 786 0
DWIDTH 13 0
BBX 12 13 0 0
BITMAP
02BF80
0E4B80
090F40
015FA4
1A2F2D
3C2E0F
B83D0F
B83D1F
B87C2E
3DB8B8
1BFF90
00F400
00F400
ENDCHAR
STARTCHAR uni0425
ENCODING 1061
SWIDTH 620 0
DWIDTH 10 0
BBX 10 12 0 0
BITMAP
02F460
1DF8D0
74BD80
A0BF00
E07D00
503D00
003E00
007F00
00EF00
019F40
030F80
090B80
ENDCHAR
STARTCHAR uni0426
ENCODING 1062
SWIDTH 692 0
DWIDTH 11 0
BBX 12 15 0 -3
BITMAP
01B47C
1EF0B8
75F0B8
B2E0F4
A2D0F0
53D1F0
07C2E0
07C2E0
0B83D0
0F47C0
0F47C0
1FFF80
006F80
0007FD
0001B8
ENDCHAR
STARTCHAR uni0427
ENCODING 1063
SWIDTH 695 0
DWIDTH 11 0
BBX 12 12 0 0
BITMAP
02B42D
1EF03D
75F07C
B2E07C
A2E0B8
52E1F4
00BEF4
0001F0
0002E0
0002E0
0003D0
0003C0
ENDCHAR
STARTCHAR uni0428
ENCODING 1064
SWIDTH 906 0
DWIDTH 15 0
BBX 15 12 0 0
BITMAP
01B4B87C
1EF0F4B8
75F1F0F4
B2E1F0F4
A2D2E1F0
53D3D2E0
07C3D2E0
07C7C3D0
0B8783C0
0F4B87C0
0F5F9B80
1FFFFF80
ENDCHAR
STARTCHAR uni0429
ENCODING 1065
SWIDTH 934 0
DWIDTH 15 0
BBX 15 15 0 -3
BITMAP
02B4B87C
1EF0F4B8
75F1F0F4
B2E1F0F4
A2D2E1F0
53D3D2E0
07C3D2E0
07C7C3D0
0B8783D0
0F4B87C0
0F4F4B80
1FFF9B80
001BFF80
00007FFC
000006F8
ENDCHAR
STARTCHAR uni042A
ENCODING 1066
SWIDTH 714 0
DWIDTH 11 0
BBX 11 12 0 0
BITMAP
06FD00
183D00
707C00
A07C00
B0B800
70FFE0
00F4B8
01F078
02F078
02E0B8
03D4F0
03DB90
ENDCHAR
STARTCHAR uni042B
ENCODING 1067
SWIDTH 909 0
DWIDTH 15 0
BBX 15 12 0 0
BITMAP
02B4007C
1EF000B8
75F000B4
B2E000F4
A2E001F0
53FF81F0
07C3D2E0
07C2E3D0
0B82E3D0
0F42D7C0
0F478B80
1F7E0B80
ENDCHAR
STARTCHAR uni042C
ENCODING 1068
SWIDTH 640 0
DWIDTH 10 0
BBX 10 12 0 0
BITMAP
02B400
1EF000
75F000
B2E000
A2E000
53FF80
07C3D0
07C2E0
0B82E0
0F42D0
0F4780
1F7E00
ENDCHAR
STARTCHAR uni042D
ENCODING 1069
SWIDTH 544 0
DWIDTH 9 0
BBX 9 12 0 0
BITMAP
02F900
182F00
201F40
000F80
000F80
0BFF40
001F40
002F00
503D00
E0BC00
D1F000
6B8000
ENDCHAR
STARTCHAR uni042E
ENCODING 1070
SWIDTH 946 0
DWIDTH 15 0
BBX 15 12 0 0
BITMAP
01B42F90
1EF055B4
35F07878
B2E1F07C
A2E2E07C
63FFD07C
07DBC0B8
07CB80F4
0B8B81F0
0F4B82D0
0F47DB80
1F02F900
ENDCHAR
STARTCHAR uni042F
ENCODING 1071
SWIDTH 630 0
DWIDTH 10 0
BBX 12 12 -1 0
BITMAP
002BE4
01E45E
0383DB
0387C6
0387C0
02DB80
02FF40
0B8F40
0F1F00
1E1E00
2E2E00
7C3D00
ENDCHAR
STARTCHAR uni0430
ENCODING 1072
SWIDTH 526 0
DWIDTH 8 0
BBX 10 8 -1 0
BITMAP
02FB80
0B4F40
1E0F00
3D1F00
3D2E00
7D3E20
3EBE90
1F5F40
ENDCHAR
STARTCHAR uni0431
ENCODING 1073
SWIDTH 430 0
DWIDTH 7 0
BBX 9 12 0 0
BITMAP
000080
07FF80
07FE00
018000
0BD000
3D7000
BC3000
F87000
F47000
F0A000
F5C000
7E0000
ENDCHAR
STARTCHAR uni0432
ENCODING 1074
SWIDTH 449 0
DWIDTH 7 0
BBX 9 12 0 0
BITMAP
02E000
0B6400
1E2400
2D2400
3C3000
786040
BAE640
F5F400
F47400
F47000
F4D000
6E4000
ENDCHAR
STARTCHAR uni0433
ENCODING 1075
SWIDTH 375 0
DWIDTH 6 0
BBX 8 8 -1 0
BITMAP
07E0
14F4
21F4
07E0
2F80
7D05
7D14
2F90
ENDCHAR
STARTCHAR uni0434
ENCODING 1076
SWIDTH 507 0
DWIDTH 8 0
BBX 10 12 -1 -4
BITMAP
02FB80
0B8F40
1F0F00
3E1F00
3D2E00
7D2E10
3D7D50
1FBE80
01BC00
0AB800
0CF400
07D000
ENDCHAR
STARTCHAR uni0435
ENCODING 1077
SWIDTH 384 0
DWIDTH 6 0
BBX 8 8 -1 0
BITMAP
02F4
0B5C
1E28
3D74
3F90
7D01
3D18
1F90
ENDCHAR
STARTCHAR uni0436
ENCODING 1078
SWIDTH 882 0
DWIDTH 14 0
BBX 16 8 -1 0
BITMAP
0B92E1F8
25E2D798
00F3CB00
00FFFE00
01E79E00
61DB9E01
A38B5E18
3E0F07E0
ENDCHAR
STARTCHAR uni0437
ENCODING 1079
SWIDTH 498 0
DWIDTH 8 0
BBX 9 12 0 -4
BITMAP
07E000
24B800
20B800
50B800
80F400
42E040
0F8140
03D600
02F400
1BE000
33D000
2F4000
ENDCHAR
STARTCHAR uni0438
ENCODING 1080
SWIDTH 505 0
DWIDTH 8 0
BBX 9 8 0 0
BITMAP
3D3D00
7C7C00
7C7800
B8B800
F4F400
F5F440
FAFA00
B9B900
ENDCHAR
STARTCHAR uni0439
ENCODING 1081
SWIDTH 505 0
DWIDTH 8 0
BBX 9 12 0 0
BITMAP
050500
0F1800
07E000
000000
3D3D00
7C7C00
7C7800
B8B800
F4F400
F5F440
FAFA00
B9B900
ENDCHAR
STARTCHAR uni043A
ENCODING 1082
SWIDTH 501 0
DWIDTH 8 0
BBX 10 8 -1 0
BITMAP
0F4B40
1F2640
1FA000
2FFC00
3E3D00
3D3C50
7C3E80
B82F40
ENDCHAR
STARTCHAR uni043B
ENCODING 1083
SWIDTH 558 0
DWIDTH 9 0
BBX 11 8 -1 0
BITMAP
002FC0
0067C0
008B80
008B40
018F40
124F04
B31F20
6D0B90
ENDCHAR
STARTCHAR uni043C
ENCODING 1084
SWIDTH 827 0
DWIDTH 13 0
BBX 15 8 -1 0
BITMAP
002E07D0
007E0FC0
009E1FC0
009E3B80
019E6B40
724FDF48
A20F8FA4
2D0F47D0
ENDCHAR
STARTCHAR uni043D
ENCODING 1085
SWIDTH 507 0
DWIDTH 8 0
BBX 10 8 -1 0
BITMAP
0F4F40
1F0F00
1E1F00
2FFE00
3D2D00
3D3D10
7C3D50
B81F40
ENDCHAR
STARTCHAR uni043E
ENCODING 1086
SWIDTH 439 0
DWIDTH 7 0
BBX 10 8 -1 0
BITMAP
02F400
0B9C00
1F1D90
3E1D00
3D1C00
7D2800
3D7000
1F9000
ENDCHAR
STARTCHAR uni043F
ENCODING 1087
SWIDTH 505 0
DWIDTH 8 0
BBX 10 8 -1 0
BITMAP
0FBD00
1F5E00
1E1E00
2E2E00
3D3D00
3D3D10
7C3D50
B82F40
ENDCHAR
STARTCHAR uni0440
ENCODING 1088
SWIDTH 468 0
DWIDTH 7 0
BBX 9 13 -2 -4
BITMAP
019000
03EF40
07D7C0
0783C0
0B87C0
0F4780
0F4F40
1F6F00
2FF800
2E0000
3D0000
3C0000
640000
ENDCHAR
STARTCHAR uni0441
ENCODING 1089
SWIDTH 384 0
DWIDTH 6 0
BBX 8 8 -1 0
BITMAP
02F4
0B5C
1F14
3E00
3D00
7D01
3D18
1F90
ENDCHAR
STARTCHAR uni0442
ENCODING 1090
SWIDTH 752 0
DWIDTH 12 0
BBX 14 8 -1 0
BITMAP
0FBEBD00
1F6F6E00
1E2E2E00
2E2E2E00
3D3D3D00
3D3C3C10
7C7C3C50
B8B82F40
ENDCHAR
STARTCHAR uni0443
ENCODING 1091
SWIDTH 486 0
DWIDTH 8 0
BBX 9 12 0 -4
BITMAP
3D3D00
7C7C00
7C7800
B8B800
F4F400
F5F140
FBF200
BAF800
0BE000
27D000
6BC000
2E4000
ENDCHAR
STARTCHAR uni0444
ENCODING 1092
SWIDTH 738 0
DWIDTH 12 0
BBX 12 15 -1 -4
BITMAP
0002C0
0007C0
000B80
02FBBD
0F8F5F
1F0F0F
3D1E0F
3D2E1F
7C2D2E
3D7D7C
1FBFE4
007800
00B400
00F400
009000
ENDCHAR
STARTCHAR uni0445
ENCODING 1093
SWIDTH 522 0
DWIDTH 8 0
BBX 9 9 0 0
BITMAP
000A00
0B8B00
12D200
12E900
41F400
81E000
47F040
18F540
207D00
ENDCHAR
STARTCHAR uni0446
ENCODING 1094
SWIDTH 535 0
DWIDTH 9 0
BBX 8 12 0 -4
BITMAP
3D3D
7C7C
7C78
B8B8
F4F4
F5F4
FAF9
B9B9
0009
0BFC
1FF4
1400
ENDCHAR
STARTCHAR uni0447
ENCODING 1095
SWIDTH 505 0
DWIDTH 8 0
BBX 9 8 0 0
BITMAP
3D3D00
7C7C00
7C7800
B8B800
BEF400
3EF440
00F640
00B900
ENDCHAR
STARTCHAR uni0448
ENCODING 1096
SWIDTH 752 0
DWIDTH 12 0
BBX 13 8 0 0
BITMAP
3D3D3D00
7C7C7C00
7C78B800
B8B8B800
F4F4F400
F5F5F140
FAFAFA00
B9B8B900
ENDCHAR
STARTCHAR uni0449
ENCODING 1097
SWIDTH 782 0
DWIDTH 13 0
BBX 12 12 0 -4
BITMAP
3D3D3D
7C7C7C
7C78B8
B8B8B8
F4F4F4
F5F5F0
FAFAF9
B9B8B9
000009
000BF8
002FF4
002400
ENDCHAR
STARTCHAR uni044A
ENCODING 1098
SWIDTH 448 0
DWIDTH 7 0
BBX 7 8 0 0
BITMAP
7F40
EA00
1EE0
78B4
B4B4
F4F4
F5E0
7E40
ENDCHAR
STARTCHAR uni044B
ENCODING 1099
SWIDTH 655 0
DWIDTH 10 0
BBX 11 8 0 0
BITMAP
3D01E0
7C1BD0
7AE3D0
B8A7C0
F4A780
F0DB88
F6CBE4
7E07E0
ENDCHAR
STARTCHAR uni044C
ENCODING 1100
SWIDTH 448 0
DWIDTH 7 0
BBX 7 8 0 0
BITMAP
3D00
7C00
7E90
BDF4
F4B4
F4F4
FAE0
7F40
ENDCHAR
STARTCHAR uni044D
ENCODING 1101
SWIDTH 413 0
DWIDTH 7 0
BBX 7 8 -1 0
BITMAP
0BE0
24B8
007C
07FC
00B8
A0F0
A2D0
7E40
ENDCHAR
STARTCHAR uni044E
ENCODING 1102
SWIDTH 675 0
DWIDTH 11 0
BBX 14 8 -1 0
BITMAP
0F42F400
1F1F5C10
1F2E2E90
2FFD1C00
3D7C2800
3D7C3400
7C7CA000
B82F8000
ENDCHAR
STARTCHAR uni044F
ENCODING 1103
SWIDTH 527 0
DWIDTH 8 0
BBX 10 8 -1 0
BITMAP
01BF80
078B40
0F0F40
0F5F00
07FE00
626E10
B72E10
7D1F80
ENDCHAR
STARTCHAR uni0450
ENCODING 1104
SWIDTH 384 0
DWIDTH 6 0
BBX 8 12 -1 0
BITMAP
01D0
00D0
0090
0000
02F4
0B5C
1E28
3D74
3F90
7D01
3D18
1F90
ENDCHAR
STARTCHAR uni0451
ENCODING 1105
SWIDTH 384 0
DWIDTH 6 0
BBX 8 11 -1 0
BITMAP
028A
038E
0000
02F4
0B5C
1E28
3D74
3F90
7D01
3D18
1F90
ENDCHAR
STARTCHAR uni0452
ENCODING 1106
SWIDTH 491 0
DWIDTH 8 0
BBX 10 16 -1 -4
BITMAP
004000
07C000
0B8000
2FF400
0F4000
1FBD00
1F2E00
2E2E00
3D3D00
3D3C50
7C7C80
B8BE00
07F400
0DF400
09E000
0B9000
ENDCHAR
STARTCHAR uni0453
ENCODING 1107
SWIDTH 375 0
DWIDTH 6 0
BBX 8 12 -1 0
BITMAP
001D
0034
0060
0000
07E0
14F4
21F4
07E0
2F80
7D05
7D14
2F90
ENDCHAR
STARTCHAR uni0454
ENCODING 1108
SWIDTH 384 0
DWIDTH 6 0
BBX 8 8 -1 0
BITMAP
02F4
0B58
1E14
3FD0
3D00
7D05
3D18
1F90
ENDCHAR
STARTCHAR uni0455
ENCODING 1109
SWIDTH 382 0
DWIDTH 6 0
BBX 8 9 -1 0
BITMAP
0150
03E0
07E0
0AF0
19F0
25F0
75F5
62F4
2F80
ENDCHAR
STARTCHAR uni0456
ENCODING 1110
SWIDTH 267 0
DWIDTH 4 0
BBX 5 11 0 0
BITMAP
1E00
2F00
1900
3D00
7C00
7C00
B800
F400
F480
FA40
B900
ENDCHAR
STARTCHAR uni0457
ENCODING 1111
SWIDTH 267 0
DWIDTH 4 0
BBX 5 11 0 0
BITMAP
B2C0
6280
0000
3D00
7C00
7C00
B800
F400
F480
FA40
B900
ENDCHAR
STARTCHAR uni0458
ENCODING 1112
SWIDTH 240 0
DWIDTH 4 0
BBX 9 15 -4 -4
BITMAP
001D00
002E00
001900
003D00
007C00
007C00
00B800
00F400
00F540
01F200
01F900
0BE000
3BD000
67C000
2E4000
ENDCHAR
STARTCHAR uni0459
ENCODING 1113
SWIDTH 745 0
DWIDTH 12 0
BBX 13 8 -1 0
BITMAP
002FC000
0067C000
00DBA900
00CBAF00
018F4F40
624F0F00
B70F2D00
7D07E400
ENDCHAR
STARTCHAR uni045A
ENCODING 1114
SWIDTH 694 0
DWIDTH 11 0
BBX 12 8 -1 0
BITMAP
0F4F40
1F0F00
1E1FA8
2FFE7D
3D2D2D
3D3D3D
7C3D78
B81FD0
ENDCHAR
STARTCHAR uni045B
ENCODING 1115
SWIDTH 505 0
DWIDTH 8 0
BBX 10 12 -1 0
BITMAP
004000
07C000
0B8000
2FF400
0F4000
1FBC00
1F2E00
2E2E00
3D3D00
3D3D10
7C3D50
B81F40
ENDCHAR
STARTCHAR uni045C
ENCODING 1116
SWIDTH 501 0
DWIDTH 8 0
BBX 10 12 -1 0
BITMAP
000A00
001C00
002400
000000
0F4B40
1F2640
1FA000
2FFC00
3E3D00
3D3C50
7C3E80
B82F40
ENDCHAR
STARTCHAR uni045D
ENCODING 1117
SWIDTH 505 0
DWIDTH 8 0
BBX 9 12 0 0
BITMAP
034000
028000
018000
000000
3D3D00
7C7C00
7C7800
B8B800
F4F400
F5F440
FAFA00
B9B900
ENDCHAR
STARTCHAR uni045E
ENCODING 1118
SWIDTH 486 0
DWIDTH 8 0
BBX 9 16 0 -4
BITMAP
050400
0F1800
07E000
000000
3D3D00
7C7C00
7C7800
B8B800
F4F400
F5F140
FBF200
BAF800
0BE000
27D000
6BC000
2E4000
ENDCHAR
STARTCHAR uni045F
ENCODING 1119
SWIDTH 505 0
DWIDTH 8 0
BBX 9 12 0 -4
BITMAP
3D3D00
7C7C00
7C7800
B8B800
F4F400
F5F440
FAFA00
B9B900
020000
0B4000
078000
020000
ENDCHAR
STARTCHAR uni0462
ENCODING 1122
SWIDTH 659 0
DWIDTH 11 0
BBX 10 12 0 0
BITMAP
00F000
01F000
2FFFF0
B3EBD0
E3D000
67EF40
07C7D0
0B82D0
0F42D0
0F43C0
1F4780
1E7E00
ENDCHAR
STARTCHAR uni0463
ENCODING 1123
SWIDTH 692 0
DWIDTH 11 0
BBX 12 8 -1 0
BITMAP
0FBD00
1F5E00
1E1FF8
2E2E2D
3D3D2D
3D3C3C
7C3D78
B81F90
ENDCHAR
STARTCHAR uni046A
ENCODING 1130
SWIDTH 834 0
DWIDTH 13 0
BBX 12 12 1 0
BITMAP
06FFFD
2DF818
B0BC20
E07D90
D03F80
56FFF8
1E2E3D
2D3D2D
3C3D3C
7C7C7C
7878B8
F4B878
ENDCHAR
STARTCHAR uni046B
ENCODING 1131
SWIDTH 750 0
DWIDTH 12 0
BBX 10 8 1 0
BITMAP
1BFF80
B6E100
A1F500
1BFF80
3CF6D0
78F2D0
79E3C0
B6E3C0
ENDCHAR
STARTCHAR uni0472
ENCODING 1138
SWIDTH 665 0
DWIDTH 11 0
BBX 11 12 0 0
BITMAP
01BF80
0A55E0
38F0B4
B2D0B4
A7C0B4
6BA8F4
0F4AF0
0F41F0
1F02D0
1F0780
0F4F00
06F800
ENDCHAR
STARTCHAR uni0473
ENCODING 1139
SWIDTH 439 0
DWIDTH 7 0
BBX 10 8 -1 0
BITMAP
02F400
0B5C10
1F2E90
3E5D00
3EBC00
7D2800
3EB000
1F8000
ENDCHAR
STARTCHAR uni0474
ENCODING 1140
SWIDTH 668 0
DWIDTH 11 0
BBX 12 12 0 0
BITMAP
02F41E
1DF478
74F4B0
A0F4E0
E0F5C0
50F680
00F640
00F700
00FA00
00FD00
00BC00
00B800
ENDCHAR
STARTCHAR uni0475
ENCODING 1141
SWIDTH 414 0
DWIDTH 7 0
BBX 7 8 0 0
BITMAP
3D70
7C74
7C24
B830
F460
F490
FA80
BE00
ENDCHAR
STARTCHAR uni0490
ENCODING 1168
SWIDTH 431 0
DWIDTH 7 0
BBX 11 14 0 0
BITMAP
000010
000034
06FFF4
2AFB90
71E000
A2E000
A3D000
53C000
07C000
0B8000
0B8000
0F4000
1F0000
1F0000
ENDCHAR
STARTCHAR uni0491
ENCODING 1169
SWIDTH 342 0
DWIDTH 5 0
BBX 7 9 -1 0
BITMAP
001C
0FF8
1F00
1F00
2E00
3D00
3D00
7C00
B800
ENDCHAR
STARTCHAR uni0492
ENCODING 1170
SWIDTH 400 0
DWIDTH 6 0
BBX 10 12 0 0
BITMAP
06FFF0
29FA90
B1F000
B2E000
B2D000
13D000
1FE800
078000
0B8000
0F4000
0F4000
1F0000
ENDCHAR
STARTCHAR uni0493
ENCODING 1171
SWIDTH 375 0
DWIDTH 6 0
BBX 8 8 -1 0
BITMAP
0BE0
24F4
11F0
7FF8
2E00
7D05
7D14
2F90
ENDCHAR
STARTCHAR uni0494
ENCODING 1172
SWIDTH 665 0
DWIDTH 11 0
BBX 10 12 0 0
BITMAP
06FFF0
2DFA90
75F000
B2E000
B2E000
73FF80
07D6E0
07C1E0
0B81E0
0F42E0
0F47C0
1F7E00
ENDCHAR
STARTCHAR uni0495
ENCODING 1173
SWIDTH 486 0
DWIDTH 8 0
BBX 10 12 -1 -4
BITMAP
0FFF00
1FA900
1F0000
2FB800
3E7D00
3D3C50
7C7C80
B8BE00
02F400
09F000
19E000
0B8000
ENDCHAR
STARTCHAR uni0496
ENCODING 1174
SWIDTH 777 0
DWIDTH 12 0
BBX 14 17 -1 -5
BITMAP
07D1A1F0
07A2D7B0
0033DD00
0037E800
003BA000
02FFFE00
0B8F4F00
0F0F4F00
1F1F1F00
1E2E2E00
2E2E2D00
7C3D2E00
00002800
00003C00
00002E00
00000D00
00000800
ENDCHAR
STARTCHAR uni0497
ENCODING 1175
SWIDTH 882 0
DWIDTH 14 0
BBX 16 12 -1 -4
BITMAP
0B92E1F8
25E2D798
00F3CB00
00FFFE00
01E79E00
61DB9E05
A38B5F58
3E0F0BD0
00000240
000003C0
000002C0
00000100
ENDCHAR
STARTCHAR uni0498
ENCODING 1176
SWIDTH 525 0
DWIDTH 8 0
BBX 8 17 0 -5
BITMAP
02F8
082E
102F
002E
00BC
07F4
00BC
003D
503E
E07D
E0F8
6FD0
0A00
0F40
0780
0380
0100
ENDCHAR
STARTCHAR uni0499
ENCODING 1177
SWIDTH 498 0
DWIDTH 8 0
BBX 9 16 0 -8
BITMAP
07E000
24B800
20B800
50B800
80F400
42E040
0F8140
03D600
02F400
1BE000
37D000
2F4000
080000
2D0000
1D0000
080000
ENDCHAR
STARTCHAR uni049A
ENCODING 1178
SWIDTH 635 0
DWIDTH 10 0
BBX 11 17 0 -5
BITMAP
02B4B8
1EF2B8
75F600
B2EC00
A2F400
53FE40
07C780
07C780
0B8B80
0F4F40
0F4F00
1F0F40
000E00
000F00
000B80
000340
000100
ENDCHAR
STARTCHAR uni049B
ENCODING 1179
SWIDTH 501 0
DWIDTH 8 0
BBX 10 12 -1 -4
BITMAP
0F4B40
1F2640
1FA000
2FFC00
3E3D00
3D3C10
7C3C40
B82F40
000800
002E00
001D00
000400
ENDCHAR
STARTCHAR uni049C
ENCODING 1180
SWIDTH 721 0
DWIDTH 12 0
BBX 12 12 0 0
BITMAP
01B41F
1EF07B
75F0D0
B2E640
A2EA00
63FFD0
07E6E0
07D2D0
0B83D0
0F43C0
0F4780
1F07C0
ENDCHAR
STARTCHAR uni049D
ENCODING 1181
SWIDTH 551 0
DWIDTH 9 0
BBX 11 8 -1 0
BITMAP
0F42D0
1F99D0
1FA400
2EFE00
3F9F00
3E5F14
7C1FA0
B80B80
ENDCHAR
STARTCHAR uni04A0
ENCODING 1184
SWIDTH 691 0
DWIDTH 11 0
BBX 12 12 0 0
BITMAP
06FD2E
287C9E
B0BA40
A0BA00
E0FD00
50FFD0
01F2E0
02E1E0
02E2D0
03D3D0
07C7C0
07C3C0
ENDCHAR
STARTCHAR uni04A1
ENCODING 1185
SWIDTH 676 0
DWIDTH 11 0
BBX 12 8 0 0
BITMAP
1BF0B4
B5F2B4
E2E900
E2FF80
03E7C0
07C7C5
0787E8
0B82E0
ENDCHAR
STARTCHAR uni04A2
ENCODING 1186
SWIDTH 665 0
DWIDTH 11 0
BBX 12 14 0 -2
BITMAP
01B47C
1EF0B8
35F0B8
B2E0F4
A2E0F0
63FFF0
07D6E0
07C2D0
0B83D0
0F47C0
0F4780
1F0BD0
0001FD
0000B8
ENDCHAR
STARTCHAR uni04A3
ENCODING 1187
SWIDTH 507 0
DWIDTH 8 0
BBX 10 12 -1 -4
BITMAP
0F4F40
1F0F00
1E1F00
2FFE00
3D2D00
3D3D10
7C3D50
B82F40
000800
001E00
000E00
000400
ENDCHAR
STARTCHAR uni04A4
ENCODING 1188
SWIDTH 689 0
DWIDTH 11 0
BBX 15 12 0 0
BITMAP
01B47FF8
1DF0BEA4
35F0B800
B2E0F400
A2E0F000
63FFF000
07D6E000
07C2E000
0B83D000
0F47C000
0F47C000
1F0B8000
ENDCHAR
STARTCHAR uni04A5
ENCODING 1189
SWIDTH 681 0
DWIDTH 11 0
BBX 12 8 -1 0
BITMAP
0F4BFF
1F0FAA
1E1E00
2FFE00
3D2D00
3D3D20
7C3E80
B81F40
ENDCHAR
STARTCHAR uni04AA
ENCODING 1194
SWIDTH 497 0
DWIDTH 8 0
BBX 9 17 0 -5
BITMAP
01BE00
07D340
0F4380
2F0640
3E0000
7D0000
BC0000
BC0000
BC0000
BC0100
7E0600
2FF800
078000
078000
03D000
01D000
018000
ENDCHAR
STARTCHAR uni04AB
ENCODING 1195
SWIDTH 384 0
DWIDTH 6 0
BBX 8 12 -1 -4
BITMAP
02F4
0B58
1F14
3D00
3D00
7D05
3E68
1FD0
0600
0B40
0740
0100
ENDCHAR
STARTCHAR uni04AE
ENCODING 1198
SWIDTH 620 0
DWIDTH 10 0
BBX 11 12 0 0
BITMAP
02F40C
1DF818
74BC30
A07D60
E03D90
503E80
002F40
002F00
002E00
003E00
007D00
007C00
ENDCHAR
STARTCHAR uni04AF
ENCODING 1199
SWIDTH 480 0
DWIDTH 8 0
BBX 7 12 1 -4
BITMAP
F4B0
F4B4
F420
F420
B850
B880
BA00
7D00
7C00
B800
F400
F400
ENDCHAR
STARTCHAR uni04B0
ENCODING 1200
SWIDTH 620 0
DWIDTH 10 0
BBX 11 12 0 0
BITMAP
02F40C
1DF818
74BC30
A07D60
E03D90
503E80
002F40
00FFD0
002E00
003E00
007D00
007C00
ENDCHAR
STARTCHAR uni04B1
ENCODING 1201
SWIDTH 480 0
DWIDTH 8 0
BBX 8 12 0 -4
BITMAP
3D2C
3D2D
3D08
3D08
2E14
2E20
2E80
BFD0
1F00
2E00
3D00
3D00
ENDCHAR
STARTCHAR uni04B6
ENCODING 1206
SWIDTH 695 0
DWIDTH 11 0
BBX 12 14 0 -2
BITMAP
02B42D
1EF03D
75F07C
B2E078
A2E0B8
52E1F4
00BEF0
0001F0
0002E0
0002D0
0003D0
0007E0
0000BE
00003D
ENDCHAR
STARTCHAR uni04B7
ENCODING 1207
SWIDTH 505 0
DWIDTH 8 0
BBX 9 12 0 -4
BITMAP
3D3D00
7C7C00
7C7800
B8B800
BEF400
3EF440
00F640
00BD00
003000
00B400
007400
001000
ENDCHAR
STARTCHAR uni04B8
ENCODING 1208
SWIDTH 715 0
DWIDTH 11 0
BBX 12 12 0 0
BITMAP
01B42E
1EF02E
75F03D
B2E03C
A2E07C
62E5B8
00BEF8
0008F4
0005F0
0001F0
0002E0
0003D0
ENDCHAR
STARTCHAR uni04B9
ENCODING 1209
SWIDTH 545 0
DWIDTH 9 0
BBX 9 8 0 0
BITMAP
3D1F00
7C2E00
7D6D00
BA7D00
BFFC00
2FBC40
067D80
003E00
ENDCHAR
STARTCHAR uni04BA
ENCODING 1210
SWIDTH 679 0
DWIDTH 11 0
BBX 10 12 0 0
BITMAP
01B400
1EF000
75F000
B2E000
A2E000
63EFD0
07D2E0
07C1F0
0B82E0
0F42E0
0F43D0
1F03C0
ENDCHAR
STARTCHAR uni04BB
ENCODING 1211
SWIDTH 505 0
DWIDTH 8 0
BBX 10 11 -1 0
BITMAP
07C000
0B8000
0B4000
0FBD00
1F5E00
1E1E00
2E2E00
3D3D00
3D3D10
7C3D50
B82F40
ENDCHAR
STARTCHAR uni04C0
ENCODING 1216
SWIDTH 375 0
DWIDTH 6 0
BBX 7 12 0 0
BITMAP
02F4
1EF0
75F0
A2E0
E3D0
53D0
07C0
0B80
0B80
0F40
1F00
1F00
ENDCHAR
STARTCHAR uni04C1
ENCODING 1217
SWIDTH 777 0
DWIDTH 12 0
BBX 14 15 -1 0
BITMAP
00060100
000B5900
0006E400
07D1A1F0
07A2D7B0
0033DD00
0037E800
003BA000
02FFFE00
0B8F4F00
0F0F4F00
1F1F1F00
1E2E2E00
2E2E2D00
7C3D2E00
ENDCHAR
STARTCHAR uni04C2
ENCODING 1218
SWIDTH 882 0
DWIDTH 14 0
BBX 16 12 -1 0
BITMAP
00060100
000B5900
0006E400
00000000
0B92E1F8
25E2D798
00F3CB00
00FFFE00
01E79E00
61DB9E01
A38B5E18
3E0F07E0
ENDCHAR
STARTCHAR uni04CB
ENCODING 1227
SWIDTH 695 0
DWIDTH 11 0
BBX 12 14 0 -2
BITMAP
02B42D
1DF03D
75F07C
A2E07C
A2E0B8
12E5F4
00BEF4
0001F0
0002E0
0002E0
0003D0
011BC0
03F800
02E000
ENDCHAR
STARTCHAR uni04CC
ENCODING 1228
SWIDTH 516 0
DWIDTH 8 0
BBX 9 12 0 -4
BITMAP
3D3D00
3D3D00
7C7C00
7CB800
7EF800
2EF440
00F940
00BE00
003400
2FE000
7F8000
500000
ENDCHAR
STARTCHAR uni04CF
ENCODING 1231
SWIDTH 267 0
DWIDTH 4 0
BBX 5 11 0 0
BITMAP
1F00
2E00
2D00
3D00
7C00
7C00
B800
F400
F480
FA40
B900
ENDCHAR
STARTCHAR uni04D0
ENCODING 1232
SWIDTH 668 0
DWIDTH 11 0
BBX 13 17 0 -2
BITMAP
00009040
0001E240
0000B900
0000BC00
0003F800
000DB800
0028F400
0070F400
2FF9F000
B6C2E000
6382E000
0B43D000
0F07C000
1E07C000
2D0B8000
2D000000
1D000000
ENDCHAR
STARTCHAR uni04D1
ENCODING 1233
SWIDTH 526 0
DWIDTH 8 0
BBX 10 12 -1 0
BITMAP
005040
01E180
00BA00
000000
02FB80
0B4F40
1E0F00
3D1F00
3D2E00
7D3E20
3EBE90
1F5F40
ENDCHAR
STARTCHAR uni04D2
ENCODING 1234
SWIDTH 668 0
DWIDTH 11 0
BBX 13 17 0 -2
BITMAP
0000A340
0000E340
00000000
0000BC00
0003F800
000DB800
0028F400
0070F400
2FF9F000
B6C2E000
6382E000
0B43D000
0F07C000
1E07C000
2D0B8000
2D000000
1D000000
ENDCHAR
STARTCHAR uni04D3
ENCODING 1235
SWIDTH 526 0
DWIDTH 8 0
BBX 10 11 -1 0
BITMAP
00A280
00A280
000000
02FB80
0B4F40
1E0F00
3D1F00
3D2E00
7D3E20
3EBE90
1F5F40
ENDCHAR
STARTCHAR uni04D4
ENCODING 1236
SWIDTH 764 0
DWIDTH 12 0
BBX 15 14 0 -2
BITMAP
0000B914
0002BEE0
000DB800
0024F400
0070F000
6FFAFF40
B2C2E500
1382D000
0B43D000
0F07C000
1E07FF40
2D0BFF40
2D000000
1D000000
ENDCHAR
STARTCHAR uni04D5
ENCODING 1237
SWIDTH 650 0
DWIDTH 10 0
BBX 11 8 0 0
BITMAP
0BEBE0
14BE70
00BC70
2FF9D0
B8FE40
F4F404
F6F820
7E7F80
ENDCHAR
STARTCHAR uni04D6
ENCODING 1238
SWIDTH 459 0
DWIDTH 7 0
BBX 9 15 0 0
BITMAP
008040
02D640
00B900
01B900
078600
0B4A00
0F4900
0B4000
07D000
2F4000
7D0000
BC0000
FC0100
BD1800
2F9000
ENDCHAR
STARTCHAR uni04D7
ENCODING 1239
SWIDTH 384 0
DWIDTH 6 0
BBX 8 12 -1 0
BITMAP
0241
0789
02E4
0000
02F4
0B5C
1E28
3D74
3F90
7D01
3D18
1F90
ENDCHAR
STARTCHAR uni04D8
ENCODING 1240
SWIDTH 544 0
DWIDTH 9 0
BBX 9 12 0 0
BITMAP
06F800
1FFF00
181F40
000F80
000F80
01BF40
0B5F40
3D2F00
783D00
B47800
75F000
2F8000
ENDCHAR
STARTCHAR uni04D9
ENCODING 1241
SWIDTH 404 0
DWIDTH 6 0
BBX 6 8 0 0
BITMAP
2F90
11F0
01F0
1BF0
76F0
A3D0
D780
BD00
ENDCHAR
STARTCHAR uni04DC
ENCODING 1244
SWIDTH 777 0
DWIDTH 12 0
BBX 14 15 -1 0
BITMAP
00075D00
00075D00
00000000
07D1A1F0
07A2D7B0
0033DD00
0037E800
003BA000
02FFFE00
0B8F4F00
0F0F4F00
1F1F1F00
1E2E2E00
2E2E2D00
7C3D2E00
ENDCHAR
STARTCHAR uni04DD
ENCODING 1245
SWIDTH 882 0
DWIDTH 14 0
BBX 16 11 -1 0
BITMAP
00075D00
00075D00
00000000
0B92E1F8
25E2D798
00F3CB00
00FFFE00
01E79E00
61DB9E01
A38B5E18
3E0F07E0
ENDCHAR
STARTCHAR uni04DE
ENCODING 1246
SWIDTH 525 0
DWIDTH 8 0
BBX 8 15 0 0
BITMAP
01D7
01D7
0000
02F8
082E
102F
002E
00BC
07F4
00BC
003E
503E
E07D
E0F8
6F90
ENDCHAR
STARTCHAR uni04DF
ENCODING 1247
SWIDTH 498 0
DWIDTH 8 0
BBX 9 15 0 -4
BITMAP
071800
076C00
000000
07E000
24B800
20B800
50B800
80F400
42E040
0F8140
03D600
02F400
1BE000
33D000
2F4000
ENDCHAR
STARTCHAR uni04E2
ENCODING 1250
SWIDTH 705 0
DWIDTH 11 0
BBX 12 14 0 0
BITMAP
001FF8
000000
01B42E
1EF07D
75F0FD
B2E2FC
A2E3B8
53DAB8
07DCF4
07E8F0
0BF1F0
0FD2E0
0F82E0
1F43D0
ENDCHAR
STARTCHAR uni04E3
ENCODING 1251
SWIDTH 505 0
DWIDTH 8 0
BBX 9 10 0 0
BITMAP
0FFD00
000000
3D3D00
7C7C00
7C7800
B8B800
F4F400
F5F440
FAFA00
B9B900
ENDCHAR
STARTCHAR uni04E4
ENCODING 1252
SWIDTH 705 0
DWIDTH 11 0
BBX 12 15 0 0
BITMAP
000A34
000E34
000000
01B42E
1EF07D
75F0FD
B2E2FC
A2E3B8
53DAB8
07DCF4
07E8F0
0BF1F0
0FD2E0
0F82E0
1F43D0
ENDCHAR
STARTCHAR uni04E5
ENCODING 1253
SWIDTH 505 0
DWIDTH 8 0
BBX 9 11 0 0
BITMAP
072800
0B2C00
000000
3D3D00
7C7C00
7C7800
B8B800
F4F400
F5F440
FAFA00
B9B900
ENDCHAR
STARTCHAR uni04E6
ENCODING 1254
SWIDTH 665 0
DWIDTH 11 0
BBX 11 15 0 0
BITMAP
001D74
001D74
000000
01BF80
0A55E0
38F0B4
B2D0B4
A7C0B4
6B80B4
0F40F0
0F41F0
1F02D0
1F0780
0F9F00
06F800
ENDCHAR
STARTCHAR uni04E7
ENCODING 1255
SWIDTH 439 0
DWIDTH 7 0
BBX 10 11 -1 0
BITMAP
01C600
01DB00
000000
02F400
0B9C00
1F1D90
3E1D00
3D1C00
7D2800
3D7000
1F9000
ENDCHAR
STARTCHAR uni04E8
ENCODING 1256
SWIDTH 665 0
DWIDTH 11 0
BBX 11 12 0 0
BITMAP
01BF80
0A55E0
28B4B4
72E0B4
A7D0B4
AB80B4
0FEAF0
0F41F0
1F02D0
1F0380
0F4B00
06F800
ENDCHAR
STARTCHAR uni04E9
ENCODING 1257
SWIDTH 439 0
DWIDTH 7 0
BBX 10 8 -1 0
BITMAP
02F400
0B9C00
1F1D90
3FFD00
3D1C00
7D2800
3D7000
1F9000
ENDCHAR
STARTCHAR uni04EE
ENCODING 1262
SWIDTH 644 0
DWIDTH 10 0
BBX 12 14 0 0
BITMAP
000FFC
000000
02B809
1DB818
74BC24
B07D30
A03DA0
502EC0
001F80
001F40
000E00
004900
02EC00
01E000
ENDCHAR
STARTCHAR uni04EF
ENCODING 1263
SWIDTH 486 0
DWIDTH 8 0
BBX 9 14 0 -4
BITMAP
0FFD00
000000
3D3D00
7C7C00
7C7800
B8B800
F4F400
F5F140
FBF200
BAF800
0BE000
27D000
6BC000
2E4000
ENDCHAR
STARTCHAR uni04F0
ENCODING 1264
SWIDTH 644 0
DWIDTH 10 0
BBX 12 15 0 0
BITMAP
000A28
000A28
000000
02B809
1DB818
74BC24
B07D30
A03DA0
502EC0
001F80
001F40
000E00
004900
02EC00
01E000
ENDCHAR
STARTCHAR uni04F1
ENCODING 1265
SWIDTH 486 0
DWIDTH 8 0
BBX 9 15 0 -4
BITMAP
062800
0B2C00
000000
3D3D00
7C7C00
7C7800
B8B800
F4F400
F5F140
FBF200
BAF800
0BE000
27D000
6BC000
2E4000
ENDCHAR
STARTCHAR uni04F2
ENCODING 1266
SWIDTH 644 0
DWIDTH 10 0
BBX 12 16 0 0
BITMAP
0002CE
000358
000930
000000
02B809
1DB818
74BC24
B07D30
A03DA0
502EC0
001F80
001F40
000E00
004900
02EC00
01E000
ENDCHAR
STARTCHAR uni04F3
ENCODING 1267
SWIDTH 486 0
DWIDTH 8 0
BBX 9 16 0 -4
BITMAP
01DA00
035C00
062400
000000
3D3D00
7C7C00
7C7800
B8B800
F4F400
F5F140
FBF200
BAF800
0BE000
27D000
6BC000
2E4000
ENDCHAR
STARTCHAR uni04F4
ENCODING 1268
SWIDTH 695 0
DWIDTH 11 0
BBX 12 15 0 0
BITMAP
000A24
000E38
000000
02B42D
1EF03D
75F07C
B2E07C
A2E0B8
52E1F4
00BEF4
0001F0
0002E0
0002E0
0003D0
0003C0
ENDCHAR
STARTCHAR uni04F5
ENCODING 1269
SWIDTH 505 0
DWIDTH 8 0
BBX 9 11 0 0
BITMAP
0A2800
0B2800
000000
3D3D00
7C7C00
7C7800
B8B800
BEF400
3EF440
00F640
00B900
ENDCHAR
STARTCHAR uni04F6
ENCODING 1270
SWIDTH 442 0
DWIDTH 7 0
BBX 10 14 0 -2
BITMAP
06FFF0
29FA90
71F000
B2E000
B2E000
13D000
07C000
07C000
0B8000
0F4000
0F4000
1F4000
02F800
01F400
ENDCHAR
STARTCHAR uni04F7
ENCODING 1271
SWIDTH 375 0
DWIDTH 6 0
BBX 8 12 -1 -4
BITMAP
07E0
14F4
11F4
07E0
2F40
7D05
7E64
2F90
0500
0F00
0B00
0500
ENDCHAR
STARTCHAR uni04F8
ENCODING 1272
SWIDTH 909 0
DWIDTH 15 0
BBX 15 15 0 0
BITMAP
0000D740
0001D740
00000000
02B4007C
1EF000B8
75F000B4
B2E000F4
A2E001F0
53FF81F0
07C3D2E0
07C2E3D0
0B82E3D0
0F42D7C0
0F478B80
1F7E0B80
ENDCHAR
STARTCHAR uni04F9
ENCODING 1273
SWIDTH 642 0
DWIDTH 10 0
BBX 11 11 0 0
BITMAP
018600
01DB00
000000
2C0190
7C1BD0
7AE7C0
B8A780
F4AB80
F0DB48
F6CBA4
7E07D0
ENDCHAR
STARTCHAR uni051A
ENCODING 1306
SWIDTH 665 0
DWIDTH 11 0
BBX 11 14 0 -2
BITMAP
01BF80
0A55E0
38F0B4
B2D0B4
A7C0B4
5B80F4
0F40F4
0F41F0
1F03E0
1FABC0
0F6F40
06FE00
000BD0
000140
ENDCHAR
STARTCHAR uni051B
ENCODING 1307
SWIDTH 486 0
DWIDTH 8 0
BBX 9 12 -1 -4
BITMAP
02FF80
0B8F40
1F0F00
3E1F00
3D2E00
7D2D00
3D7D00
1FBC00
007C00
00B800
00F400
009000
ENDCHAR
STARTCHAR uni051C
ENCODING 1308
SWIDTH 962 0
DWIDTH 15 0
BBX 17 12 0 0
BITMAP
02F41F0240
1DF42F0300
74F43F0600
A0F47F0900
E0F4AF0C00
50F4DF1400
00F59F2000
00F65F2000
00FA1F9000
00FD1F8000
00BC1F8000
00B81F4000
ENDCHAR
STARTCHAR uni051D
ENCODING 1309
SWIDTH 661 0
DWIDTH 11 0
BBX 11 8 0 0
BITMAP
3D3D70
7C7C74
7C7824
B8B830
F4F460
F5F4D0
FAFB80
B9BE00
ENDCHAR
STARTCHAR uni0524
ENCODING 1316
SWIDTH 742 0
DWIDTH 12 0
BBX 13 14 0 -2
BITMAP
06FFFF80
2EFAFE00
75F0B800
A2E0F400
A2D0F000
13D1F000
07C2E000
07C2E000
0B83D000
0F47C000
0F47C000
1F0B9000
0001FD00
0000B800
ENDCHAR
STARTCHAR uni0525
ENCODING 1317
SWIDTH 505 0
DWIDTH 8 0
BBX 10 12 -1 -4
BITMAP
0FBD00
1F5E00
1E1E00
2E2E00
3D3D00
3D3C60
7C3E80
B82E40
000800
001E00
001E00
000400
ENDCHAR
STARTCHAR uni1E0C
ENCODING 7692
SWIDTH 663 0
DWIDTH 11 0
BBX 11 16 0 -4
BITMAP
02BE40
1E52D0
75F0F0
A2E0F4
E3D0F4
63D0F4
07C0F0
0B81F0
0B82E0
0F43C0
1F4B40
1FBD00
000000
018000
03D000
02D000
ENDCHAR
STARTCHAR uni1E0D
ENCODING 7693
SWIDTH 525 0
DWIDTH 8 0
BBX 10 15 -1 -4
BITMAP
0002D0
0007C0
000B80
02FB80
0B8F40
1F0F40
3E1F00
3D2E00
7D2E10
3D7E10
1F9F80
000000
024000
0BC000
078000
ENDCHAR
STARTCHAR uni1E20
ENCODING 7712
SWIDTH 578 0
DWIDTH 9 0
BBX 9 18 0 -3
BITMAP
00FFC0
000000
000000
01BE40
0BD2C0
2F02C0
3D0280
7C0000
BC0140
B80780
BC0F40
3D2F00
1BAE00
001E00
0B6D00
287C00
28B400
1BD000
ENDCHAR
STARTCHAR uni1E21
ENCODING 7713
SWIDTH 507 0
DWIDTH 8 0
BBX 10 15 -1 -4
BITMAP
02FF80
000000
000000
02FB80
0B8F40
1F0F00
3E1F00
3D2E00
7D2E10
3D7D50
1FBE80
01BC00
0AB800
0CF400
07D000
ENDCHAR
STARTCHAR uni1E24
ENCODING 7716
SWIDTH 665 0
DWIDTH 11 0
BBX 11 16 0 -4
BITMAP
01B47C
1EF0B8
35F0B8
B2E0F4
A2E0F0
63FFF0
07D6E0
07C2E0
0B83D0
0F47C0
0F47C0
1F0B80
000000
019000
02F000
01E000
ENDCHAR
STARTCHAR uni1E25
ENCODING 7717
SWIDTH 505 0
DWIDTH 8 0
BBX 10 15 -1 -4
BITMAP
07C000
0B8000
0B4000
0FBD00
1F5E00
1E1E00
2E2E00
3D3D00
3D3D10
7C3D50
B82F40
000000
064000
0B8000
074000
ENDCHAR
STARTCHAR uni1E2A
ENCODING 7722
SWIDTH 665 0
DWIDTH 11 0
BBX 11 15 0 -3
BITMAP
01B47C
1EF0B8
35F0B8
B2E0F4
A2E0F0
63FFF0
07D6E0
07C2E0
0B83D0
0F47C0
0F47C0
1F0B80
000000
0A1D00
06E400
ENDCHAR
STARTCHAR uni1E2B
ENCODING 7723
SWIDTH 505 0
DWIDTH 8 0
BBX 10 14 -1 -3
BITMAP
07C000
0B8000
0B4000
0FBD00
1F5E00
1E1E00
2E2E00
3D3D00
3D3D10
7C3D50
B82F40
000000
387400
1B9000
ENDCHAR
STARTCHAR uni1E36
ENCODING 7734
SWIDTH 379 0
DWIDTH 6 0
BBX 11 16 0 -4
BITMAP
02F400
1EF000
71E000
A2E000
A3D000
53C000
07C000
0B8000
0B8000
0F4000
1F0000
1F4000
02E400
197E54
3E0BF4
2D02E0
ENDCHAR
STARTCHAR uni1E37
ENCODING 7735
SWIDTH 293 0
DWIDTH 5 0
BBX 5 15 0 -4
BITMAP
0640
0F40
1F00
2E00
2E00
3D00
7D00
7C00
B840
B880
7E00
0000
A000
F400
B000
ENDCHAR
STARTCHAR uni1E42
ENCODING 7746
SWIDTH 787 0
DWIDTH 13 0
BBX 12 16 1 -4
BITMAP
06F42E
1DF43E
71F47E
A2F4FD
A7F5FD
1AF6BC
0DF7BC
1CFA78
28FDB8
35FCB8
71F8F4
A1F0F4
000000
019000
03E000
02D000
ENDCHAR
STARTCHAR uni1E43
ENCODING 7747
SWIDTH 752 0
DWIDTH 12 0
BBX 14 12 -1 -4
BITMAP
0FBEBD00
1F6F6E00
1E2E2E00
2E2E2E00
3D3D3D00
3D3C3C10
7C7C3C50
B8B82F40
00000000
00A00000
00F40000
00B00000
ENDCHAR
STARTCHAR uni1E44
ENCODING 7748
SWIDTH 668 0
DWIDTH 11 0
BBX 12 15 0 0
BITMAP
0002E0
0001E0
000000
06F40D
2DF81C
71F82C
A2FC28
E3BD38
637D74
076E70
0B1FB0
0A0FE0
0E0FD0
1D0BD0
1C07C0
ENDCHAR
STARTCHAR uni1E45
ENCODING 7749
SWIDTH 505 0
DWIDTH 8 0
BBX 10 12 -1 0
BITMAP
003800
007C00
002800
000000
0FBD00
1F5E00
1E1E00
2E2E00
3D3D00
3D3D10
7C3D50
B82F40
ENDCHAR
STARTCHAR uni1E46
ENCODING 7750
SWIDTH 668 0
DWIDTH 11 0
BBX 12 16 0 -4
BITMAP
06F40D
2DF81C
71F82C
A2FC28
E3BD38
637D74
076E70
0B1FB0
0A0FE0
0E0FD0
1D0BD0
1C07C0
000000
00A000
01F000
01E000
ENDCHAR
STARTCHAR uni1E47
ENCODING 7751
SWIDTH 505 0
DWIDTH 8 0
BBX 10 12 -1 -4
BITMAP
0FBD00
1F5E00
1E1E00
2E2E00
3D3D00
3D3D10
7C3D50
B82F40
000000
024000
0BC000
078000
ENDCHAR
STARTCHAR uni1E5A
ENCODING 7770
SWIDTH 601 0
DWIDTH 10 0
BBX 10 16 0 -4
BITMAP
01BE00
0E42C0
39F1D0
B2E1D0
E3E2C0
A3DB40
57FF40
0BCB80
0B8B80
0F4F40
1F4F00
1F0F00
000000
019000
02E000
01D000
ENDCHAR
STARTCHAR uni1E5B
ENCODING 7771
SWIDTH 376 0
DWIDTH 6 0
BBX 7 12 -1 -4
BITMAP
0FBC
1F6C
1E00
2E00
3D00
3D00
7C00
B800
0000
6400
B800
7400
ENDCHAR
STARTCHAR uni1E60
ENCODING 7776
SWIDTH 570 0
DWIDTH 9 0
BBX 9 15 0 0
BITMAP
001E00
001E00
000000
01BE00
07D380
0B8280
07C240
03E000
01F800
007E00
2F2F00
781F40
741F00
397D00
1BE400
ENDCHAR
STARTCHAR uni1E61
ENCODING 7777
SWIDTH 382 0
DWIDTH 6 0
BBX 8 12 -1 0
BITMAP
00A0
01F4
00A0
0000
02E0
07E0
0AE0
09F0
25F0
75F5
62F4
2F80
ENDCHAR
STARTCHAR uni1E62
ENCODING 7778
SWIDTH 570 0
DWIDTH 9 0
BBX 9 16 0 -4
BITMAP
01BE00
07D380
0B8280
07C240
03E000
01F800
007E00
2F2F00
781F40
741F00
397D00
1BE400
000000
060000
0F4000
0B4000
ENDCHAR
STARTCHAR uni1E63
ENCODING 7779
SWIDTH 382 0
DWIDTH 6 0
BBX 8 12 -1 -4
BITMAP
02E0
07E0
0AE0
09F0
25F0
75F1
62F4
2F80
0000
2800
3D00
2C00
ENDCHAR
STARTCHAR uni1E6C
ENCODING 7788
SWIDTH 481 0
DWIDTH 8 0
BBX 12 16 0 -4
BITMAP
06FE45
297FFD
70BEA8
A0B800
E0F800
A0F400
01F000
02F000
02E000
03D000
07C000
07C000
000000
060000
0F8000
0B4000
ENDCHAR
STARTCHAR uni1E6D
ENCODING 7789
SWIDTH 267 0
DWIDTH 4 0
BBX 6 15 -1 -4
BITMAP
0140
0B80
0B80
1FD0
1F00
1F00
2E00
3D00
3D20
3E90
2E40
0000
6400
B800
7400
ENDCHAR
STARTCHAR Wgrave
ENCODING 7808
SWIDTH 962 0
DWIDTH 15 0
BBX 17 16 0 0
BITMAP
00002C0000
00001C0000
00000D0000
0000000000
02F41F0240
1DF42F0300
74F43F0600
A0F47F0900
E0F4AF0C00
50F4DF1400
00F59F2000
00F65F2000
00FA1F9000
00FD1F8000
00BC1F8000
00B81F4000
ENDCHAR
STARTCHAR wgrave
ENCODING 7809
SWIDTH 661 0
DWIDTH 11 0
BBX 11 12 0 0
BITMAP
00B000
007000
003400
000000
3D3D70
7C7C74
7C7824
B8B830
F4F460
F5F4D0
FAFB80
B9BE00
ENDCHAR
STARTCHAR Wacute
ENCODING 7810
SWIDTH 962 0
DWIDTH 15 0
BBX 17 16 0 0
BITMAP
0000009000
0000028000
0000070000
0000000000
02F41F0240
1DF42F0300
74F43F0600
A0F47F0900
E0F4AF0C00
50F4DF1400
00F59F2000
00F65F2000
00FA1F9000
00FD1F8000
00BC1F8000
00B81F4000
ENDCHAR
STARTCHAR wacute
ENCODING 7811
SWIDTH 661 0
DWIDTH 11 0
BBX 11 12 0 0
BITMAP
000740
000E00
001C00
000400
3D3D70
7C7C74
7C7824
B8B830
F4F460
F5F4D0
FAFB80
B9BE00
ENDCHAR
STARTCHAR Wdieresis
ENCODING 7812
SWIDTH 962 0
DWIDTH 15 0
BBX 17 15 0 0
BITMAP
000075C000
000075D000
0000000000
02F41F0240
1DF42F0300
74F43F0600
A0F47F0900
E0F4AF0C00
50F4DF1400
00F59F2000
00F65F2000
00FA1F9000
00FD1F8000
00BC1F8000
00B81F4000
ENDCHAR
STARTCHAR wdieresis
ENCODING 7813
SWIDTH 661 0
DWIDTH 11 0
BBX 11 11 0 0
BITMAP
01D740
01D740
000000
3D3D70
7C7C74
7C7824
B8B830
F4F460
F5F4D0
FAFB80
B9BE00
ENDCHAR
STARTCHAR uni1E8E
ENCODING 7822
SWIDTH 620 0
DWIDTH 10 0
BBX 11 15 0 0
BITMAP
0002D0
0002D0
000000
02F40C
1DF818
74BC30
A07D60
E03D90
503E80
002F40
002F00
002E00
003E00
007D00
007C00
ENDCHAR
STARTCHAR uni1E8F
ENCODING 7823
SWIDTH 505 0
DWIDTH 8 0
BBX 9 16 0 -4
BITMAP
01E000
02F000
019000
000000
3D3D00
7C7C00
7C7800
B8B800
F4F400
F5F140
FBF200
BAF800
0BE000
27D000
6BC000
2E4000
ENDCHAR
STARTCHAR uni1E92
ENCODING 7826
SWIDTH 542 0
DWIDTH 9 0
BBX 9 20 0 -4
BITMAP
000140
000740
000A00
000400
0BFF80
2C2F00
183E00
00BC00
00F800
02F000
03E000
0BC000
0F8000
2F0600
3E0B00
BFFD00
000000
064000
0F8000
0B4000
ENDCHAR
STARTCHAR uni1E93
ENCODING 7827
SWIDTH 428 0
DWIDTH 7 0
BBX 7 12 0 -4
BITMAP
1FF8
35F0
12D0
07C0
0F40
2E10
3D70
BFE0
0000
2800
7C00
3800
ENDCHAR
STARTCHAR uni1E97
ENCODING 7831
SWIDTH 267 0
DWIDTH 4 0
BBX 6 13 0 0
BITMAP
29D0
39D0
0500
2E00
2E00
7F40
7C00
7C00
B800
F400
F480
FA40
B900
ENDCHAR
STARTCHAR uni1E9E
ENCODING 7838
SWIDTH 559 0
DWIDTH 9 0
BBX 11 16 -1 -4
BITMAP
00BFF4
01E2F0
03D3D0
07CBC0
0B8F40
0B5F00
0F4B40
1F0780
1E07C0
2E07C0
3D0B40
3DFD00
7C0000
780000
B80000
500000
ENDCHAR
STARTCHAR uni1EA0
ENCODING 7840
SWIDTH 668 0
DWIDTH 11 0
BBX 11 16 0 -4
BITMAP
0000BC
0003F8
000DB8
0028F4
0070F4
2FF9F0
B6C2E0
6382E0
0B43D0
0F07C0
1E07C0
2D0B80
2D0000
192800
007D00
003800
ENDCHAR
STARTCHAR uni1EA1
ENCODING 7841
SWIDTH 526 0
DWIDTH 8 0
BBX 10 12 -1 -4
BITMAP
02FB80
0B4F40
1E0F00
3D1F00
3D2E00
7D3E20
3EBE90
1F5F40
000000
024000
0BC000
078000
ENDCHAR
STARTCHAR uni1EA2
ENCODING 7842
SWIDTH 668 0
DWIDTH 11 0
BBX 12 18 0 -2
BITMAP
00003D
000006
000024
000000
0000BC
0003F8
000DB8
0028F4
0070F4
2FF9F0
B6C2E0
6382E0
0B43D0
0F07C0
1E07C0
2D0B80
2D0000
1D0000
ENDCHAR
STARTCHAR uni1EA3
ENCODING 7843
SWIDTH 526 0
DWIDTH 8 0
BBX 10 12 -1 0
BITMAP
002E00
000340
001900
000000
02FB80
0B4F40
1E0F00
3D1F00
3D2E00
7D3E20
3EBE90
1F5F40
ENDCHAR
STARTCHAR uni1EA4
ENCODING 7844
SWIDTH 668 0
DWIDTH 11 0
BBX 14 18 0 -2
BITMAP
00000050
00001C80
00006640
00000000
0000BC00
0003F800
000DB800
0028F400
0070F400
2FF9F000
B6C2E000
6382E000
0B43D000
0F07C000
1E07C000
2D0B8000
2D000000
1D000000
ENDCHAR
STARTCHAR uni1EA5
ENCODING 7845
SWIDTH 526 0
DWIDTH 8 0
BBX 11 14 -1 0
BITMAP
000034
000060
000940
002E00
009200
000000
02FB80
0B4F40
1E0F00
3D1F00
3D2E00
7D3E20
3EBE90
1F5F40
ENDCHAR
STARTCHAR uni1EA6
ENCODING 7846
SWIDTH 668 0
DWIDTH 11 0
BBX 13 18 0 -2
BITMAP
00000180
00001D80
0000A600
00000000
0000BC00
0003F800
000DB800
0028F400
0070F400
2FF9F000
B6C2E000
6382E000
0B43D000
0F07C000
1E07C000
2D0B8000
2D000000
1D000000
ENDCHAR
STARTCHAR uni1EA7
ENCODING 7847
SWIDTH 526 0
DWIDTH 8 0
BBX 10 14 -1 0
BITMAP
000080
000090
000950
002A00
009200
000000
02FB80
0B4F40
1E0F00
3D1F00
3D2E00
7D3E20
3EBE90
1F5F40
ENDCHAR
STARTCHAR uni1EA8
ENCODING 7848
SWIDTH 668 0
DWIDTH 11 0
BBX 14 18 0 -2
BITMAP
000001E0
00001DD0
00006640
00000000
0000BC00
0003F800
000DB800
0028F400
0070F400
2FF9F000
B6C2E000
6382E000
0B43D000
0F07C000
1E07C000
2D0B8000
2D000000
1D000000
ENDCHAR
STARTCHAR uni1EA9
ENCODING 7849
SWIDTH 526 0
DWIDTH 8 0
BBX 10 13 -1 0
BITMAP
0000E0
000990
002A00
009100
000000
02FB80
0B4F40
1E0F00
3D1F00
3D2E00
7D3E20
3EBE90
1F5F40
ENDCHAR
STARTCHAR uni1EAA
ENCODING 7850
SWIDTH 668 0
DWIDTH 11 0
BBX 13 18 0 -2
BITMAP
00001640
00001E00
00006600
00000000
0000BC00
0003F800
000DB800
0028F400
0070F400
2FF9F000
B6C2E000
6382E000
0B43D000
0F07C000
1E07C000
2D0B8000
2D000000
1D000000
ENDCHAR
STARTCHAR uni1EAB
ENCODING 7851
SWIDTH 526 0
DWIDTH 8 0
BBX 10 14 -1 0
BITMAP
001A80
000000
000900
002E00
009200
000000
02FB80
0B4F40
1E0F00
3D1F00
3D2E00
7D3E20
3EBE90
1F5F40
ENDCHAR
STARTCHAR uni1EAC
ENCODING 7852
SWIDTH 668 0
DWIDTH 11 0
BBX 12 20 0 -4
BITMAP
000005
00001E
000066
000041
0000BC
0003F8
000DB8
0028F4
0070F4
2FF9F0
B6C2E0
6382E0
0B43D0
0F07C0
1E07C0
2D0B80
2D0000
192800
007D00
003800
ENDCHAR
STARTCHAR uni1EAD
ENCODING 7853
SWIDTH 526 0
DWIDTH 8 0
BBX 10 16 -1 -4
BITMAP
000900
002E00
009200
000000
02FB80
0B4F40
1E0F00
3D1F00
3D2E00
7D3E20
3EBE90
1F5F40
000000
024000
0BC000
078000
ENDCHAR
STARTCHAR uni1EAE
ENCODING 7854
SWIDTH 668 0
DWIDTH 11 0
BBX 13 18 0 -2
BITMAP
00000500
00000900
0000D680
00006900
0000BC00
0003F800
000DB800
0028F400
0070F400
2FF9F000
B6C2E000
6382E000
0B43D000
0F07C000
1E07C000
2D0B8000
2D000000
1D000000
ENDCHAR
STARTCHAR uni1EAF
ENCODING 7855
SWIDTH 526 0
DWIDTH 8 0
BBX 10 14 -1 0
BITMAP
000100
000A00
000C00
00D680
006900
000000
02FB80
0B4F40
1E0F00
3D1F00
3D2E00
7D3E20
3EBE90
1F5F40
ENDCHAR
STARTCHAR uni1EB0
ENCODING 7856
SWIDTH 668 0
DWIDTH 11 0
BBX 13 18 0 -2
BITMAP
00002800
00001800
0000D280
00006900
0000BC00
0003F800
000DB800
0028F400
0070F400
2FF9F000
B6C2E000
6382E000
0B43D000
0F07C000
1E07C000
2D0B8000
2D000000
1D000000
ENDCHAR
STARTCHAR uni1EB1
ENCODING 7857
SWIDTH 526 0
DWIDTH 8 0
BBX 10 13 -1 0
BITMAP
002800
001800
00C280
006900
000000
02FB80
0B4F40
1E0F00
3D1F00
3D2E00
7D3E20
3EBE90
1F5F40
ENDCHAR
STARTCHAR uni1EB2
ENCODING 7858
SWIDTH 668 0
DWIDTH 11 0
BBX 13 18 0 -2
BITMAP
00001D00
00005D40
0000D640
00007D00
0000BC00
0003F800
000DB800
0028F400
0070F400
2FF9F000
B6C2E000
6382E000
0B43D000
0F07C000
1E07C000
2D0B8000
2D000000
1D000000
ENDCHAR
STARTCHAR uni1EB3
ENCODING 7859
SWIDTH 526 0
DWIDTH 8 0
BBX 10 14 -1 0
BITMAP
001D00
000600
000D00
00D680
006900
000000
02FB80
0B4F40
1E0F00
3D1F00
3D2E00
7D3E20
3EBE90
1F5F40
ENDCHAR
STARTCHAR uni1EB4
ENCODING 7860
SWIDTH 668 0
DWIDTH 11 0
BBX 13 18 0 -2
BITMAP
00001640
00000500
0000D280
00006900
0000BC00
0003F800
000DB800
0028F400
0070F400
2FF9F000
B6C2E000
6382E000
0B43D000
0F07C000
1E07C000
2D0B8000
2D000000
1D000000
ENDCHAR
STARTCHAR uni1EB5
ENCODING 7861
SWIDTH 526 0
DWIDTH 8 0
BBX 10 14 -1 0
BITMAP
001A40
000000
000000
00D280
006A00
000000
02FB80
0B4F40
1E0F00
3D1F00
3D2E00
7D3E20
3EBE90
1F5F40
ENDCHAR
STARTCHAR uni1EB6
ENCODING 7862
SWIDTH 668 0
DWIDTH 11 0
BBX 13 19 0 -4
BITMAP
00014080
0001C280
0000BE00
0000BC00
0003F800
000DB800
0028F400
0070F400
2FF9F000
B6C2E000
6382E000
0B43D000
0F07C000
1E07C000
2D0B8000
2D000000
19280000
007D0000
00380000
ENDCHAR
STARTCHAR uni1EB7
ENCODING 7863
SWIDTH 526 0
DWIDTH 8 0
BBX 10 16 -1 -4
BITMAP
02C1C0
01D280
00BD00
000000
02FB80
0B4F40
1E0F00
3D1F00
3D2E00
7D3E20
3EBE90
1F5F40
000000
024000
0BC000
078000
ENDCHAR
STARTCHAR uni1EB8
ENCODING 7864
SWIDTH 459 0
DWIDTH 7 0
BBX 8 16 0 -4
BITMAP
01B9
0786
0B4A
0F49
0B40
07D0
2F40
7D00
BC00
FC01
BD18
2F90
0000
1900
2E00
1D00
ENDCHAR
STARTCHAR uni1EB9
ENCODING 7865
SWIDTH 384 0
DWIDTH 6 0
BBX 8 12 -1 -4
BITMAP
02F4
0B5C
1E28
3D74
3F90
7D01
3D18
1F90
0000
1900
2F00
1E00
ENDCHAR
STARTCHAR uni1EBA
ENCODING 7866
SWIDTH 459 0
DWIDTH 7 0
BBX 8 16 0 0
BITMAP
002E
0006
0024
0000
01B9
0786
0B4A
0F49
0B40
07D0
2F40
7D00
BC00
FC01
BD18
2F90
ENDCHAR
STARTCHAR uni1EBB
ENCODING 7867
SWIDTH 384 0
DWIDTH 6 0
BBX 8 12 -1 0
BITMAP
00B8
001C
0060
0000
02F4
0B5C
1E28
3D74
3F90
7D01
3D18
1F90
ENDCHAR
STARTCHAR uni1EBC
ENCODING 7868
SWIDTH 459 0
DWIDTH 7 0
BBX 10 15 0 0
BITMAP
00BE90
01AF80
000000
01B900
078600
0B4A00
0F4900
0B4000
07D000
2F4000
7D0000
BC0000
FC0100
BD1800
2F9000
ENDCHAR
STARTCHAR uni1EBD
ENCODING 7869
SWIDTH 384 0
DWIDTH 6 0
BBX 8 11 -1 0
BITMAP
06E9
05B9
0000
02F4
0B5C
1E28
3D74
3F90
7D01
3D18
1F90
ENDCHAR
STARTCHAR uni1EBE
ENCODING 7870
SWIDTH 459 0
DWIDTH 7 0
BBX 10 16 0 0
BITMAP
000090
001980
005600
000000
01B900
078600
0B4A00
0F4900
0B4000
07D000
2F4000
7D0000
BC0000
FC0100
BD1800
2F9000
ENDCHAR
STARTCHAR uni1EBF
ENCODING 7871
SWIDTH 384 0
DWIDTH 6 0
BBX 10 14 -1 0
BITMAP
0000A0
0001C0
001540
007800
014400
000000
02F400
0B5C00
1E2800
3D7400
3F9000
7D0100
3D1800
1F9000
ENDCHAR
STARTCHAR uni1EC0
ENCODING 7872
SWIDTH 459 0
DWIDTH 7 0
BBX 9 16 0 0
BITMAP
000180
001D80
006600
000000
01B900
078600
0B4A00
0F4900
0B4000
07D000
2F4000
7D0000
BC0000
FC0100
BD1800
2F9000
ENDCHAR
STARTCHAR uni1EC1
ENCODING 7873
SWIDTH 384 0
DWIDTH 6 0
BBX 9 14 -1 0
BITMAP
000240
000280
001580
007800
014400
000000
02F400
0B5C00
1E2800
3D7400
3F9000
7D0100
3D1800
1F9000
ENDCHAR
STARTCHAR uni1EC2
ENCODING 7874
SWIDTH 459 0
DWIDTH 7 0
BBX 10 16 0 0
BITMAP
0000E0
001DA0
006640
000000
01B900
078600
0B4A00
0F4900
0B4000
07D000
2F4000
7D0000
BC0000
FC0100
BD1800
2F9000
ENDCHAR
STARTCHAR uni1EC3
ENCODING 7875
SWIDTH 384 0
DWIDTH 6 0
BBX 9 13 -1 0
BITMAP
000380
001640
00B800
014400
000000
02F400
0B5C00
1E2800
3D7400
3F9000
7D0100
3D1800
1F9000
ENDCHAR
STARTCHAR uni1EC4
ENCODING 7876
SWIDTH 459 0
DWIDTH 7 0
BBX 9 16 0 0
BITMAP
002E40
001E00
006600
000000
01B900
078600
0B4A00
0F4900
0B4000
07D000
2F4000
7D0000
BC0000
FC0100
BD1800
2F9000
ENDCHAR
STARTCHAR uni1EC5
ENCODING 7877
SWIDTH 384 0
DWIDTH 6 0
BBX 8 14 -1 0
BITMAP
006A
0000
0014
0078
0144
0000
02F4
0B5C
1E28
3D74
3F90
7D01
3D18
1F90
ENDCHAR
STARTCHAR uni1EC6
ENCODING 7878
SWIDTH 459 0
DWIDTH 7 0
BBX 8 20 0 -4
BITMAP
0004
002D
00A6
0141
01B9
0786
0B4A
0F49
0B40
07D0
2F40
7D00
BC00
FC01
BD18
2F90
0000
1900
2E00
1D00
ENDCHAR
STARTCHAR uni1EC7
ENCODING 7879
SWIDTH 384 0
DWIDTH 6 0
BBX 8 16 -1 -4
BITMAP
0018
00BC
0289
0000
02F4
0B5C
1E28
3D74
3F90
7D01
3D18
1F90
0000
1900
2F00
1E00
ENDCHAR
STARTCHAR uni1EC8
ENCODING 7880
SWIDTH 375 0
DWIDTH 6 0
BBX 8 16 0 0
BITMAP
00B8
000D
0060
0000
02F4
1EF0
75F0
A2E0
E3D0
53D0
07C0
0B80
0B80
0F40
1F00
1F00
ENDCHAR
STARTCHAR uni1EC9
ENCODING 7881
SWIDTH 267 0
DWIDTH 4 0
BBX 5 12 0 0
BITMAP
1F40
0240
0D00
0000
3D00
7C00
7C00
B800
F400
F480
FA40
B900
ENDCHAR
STARTCHAR uni1ECA
ENCODING 7882
SWIDTH 375 0
DWIDTH 6 0
BBX 7 16 0 -4
BITMAP
02F4
1EF0
75F0
A2E0
E3D0
53D0
07C0
0B80
0B80
0F40
1F00
1F00
0000
2800
3D00
2D00
ENDCHAR
STARTCHAR uni1ECB
ENCODING 7883
SWIDTH 267 0
DWIDTH 4 0
BBX 6 15 -1 -4
BITMAP
0780
0BC0
0640
0F40
1F00
1F00
2E00
3D00
3D20
3E90
2E40
0000
6400
B800
7400
ENDCHAR
STARTCHAR uni1ECC
ENCODING 7884
SWIDTH 665 0
DWIDTH 11 0
BBX 11 16 0 -4
BITMAP
01BF80
0A55E0
38F0B4
B2D0B4
A7C0B4
6B80B4
0F40F0
0F41F0
1F02D0
1F0780
0F9F00
06F800
000000
028000
03D000
02C000
ENDCHAR
STARTCHAR uni1ECD
ENCODING 7885
SWIDTH 433 0
DWIDTH 7 0
BBX 10 12 -1 -4
BITMAP
02F400
0F5C00
2E2D90
3D1D00
7D1C00
7C2800
3D7000
1F8000
000000
190000
2F0000
1E0000
ENDCHAR
STARTCHAR uni1ECE
ENCODING 7886
SWIDTH 665 0
DWIDTH 11 0
BBX 11 16 0 0
BITMAP
000B80
0000D0
000640
000000
01BF80
0A55E0
38F0B4
B2D0B4
A7C0B4
6B80B4
0F40F0
0F41F0
1F02D0
1F0780
0F9F00
06F800
ENDCHAR
STARTCHAR uni1ECF
ENCODING 7887
SWIDTH 433 0
DWIDTH 7 0
BBX 10 12 -1 0
BITMAP
007D00
000900
002400
000000
02F400
0F5C00
2E2D90
3D1D00
7D1C00
7C2800
3D7000
1F8000
ENDCHAR
STARTCHAR uni1ED0
ENCODING 7888
SWIDTH 665 0
DWIDTH 11 0
BBX 11 16 0 0
BITMAP
000018
000264
001990
000000
01BF80
0A55E0
38F0B4
B2D0B4
A7C0B4
6B80B4
0F40F0
0F41F0
1F02D0
1F0780
0F9F00
06F800
ENDCHAR
STARTCHAR uni1ED1
ENCODING 7889
SWIDTH 433 0
DWIDTH 7 0
BBX 10 14 -1 0
BITMAP
0000A0
0001C0
001540
007800
014400
000000
02F400
0F5C00
2E2D90
3D1D00
7D1C00
7C2800
3D7000
1F8000
ENDCHAR
STARTCHAR uni1ED2
ENCODING 7890
SWIDTH 665 0
DWIDTH 11 0
BBX 11 16 0 0
BITMAP
000030
0002A4
001880
000000
01BF80
0A55E0
38F0B4
B2D0B4
A7C0B4
6B80B4
0F40F0
0F41F0
1F02D0
1F0780
0F9F00
06F800
ENDCHAR
STARTCHAR uni1ED3
ENCODING 7891
SWIDTH 433 0
DWIDTH 7 0
BBX 10 14 -1 0
BITMAP
000240
000280
001580
007800
014400
000000
02F400
0F5C00
2E2D90
3D1D00
7D1C00
7C2800
3D7000
1F8000
ENDCHAR
STARTCHAR uni1ED4
ENCODING 7892
SWIDTH 665 0
DWIDTH 11 0
BBX 11 16 0 0
BITMAP
00002C
00029C
001990
000000
01BF80
0A55E0
38F0B4
B2D0B4
A7C0B4
6B80B4
0F40F0
0F41F0
1F02D0
1F0780
0F9F00
06F800
ENDCHAR
STARTCHAR uni1ED5
ENCODING 7893
SWIDTH 433 0
DWIDTH 7 0
BBX 10 13 -1 0
BITMAP
000280
001680
007900
018800
000000
02F400
0F5C00
2E2D90
3D1D00
7D1C00
7C2800
3D7000
1F8000
ENDCHAR
STARTCHAR uni1ED6
ENCODING 7894
SWIDTH 665 0
DWIDTH 11 0
BBX 11 16 0 0
BITMAP
0007E0
000290
001980
000000
01BF80
0A55E0
38F0B4
B2D0B4
A7C0B4
6B80B4
0F40F0
0F41F0
1F02D0
1F0780
0F9F00
06F800
ENDCHAR
STARTCHAR uni1ED7
ENCODING 7895
SWIDTH 433 0
DWIDTH 7 0
BBX 10 14 -1 0
BITMAP
001400
000500
001800
007800
014400
000000
02F400
0F5C00
2E2D90
3D1D00
7D1C00
7C2800
3D7000
1F8000
ENDCHAR
STARTCHAR uni1ED8
ENCODING 7896
SWIDTH 665 0
DWIDTH 11 0
BBX 11 20 0 -4
BITMAP
000100
000740
002980
005040
01BF80
0A55E0
38F0B4
B2D0B4
A7C0B4
6B80B4
0F40F0
0F41F0
1F02D0
1F0780
0F9F00
06F800
000000
028000
03D000
02C000
ENDCHAR
STARTCHAR uni1ED9
ENCODING 7897
SWIDTH 433 0
DWIDTH 7 0
BBX 10 16 -1 -4
BITMAP
002400
00B800
024800
000000
02F400
0F5C00
2E2D90
3D1D00
7D1C00
7C2800
3D7000
1F8000
000000
190000
2F0000
1E0000
ENDCHAR
STARTCHAR uni1EDA
ENCODING 7898
SWIDTH 665 0
DWIDTH 11 0
BBX 12 16 0 0
BITMAP
0001D0
000380
00070D
00000D
01BF9C
0A55F4
38F0B4
B2D0B4
A7C0B4
6B80B4
0F40F4
0F41F0
1F02D0
1F07C0
0F9F00
06F800
ENDCHAR
STARTCHAR uni1EDB
ENCODING 7899
SWIDTH 439 0
DWIDTH 7 0
BBX 8 12 0 0
BITMAP
0074
00A0
01CA
000A
0BEC
2E74
BC34
F870
F470
F4A0
F5C0
7E00
ENDCHAR
STARTCHAR uni1EDC
ENCODING 7900
SWIDTH 665 0
DWIDTH 11 0
BBX 12 16 0 0
BITMAP
003800
002800
001C0E
00000D
01BF9C
0A55F4
38F0B4
B2D0B4
A7C0B4
6B80B4
0F40F4
0F41F0
1F02D0
1F07C0
0F9F00
06F800
ENDCHAR
STARTCHAR uni1EDD
ENCODING 7901
SWIDTH 439 0
DWIDTH 7 0
BBX 8 12 0 0
BITMAP
0380
0280
01CA
000A
0BEC
2E74
BC34
F870
F470
F4A0
F5C0
7E00
ENDCHAR
STARTCHAR uni1EDE
ENCODING 7902
SWIDTH 665 0
DWIDTH 11 0
BBX 12 16 0 0
BITMAP
000B80
0000D0
00064D
00000D
01BF9C
0A55F4
38F0B4
B2D0B4
A7C0B4
6B80B4
0F40F4
0F41F0
1F02D0
1F07C0
0F9F00
06F800
ENDCHAR
STARTCHAR uni1EDF
ENCODING 7903
SWIDTH 439 0
DWIDTH 7 0
BBX 8 12 0 0
BITMAP
01F4
0024
009A
000A
0BEC
2E74
BC34
F870
F470
F4A0
F5C0
7E00
ENDCHAR
STARTCHAR uni1EE0
ENCODING 7904
SWIDTH 665 0
DWIDTH 11 0
BBX 12 15 0 0
BITMAP
001500
006F8D
00000D
01BF9C
0A55F4
38F0B4
B2D0B4
A7C0B4
6B80B4
0F40F4
0F41F0
1F02D0
1F07C0
0F9F00
06F800
ENDCHAR
STARTCHAR uni1EE1
ENCODING 7905
SWIDTH 439 0
DWIDTH 7 0
BBX 8 11 0 0
BITMAP
0B91
169A
000A
0BEC
2D74
BC34
F470
F470
F4E0
FAC0
7E00
ENDCHAR
STARTCHAR uni1EE2
ENCODING 7906
SWIDTH 665 0
DWIDTH 11 0
BBX 12 18 0 -4
BITMAP
000005
00000E
01BF9C
0A55F4
38F0B4
B2D0B4
A7C0B4
6B80B4
0F40F4
0F41F0
1F02D0
1F07C0
0F9F00
06F800
000000
028000
03D000
02C000
ENDCHAR
STARTCHAR uni1EE3
ENCODING 7907
SWIDTH 439 0
DWIDTH 7 0
BBX 8 14 0 -4
BITMAP
0005
000A
0BED
2E74
BC34
F870
F470
F4A0
F5C0
7E00
0000
6400
BC00
7800
ENDCHAR
STARTCHAR uni1EE4
ENCODING 7908
SWIDTH 716 0
DWIDTH 11 0
BBX 12 16 0 -4
BITMAP
02B81F
1DF41E
70F02E
E1E03D
D2E03C
53D07C
03C0B8
0780F4
0B81F0
0B82E0
07EBC0
02FE00
000000
00A000
01F400
00E000
ENDCHAR
STARTCHAR uni1EE5
ENCODING 7909
SWIDTH 505 0
DWIDTH 8 0
BBX 9 12 0 -4
BITMAP
3D3D00
7C7C00
7C7800
B8B800
F4F400
F5F440
FAFA00
B9B900
000000
040000
2E0000
1D0000
ENDCHAR
STARTCHAR uni1EE6
ENCODING 7910
SWIDTH 716 0
DWIDTH 11 0
BBX 12 16 0 0
BITMAP
0001F4
000024
0000D0
000000
02B81F
1DF41E
70F02E
E1E03D
D2E03C
53D07C
03C0B8
0780F4
0B81F0
0B82E0
07EBC0
02FE00
ENDCHAR
STARTCHAR uni1EE7
ENCODING 7911
SWIDTH 505 0
DWIDTH 8 0
BBX 9 12 0 0
BITMAP
02E000
003000
018000
000000
3D3D00
7C7C00
7C7800
B8B800
F4F400
F5F440
FAFA00
B9B900
ENDCHAR
STARTCHAR uni1EE8
ENCODING 7912
SWIDTH 716 0
DWIDTH 11 0
BBX 14 16 0 0
BITMAP
00003800
000070A0
000090A0
000000D0
02B81F40
1DF41E00
70F02E00
E1E03D00
D2E03C00
53D07C00
03C0B800
0780F400
0B81F000
0B82E000
07EBC000
02FE0000
ENDCHAR
STARTCHAR uni1EE9
ENCODING 7913
SWIDTH 505 0
DWIDTH 8 0
BBX 9 12 0 0
BITMAP
003800
007140
00D280
000340
3D3D00
7C7C00
7C7800
B8B800
F4F400
F5F440
FAFA00
B9B900
ENDCHAR
STARTCHAR uni1EEA
ENCODING 7914
SWIDTH 716 0
DWIDTH 11 0
BBX 14 16 0 0
BITMAP
00074000
00034060
000280A0
000000D0
02B81F40
1DF41E00
70F02E00
E1E03D00
D2E03C00
53D07C00
03C0B800
0780F400
0B81F000
0B82E000
07EBC000
02FE0000
ENDCHAR
STARTCHAR uni1EEB
ENCODING 7915
SWIDTH 505 0
DWIDTH 8 0
BBX 9 12 0 0
BITMAP
038000
02C140
01C280
000340
3D3D00
7C7C00
7C7800
B8B800
F4F400
F5F440
FAFA00
B9B900
ENDCHAR
STARTCHAR uni1EEC
ENCODING 7916
SWIDTH 716 0
DWIDTH 11 0
BBX 14 16 0 0
BITMAP
0001F400
00002460
0000D0B0
000000D0
02B81F80
1DF41E00
70F02E00
E1E03D00
D2E03C00
53D07C00
03C0B800
0780F400
0B81F000
0B82E000
07EBC000
02FE0000
ENDCHAR
STARTCHAR uni1EED
ENCODING 7917
SWIDTH 505 0
DWIDTH 8 0
BBX 9 12 0 0
BITMAP
02E000
003000
018280
000340
3D3E00
7C7C00
7C7C00
B8B800
F4F400
F5F440
FAFA00
B9B900
ENDCHAR
STARTCHAR uni1EEE
ENCODING 7918
SWIDTH 716 0
DWIDTH 11 0
BBX 14 15 0 0
BITMAP
0007D160
001AF8A0
000000D0
02B81F40
1DF41E00
70F02E00
E1E03D00
D2E03C00
53D07C00
03C0B800
0780F400
0B81F000
0B82E000
07EBC000
02FE0000
ENDCHAR
STARTCHAR uni1EEF
ENCODING 7919
SWIDTH 505 0
DWIDTH 8 0
BBX 9 11 0 0
BITMAP
07E540
05A280
000340
3D3D00
7C7C00
7C7800
B8B800
F4F400
F5F440
FAFA00
B9B900
ENDCHAR
STARTCHAR uni1EF0
ENCODING 7920
SWIDTH 716 0
DWIDTH 11 0
BBX 14 19 0 -4
BITMAP
00000050
000000B0
000000A0
02B81F80
1DF41F00
70F02E00
E1E03D00
D2E03D00
53D07C00
03C0B800
0780F400
0B81F000
0B82E000
07EBC000
02FE0000
00000000
00A00000
01F40000
00E00000
ENDCHAR
STARTCHAR uni1EF1
ENCODING 7921
SWIDTH 505 0
DWIDTH 8 0
BBX 9 14 0 -4
BITMAP
000280
000280
3D3E00
7C7C00
7C7C00
B8B800
F4F400
F5F440
FAFA00
B9B900
000000
040000
2E0000
1D0000
ENDCHAR
STARTCHAR Ygrave
ENCODING 7922
SWIDTH 620 0
DWIDTH 10 0
BBX 11 16 0 0
BITMAP
000380
000280
000180
000000
02F40C
1DF818
74BC30
A07D60
E03D90
503E80
002F40
002F00
002E00
003E00
007D00
007C00
ENDCHAR
STARTCHAR ygrave
ENCODING 7923
SWIDTH 505 0
DWIDTH 8 0
BBX 9 16 0 -4
BITMAP
038000
028000
01C000
000000
3D3D00
7C7C00
7C7800
B8B800
F4F400
F5F140
FBF200
BAF800
0BE000
27D000
6BC000
2E4000
ENDCHAR
STARTCHAR uni1EF4
ENCODING 7924
SWIDTH 620 0
DWIDTH 10 0
BBX 11 16 0 -4
BITMAP
02F40C
1DF818
74BC30
A07D60
E03D90
503E80
002F40
002F00
002E00
003E00
007D00
007C00
000000
006000
00F800
00B400
ENDCHAR
STARTCHAR uni1EF5
ENCODING 7925
SWIDTH 505 0
DWIDTH 8 0
BBX 9 12 0 -4
BITMAP
3D3D00
7C7C00
7C7800
B8B800
F4F400
F5F140
FBF200
BAF800
0BE000
27D000
6BDD00
2E5D00
ENDCHAR
STARTCHAR uni1EF6
ENCODING 7926
SWIDTH 620 0
DWIDTH 10 0
BBX 11 16 0 0
BITMAP
0001F4
000024
0000D0
000000
02F40C
1DF818
74BC30
A07D60
E03D90
503E80
002F40
002F00
002E00
003E00
007D00
007C00
ENDCHAR
STARTCHAR uni1EF7
ENCODING 7927
SWIDTH 505 0
DWIDTH 8 0
BBX 9 16 0 -4
BITMAP
02E000
003000
018000
000000
3D3D00
7C7C00
7C7800
B8B800
F4F400
F5F140
FBF200
BAF800
0BE000
27D000
6BC000
2E4000
ENDCHAR
STARTCHAR uni1EF8
ENCODING 7928
SWIDTH 620 0
DWIDTH 10 0
BBX 11 15 0 0
BITMAP
000540
001AF4
000000
02F40C
1DF818
74BC30
A07D60
E03D90
503E80
002F40
002F00
002E00
003E00
007D00
007C00
ENDCHAR
STARTCHAR uni1EF9
ENCODING 7929
SWIDTH 505 0
DWIDTH 8 0
BBX 9 15 0 -4
BITMAP
0BE900
15A800
000000
3D3D00
7C7C00
7C7800
B8B800
F4F400
F5F140
FBF200
BAF800
0BE000
27D000
6BC000
2E4000
ENDCHAR
STARTCHAR uni2010
ENCODING 8208
SWIDTH 290 0
DWIDTH 5 0
BBX 4 1 0 4
BITMAP
BE
ENDCHAR
STARTCHAR endash
ENCODING 8211
SWIDTH 352 0
DWIDTH 6 0
BBX 5 1 0 4
BITMAP
BF80
ENDCHAR
STARTCHAR emdash
ENCODING 8212
SWIDTH 444 0
DWIDTH 7 0
BBX 6 1 0 4
BITMAP
BFF0
ENDCHAR
STARTCHAR quoteleft
ENCODING 8216
SWIDTH 209 0
DWIDTH 3 0
BBX 3 4 1 8
BITMAP
04
30
78
74
ENDCHAR
STARTCHAR quoteright
ENCODING 8217
SWIDTH 238 0
DWIDTH 4 0
BBX 3 4 1 8
BITMAP
74
78
20
50
ENDCHAR
STARTCHAR quotesinglbase
ENCODING 8218
SWIDTH 220 0
DWIDTH 4 0
BBX 2 4 0 -2
BITMAP
E0
F0
90
40
ENDCHAR
STARTCHAR quotedblleft
ENCODING 8220
SWIDTH 429 0
DWIDTH 7 0
BBX 6 4 1 8
BITMAP
0410
3080
79E0
75E0
ENDCHAR
STARTCHAR quotedblright
ENCODING 8221
SWIDTH 426 0
DWIDTH 7 0
BBX 5 4 2 8
BITMAP
E380
F3C0
9240
4100
ENDCHAR
STARTCHAR quotedblbase
ENCODING 8222
SWIDTH 440 0
DWIDTH 7 0
BBX 5 4 0 -2
BITMAP
E2C0
F3C0
9180
4100
ENDCHAR
STARTCHAR dagger
ENCODING 8224
SWIDTH 495 0
DWIDTH 8 0
BBX 7 16 1 -4
BITMAP
01C0
0180
0280
0340
0300
6BA4
BFF0
0900
0D00
0C00
1800
2800
2400
3400
7000
6000
ENDCHAR
STARTCHAR daggerdbl
ENCODING 8225
SWIDTH 495 0
DWIDTH 8 0
BBX 8 16 0 -4
BITMAP
0070
0060
00A0
00D0
00C0
1AE9
2FFC
0240
0340
7FF8
7FF4
0600
0900
0D00
0C00
1800
ENDCHAR
STARTCHAR bullet
ENCODING 8226
SWIDTH 434 0
DWIDTH 7 0
BBX 3 3 2 3
BITMAP
B8
FC
B8
ENDCHAR
STARTCHAR ellipsis
ENCODING 8230
SWIDTH 702 0
DWIDTH 11 0
BBX 11 3 0 0
BITMAP
246464
7CB8B8
787474
ENDCHAR
STARTCHAR perthousand
ENCODING 8240
SWIDTH 1175 0
DWIDTH 19 0
BBX 19 12 0 0
BITMAP
07D0340000
1DA0600000
38B0C00000
34A2800000
74E3000000
35C92E02E0
2E5CB34B38
0025D38D38
0061C35D38
00D2C75C74
0181CA1CA0
0300B80B80
ENDCHAR
STARTCHAR minute
ENCODING 8242
SWIDTH 196 0
DWIDTH 3 0
BBX 3 4 1 8
BITMAP
38
74
60
90
ENDCHAR
STARTCHAR second
ENCODING 8243
SWIDTH 341 0
DWIDTH 5 0
BBX 5 4 1 8
BITMAP
3AC0
7780
6300
9600
ENDCHAR
STARTCHAR guilsinglleft
ENCODING 8249
SWIDTH 359 0
DWIDTH 6 0
BBX 6 6 0 1
BITMAP
0090
0A00
6400
6400
0A00
0140
ENDCHAR
STARTCHAR guilsinglright
ENCODING 8250
SWIDTH 344 0
DWIDTH 6 0
BBX 5 6 0 1
BITMAP
2400
0A00
01C0
0680
6900
4000
ENDCHAR
STARTCHAR fraction
ENCODING 8260
SWIDTH 248 0
DWIDTH 4 0
BBX 8 12 -2 0
BITMAP
0007
0009
0018
0034
0060
00C0
0280
0300
0900
1C00
2400
6000
ENDCHAR
STARTCHAR uni2052
ENCODING 8274
SWIDTH 796 0
DWIDTH 13 0
BBX 9 12 2 0
BITMAP
740340
B80600
640C00
002800
003000
009000
01C000
024000
060000
0D0500
180F40
300B00
ENDCHAR
STARTCHAR uni2070
ENCODING 8304
SWIDTH 379 0
DWIDTH 6 0
BBX 6 7 0 5
BITMAP
07D0
1DA0
38B0
34A0
74E0
35C0
2E40
ENDCHAR
STARTCHAR uni2074
ENCODING 8308
SWIDTH 352 0
DWIDTH 6 0
BBX 5 7 1 5
BITMAP
3640
3700
5B00
AF00
0D00
0D00
0400
ENDCHAR
STARTCHAR uni2075
ENCODING 8309
SWIDTH 335 0
DWIDTH 5 0
BBX 4 7 1 5
BITMAP
3F
60
50
BE
9B
CB
B8
ENDCHAR
STARTCHAR uni2076
ENCODING 8310
SWIDTH 351 0
DWIDTH 6 0
BBX 6 7 0 5
BITMAP
07D0
1D90
3800
3B80
75D0
35C0
2E40
ENDCHAR
STARTCHAR uni2077
ENCODING 8311
SWIDTH 329 0
DWIDTH 5 0
BBX 4 7 1 5
BITMAP
FF
09
18
70
E0
D0
50
ENDCHAR
STARTCHAR uni2078
ENCODING 8312
SWIDTH 354 0
DWIDTH 6 0
BBX 5 7 1 5
BITMAP
2E00
7640
3A00
2E00
D740
D700
BD00
ENDCHAR
STARTCHAR uni2079
ENCODING 8313
SWIDTH 345 0
DWIDTH 6 0
BBX 5 7 1 5
BITMAP
2E00
A740
D340
D740
BB00
8D00
A400
ENDCHAR
STARTCHAR uni2080
ENCODING 8320
SWIDTH 379 0
DWIDTH 6 0
BBX 6 7 0 0
BITMAP
07D0
1DA0
38B0
34A0
74E0
35C0
2E40
ENDCHAR
STARTCHAR uni2081
ENCODING 8321
SWIDTH 229 0
DWIDTH 4 0
BBX 4 7 0 0
BITMAP
05
3D
1C
28
28
34
74
ENDCHAR
STARTCHAR uni2082
ENCODING 8322
SWIDTH 328 0
DWIDTH 5 0
BBX 4 7 1 0
BITMAP
2E
9B
5B
0D
24
90
FE
ENDCHAR
STARTCHAR uni2083
ENCODING 8323
SWIDTH 336 0
DWIDTH 5 0
BBX 4 7 1 0
BITMAP
2E
67
27
0D
97
CB
A9
ENDCHAR
STARTCHAR uni2084
ENCODING 8324
SWIDTH 352 0
DWIDTH 6 0
BBX 5 7 1 0
BITMAP
3240
3740
7700
9A00
AF00
0D00
1D00
ENDCHAR
STARTCHAR uni2085
ENCODING 8325
SWIDTH 335 0
DWIDTH 5 0
BBX 4 7 1 0
BITMAP
3F
60
50
BE
9B
CB
B8
ENDCHAR
STARTCHAR uni2086
ENCODING 8326
SWIDTH 351 0
DWIDTH 6 0
BBX 6 7 0 0
BITMAP
07D0
1D90
3800
3B80
75D0
35C0
2E40
ENDCHAR
STARTCHAR uni2087
ENCODING 8327
SWIDTH 329 0
DWIDTH 5 0
BBX 4 7 1 0
BITMAP
FF
09
18
30
A0
D0
90
ENDCHAR
STARTCHAR uni2088
ENCODING 8328
SWIDTH 354 0
DWIDTH 6 0
BBX 5 7 1 0
BITMAP
2F00
7640
3A00
2E00
D740
D700
BD00
ENDCHAR
STARTCHAR uni2089
ENCODING 8329
SWIDTH 345 0
DWIDTH 6 0
BBX 5 7 1 0
BITMAP
2E00
D740
D740
B740
0700
4900
A800
ENDCHAR
STARTCHAR colonmonetary
ENCODING 8353
SWIDTH 384 0
DWIDTH 6 0
BBX 7 11 0 0
BITMAP
0160
02F4
0928
3834
B400
B000
F000
B850
2FD0
2200
2600
ENDCHAR
STARTCHAR franc
ENCODING 8355
SWIDTH 529 0
DWIDTH 8 0
BBX 9 12 0 0
BITMAP
01FFC0
01F000
02E000
02E000
03D000
07FD00
07C000
0B8000
BFF400
0F4000
1F0000
1F0000
ENDCHAR
STARTCHAR lira
ENCODING 8356
SWIDTH 455 0
DWIDTH 7 0
BBX 9 12 0 0
BITMAP
007E00
01E740
03C700
07C000
0B8000
7FF800
BFF400
1F0000
1E0000
2D0100
7FFE00
BFFD00
ENDCHAR
STARTCHAR uni20A6
ENCODING 8358
SWIDTH 723 0
DWIDTH 12 0
BBX 13 12 0 0
BITMAP
00F40D00
01F41D00
01F82C00
02FC2800
03BC3800
6BFFFE40
076E7000
BFFFFF00
0A1FE000
0E0FD000
1D0BC000
1C0BC000
ENDCHAR
STARTCHAR uni20A9
ENCODING 8361
SWIDTH 841 0
DWIDTH 13 0
BBX 15 12 0 0
BITMAP
0F80F028
0F82F030
0F83F060
0B87F090
0B8AF0C0
6FEEFBE8
0B98F200
BFFFFFF4
0BA0F900
0BE0FC00
0BD0F800
0BC0F400
ENDCHAR
STARTCHAR Euro
ENCODING 8364
SWIDTH 507 0
DWIDTH 8 0
BBX 10 12 0 0
BITMAP
002F80
00F1D0
03D1D0
0782C0
0F8000
7FFE00
1F4000
BFFD00
1F0000
1F4100
0FFE00
06F800
ENDCHAR
STARTCHAR uni20AE
ENCODING 8366
SWIDTH 481 0
DWIDTH 8 0
BBX 12 12 0 0
BITMAP
06FE45
297FFD
70BCA8
A0B800
E0F800
A0F540
1AFA40
2AF640
1BE500
53D000
03C000
07C000
ENDCHAR
STARTCHAR uni20B3
ENCODING 8371
SWIDTH 573 0
DWIDTH 9 0
BBX 10 12 0 0
BITMAP
02BE00
1D03C0
75F1D0
A2E1D0
E2D2D0
A3D3C0
07CB40
2FF800
3FF800
0F4000
1F0000
1F0000
ENDCHAR
STARTCHAR uni20B4
ENCODING 8372
SWIDTH 570 0
DWIDTH 9 0
BBX 9 12 0 0
BITMAP
02FE00
0E0B40
1D0B40
041E00
3FFF80
01D000
7FFF40
1E0000
3C2E00
7C0F00
3D1E00
1BF800
ENDCHAR
STARTCHAR uni20B8
ENCODING 8376
SWIDTH 522 0
DWIDTH 8 0
BBX 12 12 0 0
BITMAP
2FFFFF
000000
06FFFE
2D3EA9
747C00
F07C00
B0B800
10F400
00F400
01F000
02E000
02D000
ENDCHAR
STARTCHAR uni20B9
ENCODING 8377
SWIDTH 544 0
DWIDTH 9 0
BBX 9 12 1 0
BITMAP
6BFA40
AAFE00
00F000
01E000
07C000
BF4000
07D000
03D000
03C000
07C000
0B8000
078000
ENDCHAR
STARTCHAR uni20BA
ENCODING 8378
SWIDTH 455 0
DWIDTH 7 0
BBX 9 12 0 0
BITMAP
02E000
02E000
03D400
07F800
1FC400
5BE800
2F8500
1F4340
1F0740
1F0B00
2E7D00
2F9000
ENDCHAR
STARTCHAR uni20BD
ENCODING 8381
SWIDTH 573 0
DWIDTH 9 0
BBX 10 12 0 0
BITMAP
02BE00
1D03C0
75F1D0
A2E1D0
E2D2D0
A3D3C0
07DB40
3FF800
7FF000
0F4000
1F0000
1F0000
ENDCHAR
STARTCHAR uni2116
ENCODING 8470
SWIDTH 996 0
DWIDTH 16 0
BBX 16 12 0 0
BITMAP
06F40D00
2EF81D2D
75F82CA6
B2FC29D6
E2FD39C5
A3BD75D8
176E70F4
071FB3FC
0B0FE154
0E0FD000
0D0BD000
1C07C000
ENDCHAR
STARTCHAR uni2120
ENCODING 8480
SWIDTH 585 0
DWIDTH 9 0
BBX 8 5 1 7
BITMAP
1511
256A
1CA9
66B9
2914
ENDCHAR
STARTCHAR trademark
ENCODING 8482
SWIDTH 379 0
DWIDTH 6 0
BBX 7 4 -1 7
BITMAP
1A48
58D8
14A8
21A4
ENDCHAR
STARTCHAR uni2126
ENCODING 8486
SWIDTH 745 0
DWIDTH 12 0
BBX 12 13 0 -1
BITMAP
002FE0
01E5B8
03802C
0A001C
0D001D
1C001C
2C0028
1C0034
1C0060
0D01C0
070640
7F4FF4
150550
ENDCHAR
STARTCHAR uni212A
ENCODING 8490
SWIDTH 601 0
DWIDTH 10 0
BBX 11 12 0 0
BITMAP
02F474
1EF1D0
75E340
A2EA00
E3E800
53FE00
07CB80
0B8780
0B8B40
0F4F40
1F1F00
1F0F00
ENDCHAR
STARTCHAR uni212B
ENCODING 8491
SWIDTH 668 0
DWIDTH 11 0
BBX 12 16 0 -2
BITMAP
000019
000021
00002C
0002FC
0009B8
0028F4
0070F4
2FF9F0
B6C6E0
A382E0
0B43D0
0F03C0
1E07C0
2D0B80
2D0100
1D0000
ENDCHAR
STARTCHAR estimated
ENCODING 8494
SWIDTH 786 0
DWIDTH 13 0
BBX 12 12 0 0
BITMAP
01BF80
0741B4
1E003C
3E003E
7E003F
7FFFFF
7E0000
7E0000
3E0000
1E0010
0740B0
01BE80
ENDCHAR
STARTCHAR uni2153
ENCODING 8531
SWIDTH 733 0
DWIDTH 12 0
BBX 11 12 1 0
BITMAP
140340
F40600
700D00
A02800
A03000
D091F0
C1C328
024174
0600A0
0D0634
180934
340690
ENDCHAR
STARTCHAR uni2154
ENCODING 8532
SWIDTH 852 0
DWIDTH 14 0
BBX 13 12 1 0
BITMAP
2E003400
9B00A000
5B00C000
0D028000
24070000
90092E00
FE1C3340
00342740
00600900
00D09740
0280D740
03006900
ENDCHAR
STARTCHAR oneeighth
ENCODING 8539
SWIDTH 741 0
DWIDTH 12 0
BBX 11 12 1 0
BITMAP
140340
F40600
700D00
A02800
A03000
D091F4
C1C398
0242A4
0602E0
0D0974
180D34
3407E0
ENDCHAR
STARTCHAR threeeighths
ENCODING 8540
SWIDTH 828 0
DWIDTH 13 0
BBX 12 12 1 0
BITMAP
2E0060
6700C0
160280
0D0300
D70900
CB1C2E
6824B3
006079
00D07C
01818E
03028A
0A00B8
ENDCHAR
STARTCHAR fiveeighths
ENCODING 8541
SWIDTH 827 0
DWIDTH 13 0
BBX 12 12 1 0
BITMAP
3F0060
6000C0
500280
BE0700
9B0900
CB1C2E
B824B3
006079
00D07C
01818E
03028A
0A00B8
ENDCHAR
STARTCHAR seveneighths
ENCODING 8542
SWIDTH 761 0
DWIDTH 12 0
BBX 11 12 1 0
BITMAP
FF0280
090300
180900
701C00
E02400
D061B8
50D28C
0181E4
0301F0
0A0638
0C0A28
2402E0
ENDCHAR
STARTCHAR partialdiff
ENCODING 8706
SWIDTH 597 0
DWIDTH 10 0
BBX 10 13 0 -1
BITMAP
007F40
0096C0
0000D0
0000D0
0000D0
02FDD0
0E57C0
280280
700340
700A00
386800
1FE000
010000
ENDCHAR
STARTCHAR uni2206
ENCODING 8710
SWIDTH 619 0
DWIDTH 10 0
BBX 10 13 0 -1
BITMAP
000A00
001F40
003B40
007380
00D380
0282C0
0742C0
0A01D0
1C01D0
3801E0
B000E0
BFFFE0
155540
ENDCHAR
STARTCHAR product
ENCODING 8719
SWIDTH 661 0
DWIDTH 11 0
BBX 11 13 0 -1
BITMAP
7FFFF4
1A5750
0A0700
0D0A00
0C0900
1C0D00
281C00
281C00
342800
703400
703400
A07000
001000
ENDCHAR
STARTCHAR summation
ENCODING 8721
SWIDTH 605 0
DWIDTH 10 0
BBX 10 13 0 -1
BITMAP
07FFE0
075540
028000
01D000
00B000
007400
007400
01D000
078000
0E0000
380000
7FFE00
155400
ENDCHAR
STARTCHAR minus
ENCODING 8722
SWIDTH 471 0
DWIDTH 8 0
BBX 7 2 0 4
BITMAP
7FF4
1550
ENDCHAR
STARTCHAR uni2215
ENCODING 8725
SWIDTH 488 0
DWIDTH 8 0
BBX 8 12 0 0
BITMAP
000A
001C
0024
0070
0090
0180
0340
0A00
0C00
2800
7000
9000
ENDCHAR
STARTCHAR uni2219
ENCODING 8729
SWIDTH 434 0
DWIDTH 7 0
BBX 3 3 2 3
BITMAP
B8
FC
B8
ENDCHAR
STARTCHAR radical
ENCODING 8730
SWIDTH 660 0
DWIDTH 11 0
BBX 10 12 0 0
BITMAP
000BF0
000E50
001C00
002800
003400
007000
009000
B8C000
2A8000
1F4000
1F0000
090000
ENDCHAR
STARTCHAR infinity
ENCODING 8734
SWIDTH 833 0
DWIDTH 13 0
BBX 12 5 0 2
BITMAP
0BD0BD
29B75E
702D0A
74AA1D
2F83F4
ENDCHAR
STARTCHAR integral
ENCODING 8747
SWIDTH 305 0
DWIDTH 5 0
BBX 8 16 -2 -3
BITMAP
001F
0034
0070
00A0
00A0
00D0
00D0
01C0
0280
0280
0340
0700
0700
0A00
0D00
7800
ENDCHAR
STARTCHAR approxequal
ENCODING 8776
SWIDTH 441 0
DWIDTH 7 0
BBX 7 5 0 2
BITMAP
2F90
15BC
0000
7E44
56F4
ENDCHAR
STARTCHAR notequal
ENCODING 8800
SWIDTH 500 0
DWIDTH 8 0
BBX 8 8 0 1
BITMAP
0080
0080
2FFD
2BE8
0240
2BA8
7FF8
0500
ENDCHAR
STARTCHAR lessequal
ENCODING 8804
SWIDTH 405 0
DWIDTH 6 0
BBX 7 9 0 1
BITMAP
0014
01B4
1B40
3D00
0B80
0090
0000
FFE0
5540
ENDCHAR
STARTCHAR greaterequal
ENCODING 8805
SWIDTH 405 0
DWIDTH 6 0
BBX 7 9 0 1
BITMAP
0400
0F40
01E0
01F4
1F40
3400
0000
BFF0
5540
ENDCHAR
STARTCHAR lozenge
ENCODING 9674
SWIDTH 619 0
DWIDTH 10 0
BBX 8 12 1 0
BITMAP
00F0
02B4
0B2C
1D1D
740A
E007
D00B
A01C
7074
34D0
2A80
1E00
ENDCHAR
STARTCHAR uni27E8
ENCODING 10216
SWIDTH 456 0
DWIDTH 7 0
BBX 6 16 1 -2
BITMAP
0010
0060
0080
0240
0A00
1800
3000
9000
C000
9000
2000
1800
0900
0300
0180
0090
ENDCHAR
STARTCHAR uni27E9
ENCODING 10217
SWIDTH 456 0
DWIDTH 7 0
BBX 7 16 0 -2
BITMAP
2000
1800
0900
0200
0180
0090
0060
0024
0030
0090
0180
0600
0800
2400
6000
8000
ENDCHAR
STARTCHAR ff
ENCODING 64256
SWIDTH 508 0
DWIDTH 8 0
BBX 14 16 -4 -4
BITMAP
0007EBD0
001F2F20
002E2E00
002D3D00
003FFF80
007C7C00
007C7C00
00B8B800
00F8F400
00F4F400
01F1F000
02F6E000
1BE2E000
36D3D000
63D7C000
2FAE4000
ENDCHAR
STARTCHAR fi
ENCODING 64257
SWIDTH 534 0
DWIDTH 9 0
BBX 13 16 -4 -4
BITMAP
0002F900
000F4E00
001E1E00
002E0000
003FAE00
007D3D00
007C7C00
00B87C00
00F8B800
00F4B880
01F0BA80
01F07D00
1BE00000
23D00000
67C00000
2E400000
ENDCHAR
STARTCHAR fl
ENCODING 64258
SWIDTH 548 0
DWIDTH 9 0
BBX 14 16 -4 -4
BITMAP
0007F900
001F0F40
002E0F40
002E1F00
003FAE00
007C2E00
007C3D00
00B87C00
00F87C00
00F4B850
01F0BE80
02F07E00
1BE00000
23D00000
67C00000
2E400000
ENDCHAR
STARTCHAR ffi
ENCODING 64259
SWIDTH 764 0
DWIDTH 12 0
BBX 17 16 -4 -4
BITMAP
0007E6F800
001F5F1D00
002E3D2D00
002E3D0000
003FFFFD00
007D7C7C00
007CB87800
00B8F4B800
00F4F4F400
00F5F0F480
01F2E0FA40
02F7E0B900
1BE3D00000
32D7C00000
63DB800000
2FBE000000
ENDCHAR
STARTCHAR ffl
ENCODING 64260
SWIDTH 780 0
DWIDTH 12 0
BBX 17 16 -4 -4
BITMAP
0007EBE900
001F6E1F00
002E3D1F00
002E3D2E00
003FFFAD00
007D7C3D00
007CB87C00
00B8F47C00
00F4F4B800
00F5F0F480
01F2E0FA40
02F7E07D00
1BE3D00000
32D7C00000
63DB800000
2F7E000000
ENDCHAR
STARTCHAR .notdef
ENCODING -1
SWIDTH 810 0
DWIDTH 13 0
BBX 13 20 0 -4
BITMAP
00AAAA80
00800080
01400140
01400140
02000200
02000200
021A4200
0532C500
08164800
08090800
08140800
14000400
14341400
20002000
20002000
20002000
50005000
80005000
80008000
AAAA8000
ENDCHAR
STARTCHAR A.salt
ENCODING -1
SWIDTH 590 0
DWIDTH 9 0
BBX 10 14 0 -2
BITMAP
0006E0
001AE0
0063D0
00C7C0
0247C0
07AF80
0E0F80
1D0F40
3C1F00
781F00
B42E00
B43D00
F00000
700000
ENDCHAR
STARTCHAR B.salt
ENCODING -1
SWIDTH 633 0
DWIDTH 10 0
BBX 10 12 0 0
BITMAP
02BE40
1E52C0
75F1D0
B2E2C0
E3D740
63FF80
07C7D0
0B83E0
0B83D0
0F47C0
1F4B40
1FBD00
ENDCHAR
STARTCHAR E.salt
ENCODING -1
SWIDTH 554 0
DWIDTH 9 0
BBX 10 12 0 0
BITMAP
06FFE0
2AFA80
B2E000
A2D000
A3D000
17FD00
07D400
0B8000
0F4000
0F4000
1FFD00
1FFD00
ENDCHAR
STARTCHAR N.salt
ENCODING -1
SWIDTH 669 0
DWIDTH 11 0
BBX 11 12 0 0
BITMAP
02FBD0
1AF4F4
72E0F4
A3E0F4
E3D1F0
57C2E0
0BC2E0
0B83D0
0F87C0
1F47C4
1F0788
2F02E0
ENDCHAR
STARTCHAR i.loclTRK
ENCODING -1
SWIDTH 267 0
DWIDTH 4 0
BBX 5 11 0 0
BITMAP
1E00
2F00
1900
3D00
7C00
7C00
B800
F400
F480
FA40
B900
ENDCHAR
STARTCHAR a.end
ENCODING -1
SWIDTH 467 0
DWIDTH 7 0
BBX 9 8 -1 0
BITMAP
02FB80
0B8F40
1F0F40
3E1F00
3D2E00
7D2E00
3D7E00
1F9F00
ENDCHAR
STARTCHAR aacute.end
ENCODING -1
SWIDTH 461 0
DWIDTH 7 0
BBX 9 12 -1 0
BITMAP
000A00
001D00
002800
000000
02FF40
0F4F40
2E1F00
3D1F00
7D2E00
7C2E00
3D7D00
1FAE00
ENDCHAR
STARTCHAR c.end
ENCODING -1
SWIDTH 341 0
DWIDTH 5 0
BBX 7 8 -1 0
BITMAP
02F4
0F68
2E14
3D00
7D00
7C00
3D10
1F80
ENDCHAR
STARTCHAR d.end
ENCODING -1
SWIDTH 476 0
DWIDTH 8 0
BBX 10 11 -1 0
BITMAP
0002D0
0007C0
000B80
02FB80
0B8F40
1F0F40
3E1F00
3D2E00
7D2E00
3D7E00
1FAF40
ENDCHAR
STARTCHAR e.end
ENCODING -1
SWIDTH 366 0
DWIDTH 6 0
BBX 7 8 -1 0
BITMAP
02F4
0B58
1E28
3D74
3F90
7C00
3D10
1F90
ENDCHAR
STARTCHAR eacute.end
ENCODING -1
SWIDTH 367 0
DWIDTH 6 0
BBX 8 12 -1 0
BITMAP
001D
0038
0070
0000
02F4
0B5C
1F28
3D74
3F90
7D00
3D10
1F90
ENDCHAR
STARTCHAR uni0292.end
ENCODING -1
SWIDTH 391 0
DWIDTH 6 0
BBX 6 12 0 -4
BITMAP
7FF0
A2D0
5780
0F00
2E00
2E00
0B80
0B80
1BC0
9B80
CB40
7D00
ENDCHAR
STARTCHAR g.end
ENCODING -1
SWIDTH 480 0
DWIDTH 8 0
BBX 9 12 -1 -4
BITMAP
02FF80
0B8F40
1F0F00
3E1F00
3D2E00
7D2E00
3D7D00
1FBC00
01BC00
08B800
0CF400
07D000
ENDCHAR
STARTCHAR uni01E5.end
ENCODING -1
SWIDTH 507 0
DWIDTH 8 0
BBX 9 12 -1 -4
BITMAP
02FF80
0B8F40
1F0F00
3E1F00
3D2E00
7D2E00
3D7D00
1FBC00
05BC00
1EFE00
0CF400
07D000
ENDCHAR
STARTCHAR h.end
ENCODING -1
SWIDTH 453 0
DWIDTH 7 0
BBX 8 11 -1 0
BITMAP
07C0
0B80
0B40
0FBD
1F6E
1E1E
2E2E
3D3D
3D3C
7C3E
B82E
ENDCHAR
STARTCHAR i.end
ENCODING -1
SWIDTH 209 0
DWIDTH 3 0
BBX 4 12 0 0
BITMAP
19
2F
1E
00
3D
7C
7C
B8
F4
F4
F8
B8
ENDCHAR
STARTCHAR iacute.end
ENCODING -1
SWIDTH 209 0
DWIDTH 3 0
BBX 5 12 0 0
BITMAP
0380
0700
0D00
0000
3D00
7C00
7C00
B800
F400
F400
F800
B800
ENDCHAR
STARTCHAR ij.end
ENCODING -1
SWIDTH 480 0
DWIDTH 8 0
BBX 8 15 0 -4
BITMAP
1E0E
2F1F
190A
3D2E
7C3D
7C3C
B87C
F4B8
F4B8
F9F4
B9F0
0AF0
22E0
37D0
1F40
ENDCHAR
STARTCHAR j.end
ENCODING -1
SWIDTH 213 0
DWIDTH 3 0
BBX 8 15 -4 -4
BITMAP
001D
002F
0019
003D
007C
007C
00B8
00F4
00F4
01F0
02E0
1BE0
76D0
67C0
2E40
ENDCHAR
STARTCHAR k.end
ENCODING -1
SWIDTH 472 0
DWIDTH 8 0
BBX 9 11 -1 0
BITMAP
07C000
0B8000
0B4000
0F4A00
1F6400
1FFC00
2F7E00
3D2E00
3D3D00
7C3E40
B81E00
ENDCHAR
STARTCHAR l.end
ENCODING -1
SWIDTH 207 0
DWIDTH 3 0
BBX 4 11 0 0
BITMAP
05
1E
2E
3D
7D
7C
B8
F8
F4
F4
B8
ENDCHAR
STARTCHAR m.end
ENCODING -1
SWIDTH 701 0
DWIDTH 11 0
BBX 12 8 -1 0
BITMAP
0FBEBD
1F6F6E
1E2E2E
2E2E2E
3D3D3D
3D3C3C
7C7C3E
B8B82E
ENDCHAR
STARTCHAR n.end
ENCODING -1
SWIDTH 454 0
DWIDTH 7 0
BBX 8 8 -1 0
BITMAP
0FBD
1F5E
1E1E
2E2E
3D3D
3D3C
7C3E
B82E
ENDCHAR
STARTCHAR o.end
ENCODING -1
SWIDTH 487 0
DWIDTH 8 0
BBX 9 8 -1 0
BITMAP
02F400
0B5C40
1F1E00
3E1C00
3D1C00
7D2800
3D7000
1F9000
ENDCHAR
STARTCHAR oacute.end
ENCODING -1
SWIDTH 487 0
DWIDTH 8 0
BBX 9 12 -1 0
BITMAP
001D00
002800
007000
000000
02F400
0B5C40
1F1F00
3E1D00
3D1C00
7D2800
3D7000
1F9000
ENDCHAR
STARTCHAR s.end
ENCODING -1
SWIDTH 316 0
DWIDTH 5 0
BBX 6 9 -1 0
BITMAP
0010
03E0
07E0
0AE0
09F0
25F0
75F0
62E0
2F80
ENDCHAR
STARTCHAR t.end
ENCODING -1
SWIDTH 276 0
DWIDTH 4 0
BBX 5 11 0 0
BITMAP
0500
2E00
2E00
7F40
3D00
7C00
B800
B800
F400
F800
B800
ENDCHAR
STARTCHAR u.end
ENCODING -1
SWIDTH 459 0
DWIDTH 7 0
BBX 8 8 0 0
BITMAP
3D3D
7C7C
7C78
B8B8
F4F4
F5F4
FAF8
B9B8
ENDCHAR
STARTCHAR uacute.end
ENCODING -1
SWIDTH 459 0
DWIDTH 7 0
BBX 8 12 0 0
BITMAP
0074
00A0
01C0
0000
3D3D
7C7C
7C78
B8B8
F4F4
F5F4
FAF8
B9B8
ENDCHAR
STARTCHAR x.end
ENCODING -1
SWIDTH 500 0
DWIDTH 8 0
BBX 8 9 0 0
BITMAP
000A
0B8B
22D6
12E8
81F4
82F0
06F0
18F9
7078
ENDCHAR
STARTCHAR y.end
ENCODING -1
SWIDTH 460 0
DWIDTH 7 0
BBX 8 12 0 -4
BITMAP
3D3D
7C7C
7C7C
B8B8
F4F4
F5F4
FBF0
BAE0
1BE0
63D0
67C0
2E40
ENDCHAR
STARTCHAR k.salt
ENCODING -1
SWIDTH 518 0
DWIDTH 8 0
BBX 10 11 -1 0
BITMAP
07C000
0B8000
0B8000
0F4B00
1F6A00
1FE800
2FBE00
3D2E00
3D3D20
7C3E90
B81F40
ENDCHAR
STARTCHAR p.salt
ENCODING -1
SWIDTH 482 0
DWIDTH 8 0
BBX 11 13 -2 -4
BITMAP
019000
03EF40
07EB80
07C3C0
0B83D4
0F47E4
0F6B40
1FAE00
2E7800
2E0000
3D0000
3C0000
640000
ENDCHAR
STARTCHAR E_x
ENCODING -1
SWIDTH 797 0
DWIDTH 13 0
BBX 14 12 0 0
BITMAP
01B90000
07860000
0B4A0000
0F450740
0B814740
07D2E240
2F01F600
7D01F800
BC00F400
FC01F450
BD0ABE80
2FA43E00
ENDCHAR
STARTCHAR F_i
ENCODING -1
SWIDTH 726 0
DWIDTH 12 0
BBX 12 12 0 0
BITMAP
06FFFD
28F6FC
71F000
A2F000
A2E0B8
53FDF4
03D0F4
07C1F0
0B82E0
0B82E2
0F42EA
0F01F8
ENDCHAR
STARTCHAR T_h
ENCODING -1
SWIDTH 971 0
DWIDTH 16 0
BBX 16 12 0 0
BITMAP
06FFAA00
297D7D00
B0B83C00
E0B87C00
A0F47EE0
10F4B8F4
01F0F4F4
02E0F1F0
02E1F1F0
03D1E2E1
07C2E2E2
07C3D0F8
ENDCHAR
STARTCHAR T_i
ENCODING -1
SWIDTH 744 0
DWIDTH 12 0
BBX 13 12 0 0
BITMAP
06FFFE00
287EFD00
B0B80000
A0B80000
E0F47C00
50F0B800
01F0B400
02E0F400
02E1F000
03D1F140
07C1FA00
07C0B800
ENDCHAR
STARTCHAR a_x
ENCODING -1
SWIDTH 899 0
DWIDTH 14 0
BBX 16 9 -1 0
BITMAP
00000028
02FB8F2C
0B4F4F48
1E0F0B54
3D1F0BE0
3D2E07C0
7D3E0BC2
3EBFB7E9
1F5F91F4
ENDCHAR
STARTCHAR a_z
ENCODING -1
SWIDTH 906 0
DWIDTH 15 0
BBX 16 8 -1 0
BITMAP
02FB8BFD
0B8F5CB8
1F0F45F0
3E1F02E0
3D2E07C0
7D2E0F40
3D7E1F28
1F9F7FF4
ENDCHAR
STARTCHAR b_s
ENCODING -1
SWIDTH 799 0
DWIDTH 13 0
BBX 13 11 0 0
BITMAP
1F000000
2E000000
2E000400
3EE07D00
7DB4BD00
7C7A3E00
B8782E00
F8742E00
F4B26E40
F5D62F40
7E42F800
ENDCHAR
STARTCHAR b_s_x
ENCODING -1
SWIDTH 1144 0
DWIDTH 18 0
BBX 19 12 0 0
BITMAP
0100000000
1F00000000
2E00000000
2E001500A0
3EE07D7CB0
7DB4BD3D30
7C7A3E3D50
B8782E2E80
F4742E2F00
F4B26E6F04
FAD62F8FA4
7E42F807D0
ENDCHAR
STARTCHAR b_s_z
ENCODING -1
SWIDTH 1158 0
DWIDTH 19 0
BBX 19 11 0 0
BITMAP
1F00000000
2E00000000
2E00140000
3EE07D2FF4
7DB4BD72E0
7C7A3E13C0
B8742E0B80
F8742E1F00
F4B26E3D00
F5D62D7CA0
7E42F8FFD0
ENDCHAR
STARTCHAR c_x
ENCODING -1
SWIDTH 755 0
DWIDTH 12 0
BBX 14 9 -1 0
BITMAP
00000240
02F5F380
0F69F180
2E14F600
3D00FD00
7C00B800
7C01F810
3D067E80
1FE42E40
ENDCHAR
STARTCHAR c_z
ENCODING -1
SWIDTH 769 0
DWIDTH 12 0
BBX 13 8 -1 0
BITMAP
02F4BFC0
0F69DB40
2E149F00
3D003D00
7D00B800
7C00F400
3D12E280
1F87FE40
ENDCHAR
STARTCHAR e_x
ENCODING -1
SWIDTH 762 0
DWIDTH 12 0
BBX 14 9 -1 0
BITMAP
00000280
02F5F2C0
0B5CF080
1F28F640
3D74BD00
3F90B800
7D00BC10
3E067E90
1BE42E40
ENDCHAR
STARTCHAR e_z
ENCODING -1
SWIDTH 788 0
DWIDTH 13 0
BBX 14 8 -1 0
BITMAP
02F4BFD0
0F69C780
2E284F40
3DB02E00
7F807C00
7C00B800
3D11F2C0
1F83FF40
ENDCHAR
STARTCHAR eacute_x
ENCODING -1
SWIDTH 760 0
DWIDTH 12 0
BBX 14 12 -1 0
BITMAP
001D0000
00280000
00700000
00000240
02F5F3C0
0B58F080
2E28F640
3D74BD00
3F80B800
7C00BC10
3E067E90
1BE42E40
ENDCHAR
STARTCHAR f_f_t
ENCODING -1
SWIDTH 780 0
DWIDTH 12 0
BBX 17 16 -4 -4
BITMAP
0007EBE900
001F6E1F00
002E3D1F00
002E3D2E00
003FFFFF40
007D7C3D00
007CB87C00
00B8F47C00
00F4F4B800
00F5F0F480
01F2E0FA40
02F7E07D00
1BE3D00000
32D7C00000
63DB800000
2F7E000000
ENDCHAR
STARTCHAR f_i_x
ENCODING -1
SWIDTH 898 0
DWIDTH 14 0
BBX 19 16 -4 -4
BITMAP
0002F90000
000F4E0000
001E1E0000
002E040060
003FAE3CB0
007D3D3D30
007C7C2D50
00B87C2E80
00F8B81F00
00F4B82F08
01F0BEDFA4
01F07E07D0
1BE0000000
23D0000000
67C0000000
2E40000000
ENDCHAR
STARTCHAR f_i_z
ENCODING -1
SWIDTH 904 0
DWIDTH 14 0
BBX 19 16 -4 -4
BITMAP
0002F90000
000F4E0000
001E1E0000
002E000000
003FAE2FF4
007D3D72E0
007C7C17C0
00B87C0B40
00F8B81F00
00F4B83D00
01F0B8B8A0
01F07DFFD0
1BE0000000
23D0000000
67C0000000
2E40000000
ENDCHAR
STARTCHAR f_l_x
ENCODING -1
SWIDTH 912 0
DWIDTH 15 0
BBX 19 16 -4 -4
BITMAP
0007F90000
001F0F4000
002E0F4000
002E1F0060
003FAE3D74
007C2E2E20
007C3D2E60
00B87C1F80
00F87C1F00
00F4B82F48
01F0BEDBE8
02F07E47E0
1BE0000000
23D0000000
67C0000000
2E40000000
ENDCHAR
STARTCHAR f_l_z
ENCODING -1
SWIDTH 938 0
DWIDTH 15 0
BBX 19 16 -4 -4
BITMAP
0007F90000
001F0F4000
002E0F4000
002E1F0000
003FAE1FF8
007C2E38F4
007C3D12E0
00B87C07C0
00F87C0B40
00F4B81F10
01F0BD3D34
02F07DBFE0
1BE0000000
23D0000000
67C0000000
2E40000000
ENDCHAR
STARTCHAR f_t
ENCODING -1
SWIDTH 548 0
DWIDTH 9 0
BBX 14 16 -4 -4
BITMAP
0007F900
001F0F40
002E0F40
002E1F00
003FFF80
007C2E00
007C3D00
00B83D00
00F87C00
00F4B850
01F0BE80
02F07E00
1BE00000
23D00000
67C00000
2E400000
ENDCHAR
STARTCHAR f_u
ENCODING -1
SWIDTH 772 0
DWIDTH 12 0
BBX 17 16 -4 -4
BITMAP
0007E00000
001F200000
002E000000
002D000000
003FFE2E00
007C3D3D00
007C3C7C00
00B87C7C00
00F4B8B800
00F4B8F480
01F0BAFA40
02E07D7D00
1BE0000000
23D0000000
67C0000000
2E40000000
ENDCHAR
STARTCHAR f_x
ENCODING -1
SWIDTH 663 0
DWIDTH 11 0
BBX 15 16 -4 -4
BITMAP
0007E000
001F2000
002E0000
002D0060
003FFD74
007C2E24
007C2E60
00B81F80
00F41F00
00F46F44
01F1DB88
02E1D7E0
17E00000
23D00000
67C00000
2E400000
ENDCHAR
STARTCHAR g_p
ENCODING -1
SWIDTH 975 0
DWIDTH 16 0
BBX 17 13 -1 -4
BITMAP
0000064000
02FB8FBD00
0B8F4F4F00
1F0F1F0F40
3E1F2E0F00
3D2E2E1F00
7D2D3D2E00
3D7D7DBC00
1FBFFFE400
02FCB80000
0AB8B40000
0CF4F40000
07D1A00000
ENDCHAR
STARTCHAR g_x
ENCODING -1
SWIDTH 892 0
DWIDTH 14 0
BBX 16 13 -1 -4
BITMAP
00000028
02FB9F2C
0B4F4F48
1E0F0F64
3D1F0BE0
3D2E0BC0
7D3D0FC2
3EBD67E9
1FBE41E4
01FC0000
0AB80000
0CF40000
07D00000
ENDCHAR
STARTCHAR g_z
ENCODING -1
SWIDTH 907 0
DWIDTH 15 0
BBX 16 12 -1 -4
BITMAP
02FB8BFD
0B4F5CB8
1F0F05F0
3D1F02E0
3D2E07C0
7C2E0F40
3D7D1F28
1FBC3FF4
02BC0000
0CB80000
0CF40000
07D00000
ENDCHAR
STARTCHAR i_x
ENCODING -1
SWIDTH 631 0
DWIDTH 10 0
BBX 11 12 0 0
BITMAP
190000
2F0000
1E0000
0000E0
3D7CA0
7C7C60
7C3D80
B83F40
F42E00
F47E08
FA9FA0
BD0B90
ENDCHAR
STARTCHAR i_z
ENCODING -1
SWIDTH 637 0
DWIDTH 10 0
BBX 10 12 0 0
BITMAP
190000
2F0000
1E0000
000000
3D7FF0
7CA3D0
7C5780
B80F40
F42E00
F47C40
F4B8D0
B9FF80
ENDCHAR
STARTCHAR iacute_x
ENCODING -1
SWIDTH 631 0
DWIDTH 10 0
BBX 11 12 0 0
BITMAP
038000
070000
0D0000
0000E0
3D7CA0
7C7C60
7C3D80
B83F40
F42E00
F47E08
FA9FA0
BD0B90
ENDCHAR
STARTCHAR iacute_z
ENCODING -1
SWIDTH 637 0
DWIDTH 10 0
BBX 10 12 0 0
BITMAP
038000
070000
0D0000
000000
3D7FF0
7CA3D0
7C0780
B80F40
F42E00
F47C40
F8B8D0
B9FF80
ENDCHAR
STARTCHAR j_x
ENCODING -1
SWIDTH 624 0
DWIDTH 10 0
BBX 15 15 -4 -4
BITMAP
001D0000
002E0000
00190090
003DB8E0
007C7C60
007C3C80
00B83E40
00F42E00
00F47E14
01F29FA0
01F90B80
0BE00000
27D00000
67C00000
2E400000
ENDCHAR
STARTCHAR j_z
ENCODING -1
SWIDTH 618 0
DWIDTH 10 0
BBX 14 15 -4 -4
BITMAP
001E0000
002F0000
00190000
003D7FE0
007CD7C0
007C4B40
00B81F00
00B83D00
00F4B840
01F0F5C0
01F2FF80
1BE00000
32D00000
67C00000
2E400000
ENDCHAR
STARTCHAR l_x
ENCODING -1
SWIDTH 631 0
DWIDTH 10 0
BBX 11 12 0 0
BITMAP
010000
1F0000
2E0000
2D00E0
3D7CA0
7C7C60
7C3D80
B83F40
F42E00
F47E08
FA9FA0
BD0B90
ENDCHAR
STARTCHAR l_z
ENCODING -1
SWIDTH 635 0
DWIDTH 10 0
BBX 10 11 0 0
BITMAP
1F0000
2E0000
2E0000
3D7FF0
7CA3D0
7C5B80
B80F40
F42E00
F47C00
F4B8D0
B9FF80
ENDCHAR
STARTCHAR m_x
ENCODING -1
SWIDTH 1124 0
DWIDTH 18 0
BBX 20 9 -1 0
BITMAP
0000000024
0FBEBD2E38
1F6F6E1F14
1E2E2E0F60
2E2E2E0FC0
3D3D3D0B80
3D3C3C1F85
7C7C3EA7E8
B8B82E42E0
ENDCHAR
STARTCHAR m_z
ENCODING -1
SWIDTH 1125 0
DWIDTH 18 0
BBX 19 8 -1 0
BITMAP
0FBEBD1FF8
1F6F6E24F0
1E2E2E02E0
2E2E2E07C0
3D3D3D0B40
3D3C3C1F10
7C7C3D3D34
B8B82EBFE0
ENDCHAR
STARTCHAR n_z
ENCODING -1
SWIDTH 882 0
DWIDTH 14 0
BBX 15 8 -1 0
BITMAP
0FBD1FF8
1F5E28F4
1E1E02E0
2E2E03C0
3D3D0B80
3D3C1F10
7C3D3D34
B82E7FE0
ENDCHAR
STARTCHAR o_ae
ENCODING -1
SWIDTH 1089 0
DWIDTH 17 0
BBX 18 8 0 0
BITMAP
0BD06F9F80
2D7282F9C0
7CB901F1C0
F870BFE740
F472E3F900
F4A3D3D010
F5C3D7E080
7E01F9FE00
ENDCHAR
STARTCHAR o_s
ENCODING -1
SWIDTH 786 0
DWIDTH 13 0
BBX 14 9 -1 0
BITMAP
00000100
02F42F40
0B5C6F40
1F1E8F40
3E1D0F40
3D1C0F40
7D29DF90
3D714F80
1F90BD00
ENDCHAR
STARTCHAR o_s_x
ENCODING -1
SWIDTH 1132 0
DWIDTH 18 0
BBX 20 9 -1 0
BITMAP
0000010024
02F42F5F3C
0B5C6F5F08
1E1D8F4F64
3D1E0F4FA0
3D1C0F4BC0
7D29DB5B81
3EB14F97E9
1F90BD02E4
ENDCHAR
STARTCHAR o_s_z
ENCODING -1
SWIDTH 1139 0
DWIDTH 18 0
BBX 19 9 -1 0
BITMAP
0000010000
02F42F4FFC
0B5C6F68F4
1F1E8F55E0
3E1D0F43D0
3D1C0F4B80
7D29DF5F40
3D714F6E34
1F90BD7FE0
ENDCHAR
STARTCHAR o_x
ENCODING -1
SWIDTH 851 0
DWIDTH 14 0
BBX 15 9 -1 0
BITMAP
00000060
02F43D74
0B5C7E24
1F1EAE60
3E1D1F80
3D1C1F00
7C28AF44
3D718B88
1F81D7E0
ENDCHAR
STARTCHAR oacute_s
ENCODING -1
SWIDTH 787 0
DWIDTH 13 0
BBX 14 12 -1 0
BITMAP
001D0000
00280000
00700000
00000100
02F42F40
0B5C6F40
1F1E8F40
3E1E0F40
3D1C0F40
7D29DB90
3D714F90
1F90BE00
ENDCHAR
STARTCHAR oacute_s_x
ENCODING -1
SWIDTH 1141 0
DWIDTH 18 0
BBX 18 12 0 0
BITMAP
0074000000
00A0000000
01C0000000
0000040000
0BD0BD2FF0
2D71BDB2D0
7C7A3D57C0
F8783D0F40
F4703D2E00
F4A76D3D00
F5D53DB8E0
7E42F5FF80
ENDCHAR
STARTCHAR oacute_s_z
ENCODING -1
SWIDTH 1140 0
DWIDTH 18 0
BBX 19 12 -1 0
BITMAP
001D000000
0028000000
0070000000
0000010000
02F42F4FFC
0B5C6F68B4
1F1E8F55E0
3E1D0F43D0
3D1C0F4B80
7D29DB5F40
3D714F6E34
1F90BD7FE0
ENDCHAR
STARTCHAR oacute_x
ENCODING -1
SWIDTH 852 0
DWIDTH 14 0
BBX 15 12 -1 0
BITMAP
001D0000
00280000
00700000
00000060
02F43D74
0B9C7E24
1F1EAE60
3E1D1F80
3D1C1F40
7D28AF44
3D718B88
1F91D7E0
ENDCHAR
STARTCHAR r_x
ENCODING -1
SWIDTH 784 0
DWIDTH 13 0
BBX 14 9 -1 0
BITMAP
000001C0
0FBDF1D0
1FACF480
1F00BA40
2E007E00
3D00BC00
3D027D10
7C0A2D20
B8071F80
ENDCHAR
STARTCHAR r_z
ENCODING -1
SWIDTH 654 0
DWIDTH 10 0
BBX 12 8 -1 0
BITMAP
0FBFFD
1FACB8
1F05F0
2E02D0
3D07C0
3D0F54
7C2E28
B83FF4
ENDCHAR
STARTCHAR s_x
ENCODING -1
SWIDTH 727 0
DWIDTH 12 0
BBX 13 9 -1 0
BITMAP
01500700
03E3D740
07E2E200
0AF1E600
19F1F800
25F0F400
75F6F480
62F8BE80
2F803E00
ENDCHAR
STARTCHAR s_z
ENCODING -1
SWIDTH 744 0
DWIDTH 12 0
BBX 13 9 -1 0
BITMAP
00500000
03E1FF80
07E35F00
0AF12D00
19F07C00
25F0F400
75F1E100
62E3D700
2F8BFE00
ENDCHAR
STARTCHAR t_x
ENCODING -1
SWIDTH 631 0
DWIDTH 10 0
BBX 11 10 0 0
BITMAP
150000
2E0000
7FFCE0
3C7C60
7C3C90
B83E80
B82E00
F42E04
F4AF14
BE0B90
ENDCHAR
STARTCHAR t_z
ENCODING -1
SWIDTH 704 0
DWIDTH 11 0
BBX 11 11 0 0
BITMAP
050000
2E0000
2E0000
7F4FFC
3D28B4
7C15F0
B803D0
B80B80
F40F40
F42E38
B87FE0
ENDCHAR
STARTCHAR u_v
ENCODING -1
SWIDTH 923 0
DWIDTH 15 0
BBX 15 8 0 0
BITMAP
3D3D7D74
7C7C3C74
7C787C24
B8B8B820
F4F4B860
F5F0F490
FBF0FA80
BAE0BE00
ENDCHAR
STARTCHAR u_x
ENCODING -1
SWIDTH 878 0
DWIDTH 14 0
BBX 15 9 0 0
BITMAP
000000D0
3D3D78A0
7C7C7C60
7C783D80
B8B83F40
F4F42E00
F5F47E14
FAFADFA0
B97E0B90
ENDCHAR
STARTCHAR y_p
ENCODING -1
SWIDTH 954 0
DWIDTH 15 0
BBX 15 13 0 -4
BITMAP
00002800
3D3D7EF4
7C7C7C78
7C78B87C
B8B8F478
F4F4F4B8
F5F1F0F4
FBF2F6E0
BAFFFF80
0BE3D000
27D3C000
6BC7C000
2E4A4000
ENDCHAR
STARTCHAR y_x
ENCODING -1
SWIDTH 871 0
DWIDTH 14 0
BBX 15 13 0 -4
BITMAP
00000090
3D3DB8E0
7C7C7C50
7C787C80
B8B83E40
F4F43E00
F5F07E14
FBF29FA0
BAF90B80
0BE00000
27D00000
6BC00000
2E400000
ENDCHAR
STARTCHAR y_z
ENCODING -1
SWIDTH 888 0
DWIDTH 14 0
BBX 14 12 0 -4
BITMAP
3D3D7FF0
7C7CA3D0
7C7C0780
B8B80F40
F4F42E00
F5F47C40
FBF0B8D0
BAE1FF80
1BE00000
63D00000
67C00000
2E400000
ENDCHAR
STARTCHAR a_x.end
ENCODING -1
SWIDTH 884 0
DWIDTH 14 0
BBX 15 9 -1 0
BITMAP
00000028
02FB8F2C
0B4F4F48
1E0F0B94
3D1F0BE0
3D2E07C0
7D3E0BC0
3EBFB7E4
1F5F91E0
ENDCHAR
STARTCHAR b_s.end
ENCODING -1
SWIDTH 731 0
DWIDTH 12 0
BBX 12 11 0 0
BITMAP
1F0000
2E0000
2E0004
3EE07D
7DB4BD
7C7A3E
B8782E
F8742E
F4B26E
F5D62D
7E42F8
ENDCHAR
STARTCHAR e_x.end
ENCODING -1
SWIDTH 747 0
DWIDTH 12 0
BBX 13 9 -1 0
BITMAP
00000280
02F5F2C0
0B5CF080
1F28F640
3D74BD00
3F90B800
7D00BC00
3E067D00
1BE42E00
ENDCHAR
STARTCHAR f_u.end
ENCODING -1
SWIDTH 724 0
DWIDTH 12 0
BBX 16 16 -4 -4
BITMAP
0007E000
001F2000
002E0000
002D0000
003FFE2E
007C3D3D
007C3C7C
00B87C7C
00F4B8B8
00F4B8F4
01F0BAF9
02E07D7C
1BE00000
23D00000
67C00000
2E400000
ENDCHAR
STARTCHAR fi.end
ENCODING -1
SWIDTH 479 0
DWIDTH 8 0
BBX 12 16 -4 -4
BITMAP
0002F9
000F4E
001E1E
002E00
003FAE
007D3D
007C7C
00B87C
00F8B8
00F4B8
01F0B9
01F07D
1BE000
23D000
67C000
2E4000
ENDCHAR
STARTCHAR fl.end
ENCODING -1
SWIDTH 490 0
DWIDTH 8 0
BBX 13 16 -4 -4
BITMAP
0007F900
001F0F40
002E0F40
002E1F00
003FAE00
007C2E00
007C3D00
00B87C00
00F87C00
00F4B800
01F0BD00
02F07D00
1BE00000
23D00000
67C00000
2E400000
ENDCHAR
STARTCHAR i_x.end
ENCODING -1
SWIDTH 616 0
DWIDTH 10 0
BBX 10 12 0 0
BITMAP
190000
2F0000
1E0000
0000E0
3D7CA0
7C7C60
7C3D80
B83F40
F42E00
F47E00
FA9F80
BD0B80
ENDCHAR
STARTCHAR o_s.end
ENCODING -1
SWIDTH 718 0
DWIDTH 11 0
BBX 13 9 -1 0
BITMAP
00000100
02F42F40
0B5C6F40
1F1E8F40
3E1D0F40
3D1C0F40
7D29DF40
3D714F40
1F90BD00
ENDCHAR
STARTCHAR oacute_s.end
ENCODING -1
SWIDTH 719 0
DWIDTH 12 0
BBX 13 12 -1 0
BITMAP
001D0000
00280000
00700000
00000100
02F42F40
0B5C6F40
1F1E8F40
3E1E0F40
3D1C0F40
7D29DB40
3D714F40
1F90BD00
ENDCHAR
STARTCHAR u_x.end
ENCODING -1
SWIDTH 863 0
DWIDTH 14 0
BBX 14 9 0 0
BITMAP
00000090
3D3D78E0
7C7C7C60
7C783C80
B8B83E40
F4F42E00
F5F47E00
FAFADF80
B97E0B80
ENDCHAR
STARTCHAR uni0424.loclBGR
ENCODING -1
SWIDTH 840 0
DWIDTH 13 0
BBX 14 14 0 -2
BITMAP
01BFD000
0783D000
0707C000
006BE900
0B4B8B40
2D0F43C0
781F03D0
B81F03D0
B42E07C0
B83D0B40
3D7C6E00
0BFFE400
00B80000
00B80000
ENDCHAR
STARTCHAR uni0492.loclBSH
ENCODING -1
SWIDTH 459 0
DWIDTH 7 0
BBX 10 12 0 0
BITMAP
06FFE0
2AFA80
72E000
A2E000
A3D000
67FD00
07D400
0B8000
0F4000
0F4000
1F0000
1E0000
ENDCHAR
STARTCHAR uni04AA.loclCHU
ENCODING -1
SWIDTH 497 0
DWIDTH 8 0
BBX 9 15 0 -3
BITMAP
01BE00
07D340
1F4380
2F0200
3D0000
7D0000
BC0000
BC0000
BC0000
BE0600
7FFC00
1F9000
029000
00A000
068000
ENDCHAR
STARTCHAR uni0418.loclSRB
ENCODING -1
SWIDTH 705 0
DWIDTH 11 0
BBX 12 12 0 0
BITMAP
01B42E
1EF03D
75F07D
B2E1FC
A2E3F8
53DAB8
07ECF4
07F0F0
0BD1F0
0F82E0
0F42E0
1F03D0
ENDCHAR
STARTCHAR uni0419.loclSRB
ENCODING -1
SWIDTH 705 0
DWIDTH 11 0
BBX 12 15 0 0
BITMAP
000904
001E24
000B90
01B42E
1EF03D
75F07D
B2E1FC
A2E3F8
53DAB8
07ECF4
07F0F0
0BD1F0
0F82E0
0F42E0
1F03D0
ENDCHAR
STARTCHAR uni0430.end
ENCODING -1
SWIDTH 467 0
DWIDTH 7 0
BBX 9 8 -1 0
BITMAP
02FB80
0B8F40
1F0F40
3E1F00
3D2E00
7D2E00
3D7E00
1F9F00
ENDCHAR
STARTCHAR uni0432.end
ENCODING -1
SWIDTH 406 0
DWIDTH 7 0
BBX 7 12 0 0
BITMAP
02E0
0B64
1E24
2D24
3C30
7860
BAE0
F5F0
F474
F470
F4D0
6E40
ENDCHAR
STARTCHAR uni0434.end
ENCODING -1
SWIDTH 480 0
DWIDTH 8 0
BBX 9 12 -1 -4
BITMAP
02FF80
0B8F40
1F0F00
3E1F00
3D2E00
7D2E00
3D7D00
1FBC00
01BC00
08B800
0CF400
07D000
ENDCHAR
STARTCHAR uni0435.end
ENCODING -1
SWIDTH 366 0
DWIDTH 6 0
BBX 7 8 -1 0
BITMAP
02F4
0B58
1E28
3D74
3F90
7C00
3D10
1F90
ENDCHAR
STARTCHAR uni0451.end
ENCODING -1
SWIDTH 366 0
DWIDTH 6 0
BBX 8 11 -1 0
BITMAP
038E
028D
0000
02F4
0B58
1E28
3D74
3F90
7C00
3D10
1F90
ENDCHAR
STARTCHAR uni0436.end
ENCODING -1
SWIDTH 848 0
DWIDTH 14 0
BBX 15 8 -1 0
BITMAP
0B92E1F8
25E2D798
00F3CB00
00FFFE00
01E79E00
61DB9E00
A38B5E14
3E0F07E0
ENDCHAR
STARTCHAR uni0437.end
ENCODING -1
SWIDTH 426 0
DWIDTH 7 0
BBX 7 12 0 -4
BITMAP
07E0
14B8
20B8
50B8
80F4
42E0
0F80
03D0
06E0
26E0
23D0
2F40
ENDCHAR
STARTCHAR uni0438.end
ENCODING -1
SWIDTH 459 0
DWIDTH 7 0
BBX 8 8 0 0
BITMAP
3D3D
7C7C
7C78
B8B8
F4F4
F5F4
FAF8
B9B8
ENDCHAR
STARTCHAR uni0439.end
ENCODING -1
SWIDTH 459 0
DWIDTH 7 0
BBX 8 11 0 0
BITMAP
0B09
07A4
0000
3D3D
7C7C
7C78
B8B8
F4F4
F5F4
FAF8
B9B8
ENDCHAR
STARTCHAR uni043A.end
ENCODING -1
SWIDTH 501 0
DWIDTH 8 0
BBX 9 8 -1 0
BITMAP
0F4B80
1F2680
1FA000
2FFC00
3E3D00
3D3C00
7C3E00
B82E00
ENDCHAR
STARTCHAR uni043B.end
ENCODING -1
SWIDTH 511 0
DWIDTH 8 0
BBX 9 8 -1 0
BITMAP
002FC0
0067C0
00DB80
00CB40
018F40
724F00
B30F80
3D0B80
ENDCHAR
STARTCHAR uni043C.end
ENCODING -1
SWIDTH 780 0
DWIDTH 12 0
BBX 14 8 -1 0
BITMAP
002E07D0
006E0FC0
009E1FC0
009E3B80
018E6B80
724FDF40
A20F8F90
2D0F4780
ENDCHAR
STARTCHAR uni043D.end
ENCODING -1
SWIDTH 460 0
DWIDTH 7 0
BBX 9 8 -1 0
BITMAP
0F4F40
1F0F00
1E1F00
2FFE00
3D2D00
3D3D00
7C3D00
B82E00
ENDCHAR
STARTCHAR uni043E.end
ENCODING -1
SWIDTH 439 0
DWIDTH 7 0
BBX 8 8 -1 0
BITMAP
02F4
0B9C
1F0D
3E1C
3D1C
7D28
3D70
1F90
ENDCHAR
STARTCHAR uni043F.end
ENCODING -1
SWIDTH 454 0
DWIDTH 7 0
BBX 8 8 -1 0
BITMAP
0FBD
1F5E
1E1E
2E2E
3D3D
3D3C
7C3E
B82E
ENDCHAR
STARTCHAR uni0441.end
ENCODING -1
SWIDTH 341 0
DWIDTH 5 0
BBX 7 8 -1 0
BITMAP
02F4
0F68
2E14
3D00
7D00
7C00
3D10
1F80
ENDCHAR
STARTCHAR uni0442.end
ENCODING -1
SWIDTH 701 0
DWIDTH 11 0
BBX 12 8 -1 0
BITMAP
0FBEBD
1F6F6E
1E2E2E
2E2E2E
3D3D3D
3D3C3C
7C7C3E
B8B82E
ENDCHAR
STARTCHAR uni0443.end
ENCODING -1
SWIDTH 460 0
DWIDTH 7 0
BBX 8 12 0 -4
BITMAP
3D3D
7C7C
7C7C
B8B8
F4F4
F5F4
FBF0
BAE0
1BE0
63D0
67C0
2E40
ENDCHAR
STARTCHAR uni0445.end
ENCODING -1
SWIDTH 500 0
DWIDTH 8 0
BBX 8 9 0 0
BITMAP
000A
0B8B
22D6
12E8
81F4
82F0
06F0
18F9
7078
ENDCHAR
STARTCHAR uni0447.end
ENCODING -1
SWIDTH 459 0
DWIDTH 7 0
BBX 8 8 0 0
BITMAP
3D3D
7C7C
7C78
B8B8
BEF4
3EF4
00F4
00B8
ENDCHAR
STARTCHAR uni0448.end
ENCODING -1
SWIDTH 706 0
DWIDTH 11 0
BBX 12 8 0 0
BITMAP
3D3D3D
7C7C7C
7C78B8
B8B8B8
F4F4F4
F5F5F0
FAFAF8
B9B8B8
ENDCHAR
STARTCHAR uni044B.end
ENCODING -1
SWIDTH 608 0
DWIDTH 10 0
BBX 10 8 0 0
BITMAP
3D01E0
7C1BD0
7AE3D0
B8A7C0
F4A780
F0DB80
F6CBD0
7E07D0
ENDCHAR
STARTCHAR uni0455.end
ENCODING -1
SWIDTH 316 0
DWIDTH 5 0
BBX 6 9 -1 0
BITMAP
0010
03E0
07E0
0AE0
09F0
25F0
75F0
62E0
2F80
ENDCHAR
STARTCHAR uni0456.end
ENCODING -1
SWIDTH 209 0
DWIDTH 3 0
BBX 4 12 0 0
BITMAP
19
2F
1E
00
3D
7C
7C
B8
F4
F4
F8
B8
ENDCHAR
STARTCHAR uni0458.end
ENCODING -1
SWIDTH 213 0
DWIDTH 3 0
BBX 8 15 -4 -4
BITMAP
001D
002F
0019
003D
007C
007C
00B8
00F4
00F4
01F0
02E0
1BE0
76D0
67C0
2E40
ENDCHAR
STARTCHAR uni044E.end
ENCODING -1
SWIDTH 675 0
DWIDTH 11 0
BBX 11 8 -1 0
BITMAP
0F42F4
1F1F5C
1F2E1C
2FFD1C
3D7C28
3D7C34
7C7C60
B82F80
ENDCHAR
STARTCHAR uni044F.end
ENCODING -1
SWIDTH 480 0
DWIDTH 8 0
BBX 9 8 -1 0
BITMAP
01BF80
078B40
0F0F00
0F5F00
07FE00
626E00
B72E40
7D1F40
ENDCHAR
STARTCHAR uni0437.init
ENCODING -1
SWIDTH 455 0
DWIDTH 7 0
BBX 8 12 0 -4
BITMAP
1B90
22F0
91F0
01F0
02E0
07C1
2F02
0B98
0BD0
6BC0
9B80
7E00
ENDCHAR
STARTCHAR uni0445.init
ENCODING -1
SWIDTH 390 0
DWIDTH 6 0
BBX 8 9 -1 0
BITMAP
0028
1E2C
1F08
0F64
0FE0
0B80
2BC1
A3D5
A1F4
ENDCHAR
STARTCHAR uni0436.loclBGR
ENCODING -1
SWIDTH 882 0
DWIDTH 14 0
BBX 16 11 -1 0
BITMAP
0000F400
0000F000
0001E000
0B92E1F8
25E2D798
00F3CB00
00FFFE00
01E79E00
61DB9E01
A38B5E18
3E0F07E0
ENDCHAR
STARTCHAR uni043A.loclBGR
ENCODING -1
SWIDTH 518 0
DWIDTH 8 0
BBX 10 11 -1 0
BITMAP
07C000
0B8000
0B8000
0F4A00
1F6400
1FF800
2FBE00
3D2E00
3D3D20
7C3E90
B81F40
ENDCHAR
STARTCHAR uni044E.loclBGR
ENCODING -1
SWIDTH 675 0
DWIDTH 11 0
BBX 14 11 -1 0
BITMAP
07C00000
0B800000
0B800000
0F42F400
1F1F5C10
1F2E2E90
2FFD1C00
3D7C2800
3D7C3400
7C7CA000
B82F8000
ENDCHAR
STARTCHAR uni0493.loclBSH
ENCODING -1
SWIDTH 398 0
DWIDTH 6 0
BBX 8 8 -1 0
BITMAP
1FFE
2EA9
3D00
3EA0
7C00
7840
B880
3E00
ENDCHAR
STARTCHAR uni04AB.loclCHU
ENCODING -1
SWIDTH 384 0
DWIDTH 6 0
BBX 8 12 -1 -4
BITMAP
02F4
0B58
1F14
3E00
3D00
7D01
3D18
1FE0
0140
02E0
00A0
0680
ENDCHAR
STARTCHAR uni0453.loclMKD
ENCODING -1
SWIDTH 267 0
DWIDTH 4 0
BBX 5 15 0 0
BITMAP
01C0
0340
0600
0000
BF80
0000
0000
3D00
7C00
7C00
B800
F400
F480
FA40
B900
ENDCHAR
STARTCHAR uni0433.loclSRB
ENCODING -1
SWIDTH 267 0
DWIDTH 4 0
BBX 5 11 0 0
BITMAP
BF80
0000
0000
3D00
7C00
7C00
B800
F400
F480
FA40
B900
ENDCHAR
STARTCHAR uni043F.loclSRB
ENCODING -1
SWIDTH 505 0
DWIDTH 8 0
BBX 9 11 0 0
BITMAP
0FFC00
000000
000000
3D3D00
7C7C00
7C7800
B8B800
F4F400
F5F440
FAFA00
B9B900
ENDCHAR
STARTCHAR uni0442.loclSRB
ENCODING -1
SWIDTH 752 0
DWIDTH 12 0
BBX 13 10 0 0
BITMAP
0FFFFC00
00000000
3D3D3D00
7C7C7C00
7C78B800
B8B8B800
F4F4F400
F5F5F140
FAFAFA00
B9B8B900
ENDCHAR
STARTCHAR uni04150437
ENCODING -1
SWIDTH 940 0
DWIDTH 15 0
BBX 16 16 0 -4
BITMAP
01B90000
078A0000
0B460000
0B490000
07801F80
0B8052E0
3E0042F0
BD0102E0
BC0103D0
BC040B81
BD143F05
2F900B94
00002F80
00009B80
0000CF00
0000BD00
ENDCHAR
STARTCHAR uni04150445
ENCODING -1
SWIDTH 797 0
DWIDTH 13 0
BBX 14 12 0 0
BITMAP
01B90000
07860000
0B4A0000
0F450740
0B814740
07D2E240
2F01F600
7D01F800
BC00F400
FC01F450
BD0ABE80
2FA43E00
ENDCHAR
STARTCHAR uni04010437
ENCODING -1
SWIDTH 940 0
DWIDTH 15 0
BBX 16 19 0 -4
BITMAP
00934000
00E34000
00000000
01B90000
078A0000
0B460000
0B490000
07801F80
0B8052E0
3E0042F0
BD0102E0
BC0103D0
BC040B81
BD143F05
2F900B94
00002F80
00009B80
0000CF00
0000BD00
ENDCHAR
STARTCHAR uni04010445
ENCODING -1
SWIDTH 797 0
DWIDTH 13 0
BBX 14 15 0 0
BITMAP
00934000
00E34000
00000000
01B90000
07860000
0B4A0000
0F450740
0B814740
07D2E240
2F01F600
7D01F800
BC00F400
FC01F450
BD0ABE80
2FA43E00
ENDCHAR
STARTCHAR uni04210437
ENCODING -1
SWIDTH 973 0
DWIDTH 16 0
BBX 16 16 0 -4
BITMAP
01BE0000
07D34000
1F438000
2F060000
3E000BD0
7D0021F4
BC0040F4
BC0040F4
BC0141F0
BC0103D1
7E042F42
1BE007D4
00001BD0
000067C0
00005B80
00002E00
ENDCHAR
STARTCHAR uni04210445
ENCODING -1
SWIDTH 814 0
DWIDTH 13 0
BBX 14 12 0 0
BITMAP
01BE0000
07D34000
1F438000
2F020340
3E005280
7D01F180
BC00F600
BC00FD00
BC00B800
BC01F850
7E5A7D80
1BE42E40
ENDCHAR
STARTCHAR uni04040437
ENCODING -1
SWIDTH 973 0
DWIDTH 16 0
BBX 16 16 0 -4
BITMAP
01BE0000
07D34000
1F438000
2F060000
3E000BD0
7FF421F4
BC0040F4
BC0040F4
BC0141F0
BC0103D0
7E042F42
1BE007D4
00001BD0
000067C0
00005B80
00002E00
ENDCHAR
STARTCHAR uni04040445
ENCODING -1
SWIDTH 814 0
DWIDTH 13 0
BBX 14 12 0 0
BITMAP
01BE0000
07D34000
1F438000
2F020340
3E005280
7FF5F180
BC00F600
BC00FD00
BC00B800
BD01F850
7E5A7D80
1BE42E40
ENDCHAR
STARTCHAR uni04300445
ENCODING -1
SWIDTH 899 0
DWIDTH 14 0
BBX 16 9 -1 0
BITMAP
00000028
02FB8F2C
0B4F4F48
1E0F0B54
3D1F0BE0
3D2E07C0
7D3E0BC2
3EBFB7E9
1F5F91F4
ENDCHAR
STARTCHAR uni04300447
ENCODING -1
SWIDTH 993 0
DWIDTH 16 0
BBX 18 8 -1 0
BITMAP
02FB9F1F00
0B8F5F1F00
1F0F6E2E00
3E1F2E3D00
3D2E2FBD00
7D2E1FBC10
3D7E007C80
1F9F002E40
ENDCHAR
STARTCHAR uni04310433
ENCODING -1
SWIDTH 816 0
DWIDTH 13 0
BBX 14 12 0 0
BITMAP
00008000
07FF8000
07FE0000
01800000
0BD0BE00
3D725F40
BC391F00
F4787E00
F471F800
F0A3E010
F5C3D180
7E01F900
ENDCHAR
STARTCHAR uni04310453
ENCODING -1
SWIDTH 816 0
DWIDTH 13 0
BBX 14 12 0 0
BITMAP
00008740
07FF8A00
07FE0D00
01800400
0BD0BE00
3D725F40
BC391F00
F4787E00
F471F800
F0A3E010
F5C3D180
7E01F900
ENDCHAR
STARTCHAR uni04310451
ENCODING -1
SWIDTH 814 0
DWIDTH 13 0
BBX 14 12 0 0
BITMAP
01564000
07FF39D0
07F92490
01800000
0BD02F40
3D70F680
B832E280
F473DB00
F4B7F800
F0E7C050
FAC3E680
7E01F900
ENDCHAR
STARTCHAR uni04310436
ENCODING -1
SWIDTH 1261 0
DWIDTH 20 0
BBX 21 12 0 0
BITMAP
000080000000
07FF80000000
07FE00000000
018000000000
0BE1F83C2F00
3D7A2D7CB740
BC3C1E79E000
F8742FFFD000
F4702CF6D000
F0A138F2C040
F5CA75F2D200
7E07D1E0B900
ENDCHAR
STARTCHAR uni04310439
ENCODING -1
SWIDTH 935 0
DWIDTH 15 0
BBX 16 12 0 0
BITMAP
00018000
07FF7C20
07FD2E80
01800000
0BD0F5F0
3D71F1F0
BC32E2E0
F872E2E0
F473D3D0
F0A7D7C1
F5C7CBC4
7E02E6E4
ENDCHAR
STARTCHAR uni0431045E
ENCODING -1
SWIDTH 916 0
DWIDTH 15 0
BBX 16 16 -1 -4
BITMAP
00006000
01FFDB09
01FF8F18
00E006A0
00343D7C
02FC7C7C
0F5CB8B8
2E1CB8B4
3D1CF4F4
7C29F5F0
3D71F2F2
1F80BBF9
000007E0
000027D0
00006BC0
00002E40
ENDCHAR
STARTCHAR uni0431044D
ENCODING -1
SWIDTH 860 0
DWIDTH 14 0
BBX 13 12 0 0
BITMAP
00008000
07FF8000
07FE0000
01800000
0BD0BE40
3D7247C0
BC3D07C0
F8787FC0
F4700B80
F0A60F40
F5CA1E00
7E07E400
ENDCHAR
STARTCHAR uni04310456
ENCODING -1
SWIDTH 697 0
DWIDTH 11 0
BBX 12 12 0 0
BITMAP
06FF64
07FEB8
039074
00D000
0BE0F4
3D71F0
BC36E0
F872E0
F473D0
F0A7D1
F5C7C5
7E02E4
ENDCHAR
STARTCHAR uni04310457
ENCODING -1
SWIDTH 697 0
DWIDTH 11 0
BBX 12 12 0 0
BITMAP
015600
07FEEB
07E896
018000
0BD0F4
3D71F0
BC32E0
F872E0
F473D0
F0A7D1
F5C7C5
7E02E4
ENDCHAR
STARTCHAR uni04310458
ENCODING -1
SWIDTH 669 0
DWIDTH 11 0
BBX 12 16 -1 -4
BITMAP
000080
01FF9D
01FF6E
00E019
00343C
02FC7C
0F5CB8
2E1CB8
3D1CF4
7C29F0
3D71F2
1F82F9
000BE0
0037D0
0067C0
002E40
ENDCHAR
STARTCHAR uni04320433
ENCODING -1
SWIDTH 837 0
DWIDTH 13 0
BBX 14 12 0 0
BITMAP
02E00000
0B640000
1E240000
2D240000
3C306E00
78624F40
BAE81F40
F5F07F00
F475F800
F472E010
F4D3E080
6E41FE00
ENDCHAR
STARTCHAR uni04320453
ENCODING -1
SWIDTH 837 0
DWIDTH 13 0
BBX 14 12 0 0
BITMAP
02E00380
0B640B00
1E240D00
2D240000
3C306E00
78624F40
BAE81F40
F5F07F00
F475F800
F472E010
F4D3E080
6E41FE00
ENDCHAR
STARTCHAR uni04320436
ENCODING -1
SWIDTH 1279 0
DWIDTH 20 0
BBX 21 12 0 0
BITMAP
02E000000000
0B6400000000
1E2400000000
2D2400000000
3C31B82D1F40
78661E3D7680
BAE40E3CF140
F5F01FFFE000
F4701DBAE000
F4712CB6D040
F4D738F1E140
6E43E1F0BD00
ENDCHAR
STARTCHAR uni04320437
ENCODING -1
SWIDTH 824 0
DWIDTH 13 0
BBX 14 16 0 -4
BITMAP
02E00000
0B640000
1E240000
2D240000
3C31B900
78662E00
BAE81F00
F5F02F00
F4742E00
F4707C10
F4D3F050
6E40BA40
0001FC00
000AB800
000CF400
0007D000
ENDCHAR
STARTCHAR uni04320445
ENCODING -1
SWIDTH 851 0
DWIDTH 14 0
BBX 14 12 0 0
BITMAP
02E00000
0B640000
1E240000
2D240180
3C31F5D0
7866B890
BAE87980
F5F07E00
F4743D00
F470BD10
F4D26D20
6E491F80
ENDCHAR
STARTCHAR uni04330437
ENCODING -1
SWIDTH 840 0
DWIDTH 13 0
BBX 15 12 -1 -4
BITMAP
07E02F40
14F487C0
21F543D0
07E207D0
2F8507C0
7D041F44
7D20BD08
2F801FA0
00007F00
00019F00
00026E00
0001F800
ENDCHAR
STARTCHAR uni04330445
ENCODING -1
SWIDTH 740 0
DWIDTH 12 0
BBX 14 9 -1 0
BITMAP
00000740
07E3D780
14F6E240
21F5F600
07E1F800
2F80F400
7D02F410
7D197880
2F902E00
ENDCHAR
STARTCHAR uni04330447
ENCODING -1
SWIDTH 880 0
DWIDTH 14 0
BBX 16 8 -1 0
BITMAP
07E0F4F4
14F5F1F0
21F5F1F0
07E2E3E0
2F83FFD0
7D09FBD1
7D2403D9
2F9002E4
ENDCHAR
STARTCHAR uni04530437
ENCODING -1
SWIDTH 840 0
DWIDTH 13 0
BBX 15 16 -1 -4
BITMAP
001C0000
00340000
00700000
00000000
07E02F40
14F487C0
21F543D0
07E207D0
2F8507C0
7D041F44
7D20BD08
2F801FA0
00007F00
00019F00
00026E00
0001F800
ENDCHAR
STARTCHAR uni04530445
ENCODING -1
SWIDTH 740 0
DWIDTH 12 0
BBX 14 12 -1 0
BITMAP
002C0000
00340000
00600000
00000740
07E3D780
14F6E240
21F5F600
07E1F800
2F80F400
7D02F410
7D197880
2F902E00
ENDCHAR
STARTCHAR uni04530447
ENCODING -1
SWIDTH 880 0
DWIDTH 14 0
BBX 16 12 -1 0
BITMAP
001C0000
00340000
00700000
00000000
07E0F4F4
14F5F1F0
21F5F1F0
07E2E3E0
2F83FFD0
7D09FBD1
7D2403D9
2F9002E4
ENDCHAR
STARTCHAR uni04340447
ENCODING -1
SWIDTH 1010 0
DWIDTH 16 0
BBX 18 12 -1 -4
BITMAP
02FB8F4F40
0B8F4F5F00
1F0F1F1F00
3E1F2F2E00
3D2E2FBE00
7D2E2BBD10
3D7D903D50
1FBE402E40
01BC000000
0AB8000000
0CF4000000
07D0000000
ENDCHAR
STARTCHAR uni04340458
ENCODING -1
SWIDTH 746 0
DWIDTH 12 0
BBX 14 15 -1 -4
BITMAP
00000780
00000BC0
00000640
02FB8F40
0B8F4F40
1F0F1F00
3E1F2E00
3D2E2E00
7D2D3D10
3D7D7C90
1FBDBE40
00B8B800
04B8F400
0EFAF000
07DBD000
ENDCHAR
STARTCHAR uni04350437
ENCODING -1
SWIDTH 876 0
DWIDTH 14 0
BBX 16 12 -1 -4
BITMAP
02F41F80
0B5C52E0
1E2842E0
3D7502E0
3F9103D0
7D040B81
3D143E05
1F900BA4
00002F80
00009B80
0000CF00
0000BD00
ENDCHAR
STARTCHAR uni04350445
ENCODING -1
SWIDTH 762 0
DWIDTH 12 0
BBX 14 9 -1 0
BITMAP
00000280
02F5F2C0
0B5CF080
1F28F640
3D74BD00
3F90B800
7D00BC10
3E067E90
1BE42E40
ENDCHAR
STARTCHAR uni04350447
ENCODING -1
SWIDTH 889 0
DWIDTH 14 0
BBX 16 8 -1 0
BITMAP
02F4F4F4
0B5CF4F4
1E29F1F0
3D76F2E0
3F93FFE0
7D09BBD1
3D2403D5
1F9002F4
ENDCHAR
STARTCHAR uni04510437
ENCODING -1
SWIDTH 876 0
DWIDTH 14 0
BBX 16 15 -1 -4
BITMAP
02890000
038E0000
00000000
02F41F80
0B5C52E0
1E2842E0
3D7502E0
3F9103D0
7D040B81
3D143E05
1F900BA4
00002F80
00009B80
0000CF00
0000BD00
ENDCHAR
STARTCHAR uni04510445
ENCODING -1
SWIDTH 762 0
DWIDTH 12 0
BBX 14 11 -1 0
BITMAP
038E0000
028D0000
00000280
02F5F2C0
0B5CF080
1F28F640
3D74BD00
3F90B800
7D00BC10
3E067E90
1BE42E40
ENDCHAR
STARTCHAR uni04510447
ENCODING -1
SWIDTH 889 0
DWIDTH 14 0
BBX 16 11 -1 0
BITMAP
038E0000
028D0000
00000000
02F4F4F4
0B5CF4F4
1E29F1F0
3D76F2E0
3F93FFE0
7D09BBD1
3D1403D5
1F9002F4
ENDCHAR
STARTCHAR uni04360447
ENCODING -1
SWIDTH 1392 0
DWIDTH 22 0
BBX 24 8 -1 0
BITMAP
0B92E1F8F4F4
25E2D798F5F0
00F3CB01F1F0
00FFFE02F7E0
01E79E03FFE0
61DB9E05B7D1
A38B5E1803E9
7E0F07E002E4
ENDCHAR
STARTCHAR uni04370437
ENCODING -1
SWIDTH 921 0
DWIDTH 15 0
BBX 15 12 0 -4
BITMAP
07E02F80
24B853D0
20B843E0
50B903D0
80F507C0
42E10B40
0F857E08
03D80F54
02F01F90
1BE0AF40
33D19F00
2F40B900
ENDCHAR
STARTCHAR uni04380447
ENCODING -1
SWIDTH 1010 0
DWIDTH 16 0
BBX 17 8 0 0
BITMAP
3D3D3D3D00
7C7C3D7C00
7C787C7C00
B8B8BCB800
F4F4BEF400
F5F4AEF440
FAFA40FA40
B9B900BD00
ENDCHAR
STARTCHAR uni04390447
ENCODING -1
SWIDTH 1010 0
DWIDTH 16 0
BBX 17 11 0 0
BITMAP
0B09000000
07A4000000
0000000000
3D3D3D3D00
7C7C3D7C00
7C787C7C00
B8B8BCB800
F4F4BEF400
F5F4AEF440
FAFA40FA40
B9B900BD00
ENDCHAR
STARTCHAR uni043A0447
ENCODING -1
SWIDTH 1016 0
DWIDTH 16 0
BBX 18 8 -1 0
BITMAP
0F4B8B8B80
1F268F4F40
1FA00F1F00
2FFC1F2F00
3E3D2FFE00
3D3C2BAD10
7C3E903E90
B82F401F40
ENDCHAR
STARTCHAR uni045C0447
ENCODING -1
SWIDTH 1016 0
DWIDTH 16 0
BBX 18 12 -1 0
BITMAP
000E000000
002C000000
0034000000
0000000000
0F4B8B8B80
1F268F4F40
1FA00F1F00
2FFC1F2F00
3E3D2FFE00
3D3C2BAD10
7C3E903E90
B82F401F40
ENDCHAR
STARTCHAR uni043B0447
ENCODING -1
SWIDTH 1061 0
DWIDTH 17 0
BBX 19 8 -1 0
BITMAP
002FC3D3C0
0067C7C7C0
00DB8B8B80
00CB4B8F80
018F4FEF40
625F1BEF04
B71F201F10
7D0B800B90
ENDCHAR
STARTCHAR uni043C0447
ENCODING -1
SWIDTH 1276 0
DWIDTH 20 0
BBX 22 8 -1 0
BITMAP
007C0F8B8B80
00BC1F4F4F40
00FC3F0F4F00
00FC7F1F1F00
01BDEE2FBE00
617EAD3BAE10
A33F6E902EA0
7D3E1F401F40
ENDCHAR
STARTCHAR uni043D0447
ENCODING -1
SWIDTH 1011 0
DWIDTH 16 0
BBX 18 8 -1 0
BITMAP
0F4F4F4F40
1F0F0F1F00
1E1F1F1F00
2FFE2F7E00
3D2D2FFE00
3D3D2B7D10
7C3D403D50
B81E402E40
ENDCHAR
STARTCHAR uni043E0433
ENCODING -1
SWIDTH 804 0
DWIDTH 13 0
BBX 15 8 -1 0
BITMAP
02F81F80
0B9D93D0
1F2E07D0
3E1C1F80
3D1CBE00
7D29F414
3D71F450
1F80BE40
ENDCHAR
STARTCHAR uni043E0453
ENCODING -1
SWIDTH 804 0
DWIDTH 13 0
BBX 15 12 -1 0
BITMAP
000000B0
000000D0
00000280
00000000
02F81F80
0B9D93D0
1F2E07D0
3E1C1F80
3D1CBE00
7D29F414
3D71F450
1F80BE40
ENDCHAR
STARTCHAR uni043E0436
ENCODING -1
SWIDTH 1271 0
DWIDTH 20 0
BBX 22 8 -1 0
BITMAP
02F86E0B4BD0
0B9D878F2D90
1F2E079F3840
3E1C07FFF800
3D1C076DB400
7D2A4B3DB420
3D735D3C7850
1F81F87C2E40
ENDCHAR
STARTCHAR uni043E0437
ENCODING -1
SWIDTH 837 0
DWIDTH 13 0
BBX 15 12 -1 -4
BITMAP
02F42F40
0B9D87C0
1F2E07D0
3E1C07C0
3D1C0B80
7D281F44
3D70BD08
1F801F60
00006F00
00019F00
00026E00
0001F800
ENDCHAR
STARTCHAR uni043E043B
ENCODING -1
SWIDTH 992 0
DWIDTH 16 0
BBX 18 8 -1 0
BITMAP
02F400BF00
0B9C029E00
1F0D032E00
3E1C073D00
3D1C063D00
7D29897C10
3D76DC7C80
1FE5F42E40
ENDCHAR
STARTCHAR uni043E043C
ENCODING -1
SWIDTH 1207 0
DWIDTH 19 0
BBX 21 8 -1 0
BITMAP
02F401F03D00
0B5C02F0BD00
1E0D03F0FC00
3D1C03F2F800
3D1C06F7B800
7D3989FAB480
3EBB8CFCBA40
1FE4F4F87D00
ENDCHAR
STARTCHAR uni043E0445
ENCODING -1
SWIDTH 850 0
DWIDTH 14 0
BBX 15 9 -1 0
BITMAP
00000060
02F43D74
0B5C7E24
1F1EAE60
3E1D1F80
3D1C1F00
7C28AF44
3D718B88
1F81D7E0
ENDCHAR
STARTCHAR uni043E0459
ENCODING -1
SWIDTH 1179 0
DWIDTH 19 0
BBX 20 8 -1 0
BITMAP
02F400BF00
0B9C029E00
1F0D032EA4
3E1C072FBC
3D1C063D3D
7D29897C3C
3D76DC3CB4
1FE5F41F90
ENDCHAR
STARTCHAR uni043E044D
ENCODING -1
SWIDTH 867 0
DWIDTH 14 0
BBX 15 8 -1 0
BITMAP
02F81BD0
0B9D91F0
1F2E00F4
3E1C1FF0
3D1C01F0
7D2982D0
3D728780
1F80BD00
ENDCHAR
STARTCHAR uni043F0447
ENCODING -1
SWIDTH 1010 0
DWIDTH 16 0
BBX 18 8 -1 0
BITMAP
0FBD0F4F40
1F5E0F1F00
1E1E1F1F00
2E2E2F2E00
3D3D2FFE00
3D3D2BBD10
7C3D503D50
B82F402E40
ENDCHAR
STARTCHAR uni04400437
ENCODING -1
SWIDTH 890 0
DWIDTH 14 0
BBX 17 13 -2 -4
BITMAP
0190000000
03EF46E400
07D7D8BC00
0783D07C00
0B87C07C00
0F4780B800
0F4F41E040
1F6F0BD140
1FF801F900
2E0007F000
3D002AE000
3C0023D000
68001F8000
ENDCHAR
STARTCHAR uni04410437
ENCODING -1
SWIDTH 876 0
DWIDTH 14 0
BBX 16 12 -1 -4
BITMAP
02F41F80
0B5852E0
1F0442E0
3E0102E0
3D0103D0
7D040B81
3D143E05
1F900BA4
00002F80
00009B80
0000CF00
0000BD00
ENDCHAR
STARTCHAR uni04410445
ENCODING -1
SWIDTH 755 0
DWIDTH 12 0
BBX 14 9 -1 0
BITMAP
00000240
02F5F380
0F69F180
2E14F600
3D00FD00
7C00B800
7C01F810
3D067E80
1FE42E40
ENDCHAR
STARTCHAR uni04410447
ENCODING -1
SWIDTH 889 0
DWIDTH 14 0
BBX 16 8 -1 0
BITMAP
02F4F4F4
0B5CF4F4
1F15F1F0
3E02F2E0
3D03FBE0
7D09BBD1
3D2403D5
1F9002F4
ENDCHAR
STARTCHAR uni0441044A
ENCODING -1
SWIDTH 841 0
DWIDTH 13 0
BBX 14 8 -1 0
BITMAP
02F8BE00
0B5ACC00
1F002FE0
3E0074F0
3D01F0F0
7D02F1F0
3D19F2D0
1F90BE40
ENDCHAR
STARTCHAR uni04420447
ENCODING -1
SWIDTH 1257 0
DWIDTH 20 0
BBX 22 8 -1 0
BITMAP
0FBEBD0F4F40
1F6F6E1F1F00
1E2E2E1F1F00
2E2E2E2E2E00
3D3D3D2FFD00
3D3C3C2BBD10
7C7C3C403D50
B8B82F402E40
ENDCHAR
STARTCHAR uni04430447
ENCODING -1
SWIDTH 989 0
DWIDTH 16 0
BBX 17 12 0 -4
BITMAP
3D3D7C7C00
7C7C7CB800
7C78B8B800
B8B8F8F400
F4F4FFF000
F4F5BEF040
FAF201F600
BAF900B800
0BE0000000
27D0000000
6BC0000000
2E40000000
ENDCHAR
STARTCHAR uni04430458
ENCODING -1
SWIDTH 725 0
DWIDTH 12 0
BBX 12 15 0 -4
BITMAP
00002D
00003E
000018
3D3D7C
7C7C7C
7C78B8
B8B8F4
F4F4F4
F5F1F1
FBF2E6
BAE6F8
0BEBD0
37D3C0
67C780
2FBE00
ENDCHAR
STARTCHAR uni045E0447
ENCODING -1
SWIDTH 989 0
DWIDTH 16 0
BBX 17 15 0 -4
BITMAP
0B05000000
0F18000000
06A0000000
3D3D7C7C00
7C7C7CB800
7C78B8B800
B8B8F8F400
F4F4FFF000
F4F5BEF040
FAF201F600
BAF900B800
0BE0000000
27D0000000
6BC0000000
2E40000000
ENDCHAR
STARTCHAR uni045E0458
ENCODING -1
SWIDTH 725 0
DWIDTH 12 0
BBX 12 15 0 -4
BITMAP
0A052D
0F183E
06A01D
3D3D7C
7C7C7C
7C78B8
B8B8F4
F4F4F4
F5F1F1
FBF2E6
BAE6F8
07E3D0
23D7C0
6BEB80
2E6E00
ENDCHAR
STARTCHAR uni04440437
ENCODING -1
SWIDTH 1148 0
DWIDTH 18 0
BBX 20 15 -1 -4
BITMAP
0002C00000
0007C00000
000B800000
02FBBD0BD0
0F8F4F61F0
1F0F0F81F4
3D1E0F01F0
3D2E0F02E0
7C2D1E07C1
3D7D7C2F42
1FBFE407D8
0078001FC0
00B40067C0
00F4009B40
00E0007E00
ENDCHAR
STARTCHAR uni04450447
ENCODING -1
SWIDTH 1027 0
DWIDTH 16 0
BBX 17 9 0 0
BITMAP
000A000000
0B8B2E2E00
12D23D3D00
12E93D3D00
41F47CBC00
81E07FF800
47F0AEB840
18F540B840
207D007D00
ENDCHAR
STARTCHAR uni0445044A
ENCODING -1
SWIDTH 1006 0
DWIDTH 16 0
BBX 16 9 0 0
BITMAP
000A0000
0B8B2FC0
22D67240
12E807B8
81F00E2D
82F02D2D
06F07C3C
18F5BD78
707E2F90
ENDCHAR
STARTCHAR uni04470447
ENCODING -1
SWIDTH 1010 0
DWIDTH 16 0
BBX 17 8 0 0
BITMAP
3D3D3D3D00
7C7C3D7C00
7C787C7C00
B8B8BCB800
BEF4BEF400
3EF4AEF440
00FA40FA40
00B900BD00
ENDCHAR
STARTCHAR uni04480447
ENCODING -1
SWIDTH 1257 0
DWIDTH 20 0
BBX 21 8 0 0
BITMAP
3D3D3D3D3D00
7C7C7C7C7C00
7C78B87C7C00
B8B8B8B8B800
F4F4F4FEF400
F5F5F1AEF440
FAFAFA00FA40
B9B8B900B900
ENDCHAR
STARTCHAR uni045F0447
ENCODING -1
SWIDTH 1010 0
DWIDTH 16 0
BBX 17 12 0 -4
BITMAP
3D3D3D3D00
7C7C3D7C00
7C787C7C00
B8B8BCB800
F4F4BEF400
F5F4AEF440
FAFA40FA40
B9B900BD00
0300000000
0B40000000
0780000000
0340000000
ENDCHAR
STARTCHAR uni044B0447
ENCODING -1
SWIDTH 1157 0
DWIDTH 19 0
BBX 19 8 0 0
BITMAP
3D01E2E2E0
7C1BD2D3D0
7AE3D3D3D0
B8A7C7DBC0
F4A787FF80
F0DB89EB84
F6CBE80BE8
7E07E007E0
ENDCHAR
STARTCHAR uni04550437
ENCODING -1
SWIDTH 840 0
DWIDTH 13 0
BBX 15 13 -1 -4
BITMAP
00500000
03E02F40
07E087C0
0AE143D0
09F107D0
25F107C0
75F41F44
62F0BD08
2F901FA0
00007F00
00019F00
00026E00
0001F800
ENDCHAR
STARTCHAR uni04550445
ENCODING -1
SWIDTH 727 0
DWIDTH 12 0
BBX 13 9 -1 0
BITMAP
01500700
03E3D740
07E2E200
0AF1E600
19F1F800
25F0F400
75F6F480
62F8BE80
2F803E00
ENDCHAR
STARTCHAR uni04550447
ENCODING -1
SWIDTH 909 0
DWIDTH 15 0
BBX 16 9 -1 0
BITMAP
00500000
03E0B8B8
07E0B8B8
0AE0F4F4
19F1F5F0
25F2FBF0
75F6BAE1
62F802E6
2F8001F8
ENDCHAR
STARTCHAR uni04540437
ENCODING -1
SWIDTH 876 0
DWIDTH 14 0
BBX 16 12 -1 -4
BITMAP
02F41F80
0B5852E0
1E0042E0
3FD102E0
3D0103D0
7D040B81
3D143E09
1F900BA4
00002F80
00009B80
0000CF00
0000BD00
ENDCHAR
STARTCHAR uni04540445
ENCODING -1
SWIDTH 755 0
DWIDTH 12 0
BBX 14 9 -1 0
BITMAP
00000240
02F5F380
0F69F180
2E14F600
3FD0FD00
7C00B800
7C01F860
3D0A7E80
1FE42E40
ENDCHAR
STARTCHAR uni04540447
ENCODING -1
SWIDTH 889 0
DWIDTH 14 0
BBX 16 8 -1 0
BITMAP
02F4F4F4
0B58F4F4
1E15F1F0
3FD2F7E0
3D03FFE0
7D09B7D1
3D1403D5
1F9001F4
ENDCHAR
STARTCHAR uni044D0437
ENCODING -1
SWIDTH 837 0
DWIDTH 13 0
BBX 15 12 -1 -4
BITMAP
07F42F40
147D87C0
003E07D0
07FC07C0
00780B80
10B41F44
A1E0BD18
6F401FA0
00007F00
00019F00
00026E00
0001F800
ENDCHAR
STARTCHAR uni04560447
ENCODING -1
SWIDTH 763 0
DWIDTH 12 0
BBX 13 12 0 0
BITMAP
19000000
2F000000
1E000000
00000000
3D3D3D00
7C3D3C00
7C7C7C00
B8BCB800
F4BEF800
F4AEF440
FA40FA40
B900BD00
ENDCHAR
STARTCHAR uni04570447
ENCODING -1
SWIDTH 763 0
DWIDTH 12 0
BBX 13 11 0 0
BITMAP
B2C00000
62800000
00000000
3D3D3D00
7C3D3C00
7C7C7C00
B8BCB800
F4BEF800
F4AEF440
FA40FA40
B900BD00
ENDCHAR
STARTCHAR uni04570457
ENCODING -1
SWIDTH 543 0
DWIDTH 9 0
BBX 10 11 0 0
BITMAP
B769D0
6769C0
000000
3D2E00
7C3D00
7C7C00
B87C00
F4B800
F4F880
FAFA80
B97D00
ENDCHAR
STARTCHAR uni04580447
ENCODING -1
SWIDTH 743 0
DWIDTH 12 0
BBX 17 15 -4 -4
BITMAP
001D000000
002E000000
0019000000
003D7C7C00
007C7C7C00
007CB8B800
00B8B8F400
00F4FEF400
00F5BEF040
01F201F600
01F900B900
0BE0000000
27D0000000
67C0000000
2E40000000
ENDCHAR
STARTCHAR uni04580458
ENCODING -1
SWIDTH 480 0
DWIDTH 8 0
BBX 11 15 -3 -4
BITMAP
007474
00B8F8
006464
00F5F0
01F1F0
01F2E0
02E3D0
02D3D0
03D7C8
07CB98
07EFD0
1B8F40
8F4F40
EFAE00
B9B800
ENDCHAR
STARTCHAR uni045B0447
ENCODING -1
SWIDTH 990 0
DWIDTH 16 0
BBX 17 16 -1 -4
BITMAP
0040000000
07C0000000
0B80000000
2FF4000000
0F401F1F00
1FBD2E2E00
1F2E2E3D00
2E2E3D7D00
3D3D7FFC00
3D3C6EBC40
7C7C807D80
B8BE003E00
06F8000000
0DF4000000
19F0000000
0B90000000
ENDCHAR
STARTCHAR uni045B0458
ENCODING -1
SWIDTH 722 0
DWIDTH 12 0
BBX 13 15 -1 -4
BITMAP
06800B40
0B800B40
2FF40000
0F401F00
1FBD2E00
1F2E2E00
2E2E3D00
3D3D3C00
3D3C7C80
7C7CB940
B8B8B900
02F4F400
08F5F000
1EF6E000
0B9B8000
ENDCHAR
STARTCHAR uni044E0433
ENCODING -1
SWIDTH 1050 0
DWIDTH 17 0
BBX 18 8 -1 0
BITMAP
0F42F42F80
1F1F6D87D0
1F2E2E07C0
2FFD1C2F80
3D7C28BD00
3D7C35F410
7C7CA1F050
B82F80BE40
ENDCHAR
STARTCHAR uni044E0453
ENCODING -1
SWIDTH 1050 0
DWIDTH 17 0
BBX 18 12 -1 0
BITMAP
00000000E0
00000001C0
0000000240
0000000000
0F42F42F80
1F1F6D87D0
1F2E2E07C0
2FFD1C2F80
3D7C28BD00
3D7C35F410
7C7CA1F050
B82F80BE40
ENDCHAR
STARTCHAR uni044E0436
ENCODING -1
SWIDTH 1507 0
DWIDTH 24 0
BBX 26 8 -1 0
BITMAP
0F42F47E0F0BC0
1F1F5D8B5F2CD0
1F2E2E0B5E7840
2FFD1C0BFFF400
3D7C280B3DF000
3D7C364E3CF010
7C7CA35D78B480
B82F82F4B82E00
ENDCHAR
STARTCHAR uni044E0437
ENCODING -1
SWIDTH 1073 0
DWIDTH 17 0
BBX 19 12 -1 -4
BITMAP
0F42F46E00
1F1F6D8B80
1F2E2D07C0
2FFD1C0BC0
3D7C280B80
3D7C341F04
7C7CA0FC14
B82F802E90
0000007F00
000002AE00
0000033D00
000001F400
ENDCHAR
STARTCHAR uni044E043B
ENCODING -1
SWIDTH 1228 0
DWIDTH 20 0
BBX 21 8 -1 0
BITMAP
0F42F400BE00
1F1F58026E00
1F2E1C032D00
2FFD1C063D00
3D7C28097C00
3D7C368C7840
7C7C77987880
B82FE5F42E00
ENDCHAR
STARTCHAR uni044E043C
ENCODING -1
SWIDTH 1443 0
DWIDTH 23 0
BBX 25 8 -1 0
BITMAP
0F42F402E07D00
1F1F5803E0BC00
1F2E1C03E1FC00
2FFD1C07E2F800
3D7C280AF2F400
3D7C3589F9F440
7C7C7789F8F500
B82FE5A4F4BD00
ENDCHAR
STARTCHAR uni044E0445
ENCODING -1
SWIDTH 1088 0
DWIDTH 17 0
BBX 19 9 -1 0
BITMAP
00000000A0
0F42F43CB0
1F1F5CBD20
1F2E2E6E90
2FFD1C2F40
3D7C287F00
3D7C35DF04
7C7CA24F54
B82F82C7D0
ENDCHAR
STARTCHAR uni044E0459
ENCODING -1
SWIDTH 1415 0
DWIDTH 23 0
BBX 23 8 -1 0
BITMAP
0F42F400BE00
1F1F58026E00
1F2E1C032EE4
2FFD1C063DBC
3D7C28097C3C
3D7C368C7878
7C7C779878B4
B82FE5F42F90
ENDCHAR
STARTCHAR uni044E044D
ENCODING -1
SWIDTH 1103 0
DWIDTH 18 0
BBX 18 8 -1 0
BITMAP
0F42F42F90
1F1F5D92E0
1F2E2E01F0
2FFD1C1FF0
3D7C2802E0
3D7C3583D0
7C7CA28B40
B82F81F900
ENDCHAR
STARTCHAR uni044F0447
ENCODING -1
SWIDTH 1030 0
DWIDTH 16 0
BBX 18 8 -1 0
BITMAP
01BF8B8B80
078B4B4F40
0F0F4F4F40
0F5F1F6F00
07FE1FFF00
626E2BAE10
B72E102E10
7D1F801F80
ENDCHAR
STARTCHAR uni04300445.liga
ENCODING -1
SWIDTH 884 0
DWIDTH 14 0
BBX 15 9 -1 0
BITMAP
00000028
02FB8F2C
0B4F4F48
1E0F0B94
3D1F0BE0
3D2E07C0
7D3E0BC0
3EBFB7E4
1F5F91E0
ENDCHAR
STARTCHAR uni04300447.liga
ENCODING -1
SWIDTH 947 0
DWIDTH 15 0
BBX 16 8 -1 0
BITMAP
02FB9F1F
0B8F5F1F
1F0F6E2E
3E1F2E3D
3D2E2FBD
7D2E1FBC
3D7E007C
1F9F002E
ENDCHAR
STARTCHAR uni04310451.liga
ENCODING -1
SWIDTH 746 0
DWIDTH 12 0
BBX 14 12 0 0
BITMAP
01564000
07FF39D0
07F92490
01800000
0BD02F40
3D70F680
B832E280
F473DB00
F4B7F800
F0E7C000
FAC3EA00
7E01F800
ENDCHAR
STARTCHAR uni04310436.liga
ENCODING -1
SWIDTH 1258 0
DWIDTH 20 0
BBX 21 12 0 0
BITMAP
000080000000
07FF80000000
07FE00000000
018000000000
0BE1F83C2F40
3D7A2D7CB740
BC3C1E79E000
F8742FFFD000
F4702CF6D000
F0A138F2C000
F5CA75F2D100
7E07D1E0BD00
ENDCHAR
STARTCHAR uni04310439.liga
ENCODING -1
SWIDTH 901 0
DWIDTH 14 0
BBX 14 12 0 0
BITMAP
00018000
07FF7C20
07FD2E80
01800000
0BD0F5F0
3D71F1F0
BC32E2E0
F872E2E0
F473D3D0
F0A7D7C0
F5C7CBC0
7E02E6E0
ENDCHAR
STARTCHAR uni0431045E.liga
ENCODING -1
SWIDTH 890 0
DWIDTH 14 0
BBX 16 16 -1 -4
BITMAP
00006000
01FFDB09
01FF8F18
00E006A0
00343C7C
02FC7C7C
0F5CB8B8
2E1CB8B4
3D1CF4F4
7C29F1F0
3EB1FBF0
1F80BAE0
00001BD0
000063D0
00005780
00002E00
ENDCHAR
STARTCHAR uni04310456.liga
ENCODING -1
SWIDTH 639 0
DWIDTH 10 0
BBX 11 12 0 0
BITMAP
06FF64
07FEB8
039074
00D000
0BE0F4
3D71F0
BC36E0
F872E0
F473D0
F0A7D0
F5C7C0
7E02E0
ENDCHAR
STARTCHAR uni04310457.liga
ENCODING -1
SWIDTH 638 0
DWIDTH 10 0
BBX 12 12 0 0
BITMAP
015600
07FEEB
07E896
018000
0BD0F0
3D71F0
BC32E0
F872E0
F473D0
F0A7D0
F5C7C0
7E02E0
ENDCHAR
STARTCHAR uni04310458.liga
ENCODING -1
SWIDTH 638 0
DWIDTH 10 0
BBX 12 16 -1 -4
BITMAP
000080
01FF9D
01FF6E
00E019
00343D
02FC7C
0F5CB8
2E1CB8
3D1CF4
7C29F0
3D71F0
1F82E0
001BE0
0063D0
0067C0
002E00
ENDCHAR
STARTCHAR uni04320436.liga
ENCODING -1
SWIDTH 1275 0
DWIDTH 20 0
BBX 21 12 0 0
BITMAP
02E000000000
0B6400000000
1E2400000000
2D2400000000
3C31B82D1F40
78661E3D7680
BAE40E3CF140
F5F01FFFE000
F4701DBAE000
F4712CB6D000
F4D738F1E100
6E43E1F0BE00
ENDCHAR
STARTCHAR uni04320437.liga
ENCODING -1
SWIDTH 752 0
DWIDTH 12 0
BBX 12 16 0 -4
BITMAP
02E000
0B6400
1E2400
2D2400
3C31B9
78662E
BAE81F
F5F02F
F4742E
F4707C
F4D3F0
6E40B8
0002BC
0009B8
000CF4
0007E0
ENDCHAR
STARTCHAR uni04320445.liga
ENCODING -1
SWIDTH 842 0
DWIDTH 13 0
BBX 14 12 0 0
BITMAP
02E00000
0B640000
1E240000
2D240180
3C31F5D0
7866B890
BAE87980
F5F07E00
F4743D00
F470BD00
F4D26E00
6E491F40
ENDCHAR
STARTCHAR uni04330437.liga
ENCODING -1
SWIDTH 768 0
DWIDTH 12 0
BBX 14 12 -1 -4
BITMAP
07E02F40
14F487C0
21F543D0
07E207D0
2F8507C0
7D041F40
7D20BD00
2F801F00
0000AF00
00025F00
00026E00
0001F800
ENDCHAR
STARTCHAR uni04330445.liga
ENCODING -1
SWIDTH 725 0
DWIDTH 12 0
BBX 13 9 -1 0
BITMAP
00000740
07E3D780
14F6E240
21F5F600
07E1F800
2F80F400
7D02F400
7D197900
2F902D00
ENDCHAR
STARTCHAR uni04330447.liga
ENCODING -1
SWIDTH 834 0
DWIDTH 13 0
BBX 15 8 -1 0
BITMAP
07E0F4F4
14F5F1F0
21F5F1E0
07E2E3E0
2F83FFD0
7D09FBD0
7D2403D0
2F9002E0
ENDCHAR
STARTCHAR uni04530437.liga
ENCODING -1
SWIDTH 768 0
DWIDTH 12 0
BBX 14 16 -1 -4
BITMAP
001C0000
00340000
00700000
00000000
07E02F40
14F487C0
21F543D0
07E207D0
2F8507C0
7D041F40
7D20BD00
2F801F00
0000AF00
00025F00
00026E00
0001F800
ENDCHAR
STARTCHAR uni04530445.liga
ENCODING -1
SWIDTH 725 0
DWIDTH 12 0
BBX 13 12 -1 0
BITMAP
002C0000
00340000
00600000
00000740
07E3D780
14F6E240
21F5F600
07E1F800
2F80F400
7D02F400
7D197900
2F902D00
ENDCHAR
STARTCHAR uni04530447.liga
ENCODING -1
SWIDTH 834 0
DWIDTH 13 0
BBX 15 12 -1 0
BITMAP
001C0000
00340000
00700000
00000000
07E0F4F4
14F5F1F0
21F5F1E0
07E2E3E0
2F83FFD0
7D09FBD0
7D2403D0
2F9002E0
ENDCHAR
STARTCHAR uni04340447.liga
ENCODING -1
SWIDTH 965 0
DWIDTH 15 0
BBX 17 12 -1 -4
BITMAP
02FB8F4F40
0B8F4F5F00
1F0F1F1F00
3E1F2F2E00
3D2E2FBE00
7D2E2BBD00
3D7D903D00
1FBE402E00
01BC000000
0AB8000000
0CF4000000
07D0000000
ENDCHAR
STARTCHAR uni04340458.liga
ENCODING -1
SWIDTH 715 0
DWIDTH 11 0
BBX 13 15 -1 -4
BITMAP
00000780
00000BC0
00000640
02FB8F40
0B8F4F40
1F0F1F00
3E1F2E00
3D2E2E00
7D2D3D00
3D7D7C00
1FBDBC00
00B8B800
04B8F400
0EFAF000
07DBD000
ENDCHAR
STARTCHAR uni04350437.liga
ENCODING -1
SWIDTH 804 0
DWIDTH 13 0
BBX 14 12 -1 -4
BITMAP
02F41F80
0B5C52E0
1E2842E0
3D7502E0
3F9103D0
7D040B80
3D143E00
1F900B40
00006B80
0000CB80
00008F40
0000BD00
ENDCHAR
STARTCHAR uni04350445.liga
ENCODING -1
SWIDTH 747 0
DWIDTH 12 0
BBX 13 9 -1 0
BITMAP
00000280
02F5F2C0
0B5CF080
1F28F640
3D74BD00
3F90B800
7D00BC00
3E067D00
1BE42E00
ENDCHAR
STARTCHAR uni04350447.liga
ENCODING -1
SWIDTH 844 0
DWIDTH 14 0
BBX 15 8 -1 0
BITMAP
02F4F4F4
0B5CF4F4
1E29F1F0
3D76F2E0
3F93FFE0
7D09BBD0
3D2403D0
1F9002F0
ENDCHAR
STARTCHAR uni04510437.liga
ENCODING -1
SWIDTH 804 0
DWIDTH 13 0
BBX 14 15 -1 -4
BITMAP
02890000
038E0000
00000000
02F41F80
0B5C52E0
1E2842E0
3D7502E0
3F9103D0
7D040B80
3D143E00
1F900B40
00006B80
0000CB80
00008F40
0000BD00
ENDCHAR
STARTCHAR uni04510445.liga
ENCODING -1
SWIDTH 747 0
DWIDTH 12 0
BBX 13 11 -1 0
BITMAP
038E0000
028D0000
00000280
02F5F2C0
0B5CF080
1F28F640
3D74BD00
3F90B800
7D00BC00
3E067D00
1BE42E00
ENDCHAR
STARTCHAR uni04510447.liga
ENCODING -1
SWIDTH 844 0
DWIDTH 14 0
BBX 15 11 -1 0
BITMAP
038E0000
028D0000
00000000
02F4F4F4
0B5CF4F4
1E29F1F0
3D76F2E0
3F93FFE0
7D09BBD0
3D2403D0
1F9002F0
ENDCHAR
STARTCHAR uni04360447.liga
ENCODING -1
SWIDTH 1341 0
DWIDTH 21 0
BBX 23 8 -1 0
BITMAP
0B92E1F8F4F4
25E2D798F5F0
00F3CB01F1F0
00FFFE02F7E0
01E79E03FFE0
61DB9E05B7D0
A38B5E1803E0
7E0F07E002E0
ENDCHAR
STARTCHAR uni04370437.liga
ENCODING -1
SWIDTH 849 0
DWIDTH 14 0
BBX 14 12 0 -4
BITMAP
07E02F80
24B853D0
20B843E0
50B903D0
80F507C0
42E10B40
0F857E00
03D81F40
02F01F40
1BE09F40
33D19F00
2F40B900
ENDCHAR
STARTCHAR uni04380447.liga
ENCODING -1
SWIDTH 964 0
DWIDTH 15 0
BBX 16 8 0 0
BITMAP
3D3D3D3D
7C7C3D7C
7C787C7C
B8B8BCB8
F4F4BEF4
F5F4AEF4
FAFA40F8
B9B900B8
ENDCHAR
STARTCHAR uni04390447.liga
ENCODING -1
SWIDTH 964 0
DWIDTH 15 0
BBX 16 11 0 0
BITMAP
0B090000
07A40000
00000000
3D3D3D3D
7C7C3D7C
7C787C7C
B8B8BCB8
F4F4BEF4
F5F4AEF4
FAFA40F8
B9B900B8
ENDCHAR
STARTCHAR uni043A0447.liga
ENCODING -1
SWIDTH 978 0
DWIDTH 16 0
BBX 17 8 -1 0
BITMAP
0F4B8B8B80
1F268F4F40
1FA00F1F00
2FFC1F2F00
3E3D2FFE00
3D3C2BAE00
7C3E902E40
B82F401F40
ENDCHAR
STARTCHAR uni045C0447.liga
ENCODING -1
SWIDTH 978 0
DWIDTH 16 0
BBX 17 12 -1 0
BITMAP
000E000000
002C000000
0034000000
0000000000
0F4B8B8B80
1F268F4F40
1FA00F1F00
2FFC1F2F00
3E3D2FFE00
3D3C2BAE00
7C3E902E40
B82F401F40
ENDCHAR
STARTCHAR uni043B0447.liga
ENCODING -1
SWIDTH 1015 0
DWIDTH 16 0
BBX 17 8 -1 0
BITMAP
002FC3D3C0
0067C7C7C0
00DB8B8B80
00CB4B8F80
018F4FEF40
625F1BEF00
B71F201F00
7D0B800B80
ENDCHAR
STARTCHAR uni043C0447.liga
ENCODING -1
SWIDTH 1231 0
DWIDTH 20 0
BBX 21 8 -1 0
BITMAP
007C0F8B8B80
00BC1F4F4F40
00FC3F0F4F00
00FC7F1F1F00
01BDEE2FBE00
617EAD3BAE00
A33F6E902E40
7D3E1F401F40
ENDCHAR
STARTCHAR uni043D0447.liga
ENCODING -1
SWIDTH 965 0
DWIDTH 15 0
BBX 17 8 -1 0
BITMAP
0F4F4F4F40
1F0F0F1F00
1E1F1F1F00
2FFE2F7E00
3D2D2FFE00
3D3D2B7D00
7C3D403D00
B81E402E00
ENDCHAR
STARTCHAR uni043E0436.liga
ENCODING -1
SWIDTH 1268 0
DWIDTH 20 0
BBX 22 8 -1 0
BITMAP
02F86E0B4BD0
0B9D878F2DA0
1F2E079F3C40
3E1C07FFF800
3D1C076DB400
7D2A4B3DB400
3D735D3C7840
1F81F87C2F40
ENDCHAR
STARTCHAR uni043E0437.liga
ENCODING -1
SWIDTH 765 0
DWIDTH 12 0
BBX 14 12 -1 -4
BITMAP
02F42F40
0B9D87C0
1F2E07D0
3E1C07C0
3D1C0B80
7D281F40
3D70BD00
1F801F00
0000AF00
00025F00
00026E00
0001F800
ENDCHAR
STARTCHAR uni043E043B.liga
ENCODING -1
SWIDTH 945 0
DWIDTH 15 0
BBX 16 8 -1 0
BITMAP
02F400BF
0B9C029F
1F0D032E
3E1C072D
3D1C063D
7D29897C
3D76DC7C
1FE5F42E
ENDCHAR
STARTCHAR uni043E043C.liga
ENCODING -1
SWIDTH 1161 0
DWIDTH 19 0
BBX 20 8 -1 0
BITMAP
02F401F03D
0B9C02F07D
1F0D03F0FC
3E1C03F1FC
3D1C06F2B8
7D2849F6B4
3D76CCFCB4
1FE5B4F87D
ENDCHAR
STARTCHAR uni043E0445.liga
ENCODING -1
SWIDTH 835 0
DWIDTH 13 0
BBX 15 9 -1 0
BITMAP
00000060
02F43D74
0B5C7E24
1F1EAE60
3E1D1F80
3D1C1F00
7C28AF40
3D718B90
1F81D7D0
ENDCHAR
STARTCHAR uni043F0447.liga
ENCODING -1
SWIDTH 965 0
DWIDTH 15 0
BBX 17 8 -1 0
BITMAP
0FBD0F4F40
1F5E0F1F00
1E1E1F1F00
2E2E2F2E00
3D3D2FFE00
3D3D2BBD00
7C3D503D00
B82F402E00
ENDCHAR
STARTCHAR uni04400437.liga
ENCODING -1
SWIDTH 818 0
DWIDTH 13 0
BBX 15 13 -2 -4
BITMAP
01900000
03EF46E4
07D7D8BC
0783D07C
0B87C07C
0F4780B8
0F4F41E0
1F6F0BC0
1FF801E0
2E000AF0
3D0025F0
3C0032D0
68001F80
ENDCHAR
STARTCHAR uni04410437.liga
ENCODING -1
SWIDTH 804 0
DWIDTH 13 0
BBX 14 12 -1 -4
BITMAP
02F41F80
0B5852E0
1F0442E0
3E0102E0
3D0103D0
7D040B80
3D143E00
1F900B40
00006B80
0000CB80
00008F40
0000BD00
ENDCHAR
STARTCHAR uni04410445.liga
ENCODING -1
SWIDTH 740 0
DWIDTH 12 0
BBX 13 9 -1 0
BITMAP
00000240
02F5F380
0F69F180
2E14F240
3D00F900
7C00B800
7C00F800
3D06BD00
1FE42E00
ENDCHAR
STARTCHAR uni04410447.liga
ENCODING -1
SWIDTH 843 0
DWIDTH 13 0
BBX 15 8 -1 0
BITMAP
02F4F4F4
0B5CF4F4
1F15F1F0
3E02F2E0
3D03FBE0
7D09BBD0
3D2403D0
1F9002E0
ENDCHAR
STARTCHAR uni04420447.liga
ENCODING -1
SWIDTH 1211 0
DWIDTH 19 0
BBX 21 8 -1 0
BITMAP
0FBEBD0F4F40
1F6F6E1F1F00
1E2E2E1F1F00
2E2E2E2E2E00
3D3D3D2FFD00
3D3C3C2BBD00
7C7C3C403D00
B8B82F402E00
ENDCHAR
STARTCHAR uni04430447.liga
ENCODING -1
SWIDTH 943 0
DWIDTH 15 0
BBX 15 12 0 -4
BITMAP
3D3D7C7C
7C7C7CB8
7C78B8B8
B8B8F8F4
F4F4FFF0
F4F5BEF0
FAF201F4
BAF900B8
0BE00000
27D00000
6BC00000
2E400000
ENDCHAR
STARTCHAR uni04430458.liga
ENCODING -1
SWIDTH 694 0
DWIDTH 11 0
BBX 12 15 0 -4
BITMAP
00002D
00003E
000018
3D3D7C
7C7C7C
7C78B8
B8B8F4
F4F4F4
F5F1F0
FBF2E0
BAE6E0
0BEBD0
37D3C0
67C780
2FBE00
ENDCHAR
STARTCHAR uni045E0447.liga
ENCODING -1
SWIDTH 943 0
DWIDTH 15 0
BBX 15 15 0 -4
BITMAP
0B050000
0F180000
06A00000
3D3D7C7C
7C7C7CB8
7C78B8B8
B8B8F8F4
F4F4FFF0
F4F5BEF0
FAF201F4
BAF900B8
0BE00000
27D00000
6BC00000
2E400000
ENDCHAR
STARTCHAR uni045E0458.liga
ENCODING -1
SWIDTH 694 0
DWIDTH 11 0
BBX 12 15 0 -4
BITMAP
0A052D
0F183E
06A01D
3D3D7C
7C7C7C
7C78B8
B8B8F4
F4F4F4
F5F1F0
FBF2E0
BAE6E0
07E3D0
23D7C0
6BEB80
2E6E00
ENDCHAR
STARTCHAR uni04440437.liga
ENCODING -1
SWIDTH 1076 0
DWIDTH 17 0
BBX 19 15 -1 -4
BITMAP
0002C00000
0007C00000
000B800000
02FBBD0BD0
0F8F4F61F0
1F0F0F81F4
3D1E0F01F0
3D2E0F02E0
7C2D1E07C0
3D7D7C2F40
1FBFE407C0
0078002BC0
00B40097C0
00F4009B80
00E0007E00
ENDCHAR
STARTCHAR uni04450447.liga
ENCODING -1
SWIDTH 981 0
DWIDTH 16 0
BBX 16 9 0 0
BITMAP
000A0000
0B8B2E2E
12D23D3D
12E93D3D
41F47CBC
81E07FF8
47F0AEB8
18F540B8
207D007D
ENDCHAR
STARTCHAR uni04470447.liga
ENCODING -1
SWIDTH 964 0
DWIDTH 15 0
BBX 16 8 0 0
BITMAP
3D3D3D3D
7C7C3D7C
7C787C7C
B8B8BCB8
BEF4BEF4
3EF4AEF4
00FA40F8
00B900B8
ENDCHAR
STARTCHAR uni04480447.liga
ENCODING -1
SWIDTH 1211 0
DWIDTH 19 0
BBX 20 8 0 0
BITMAP
3D3D3D3D3D
7C7C7C7C7C
7C78B87C78
B8B8B8B8B8
F4F4F4FEF4
F5F5F1AEF4
FAFAFA00F8
B9B8B900B8
ENDCHAR
STARTCHAR uni045F0447.liga
ENCODING -1
SWIDTH 964 0
DWIDTH 15 0
BBX 16 12 0 -4
BITMAP
3D3D3D3D
7C7C3D7C
7C787C7C
B8B8BCB8
F4F4BEF4
F5F4AEF4
FAFA40F8
B9B900B8
03000000
0B400000
07800000
03400000
ENDCHAR
STARTCHAR uni044B0447.liga
ENCODING -1
SWIDTH 1112 0
DWIDTH 18 0
BBX 18 8 0 0
BITMAP
3D01E2E2E0
7C1BD2D3D0
7AE3D3D3D0
B8A7C7EBC0
F4A787FF80
F0DB89EB80
F6CBE80BD0
7E07E007D0
ENDCHAR
STARTCHAR uni04550437.liga
ENCODING -1
SWIDTH 768 0
DWIDTH 12 0
BBX 14 13 -1 -4
BITMAP
00500000
03E02F40
07E087C0
0AE143D0
09F107D0
25F107C0
75F41F40
62F0BD00
2F901F00
0000AF40
00025F00
00026E00
0001F800
ENDCHAR
STARTCHAR uni04550445.liga
ENCODING -1
SWIDTH 712 0
DWIDTH 11 0
BBX 13 9 -1 0
BITMAP
01500700
03E3D740
07E2E240
0AE2E600
19F1F800
25F0F400
75F2F400
62F9B900
2F807D00
ENDCHAR
STARTCHAR uni04550447.liga
ENCODING -1
SWIDTH 864 0
DWIDTH 14 0
BBX 15 9 -1 0
BITMAP
00500000
03E0B8B8
07E0B8B8
0AE0F4F4
19F1F5F0
25F2FBF0
75F6BAE0
62F402E4
2F8001F4
ENDCHAR
STARTCHAR uni04540437.liga
ENCODING -1
SWIDTH 804 0
DWIDTH 13 0
BBX 14 12 -1 -4
BITMAP
02F41F80
0B5852E0
1E0042E0
3FD102E0
3D0103D0
7D040B80
3D143E00
1F900B40
00006B80
0000CB80
00008F40
0000BD00
ENDCHAR
STARTCHAR uni04540445.liga
ENCODING -1
SWIDTH 740 0
DWIDTH 12 0
BBX 13 9 -1 0
BITMAP
00000240
02F5F380
0F69F180
2E14F600
3FD0FD00
7C00B800
7C01F800
3D067D00
1FE42E00
ENDCHAR
STARTCHAR uni04540447.liga
ENCODING -1
SWIDTH 844 0
DWIDTH 14 0
BBX 15 8 -1 0
BITMAP
02F4F4F4
0B58F4F4
1E15F1F0
3FD2F7E0
3D03FFE0
7D09B7D0
3D1403D0
1F9001F0
ENDCHAR
STARTCHAR uni044D0437.liga
ENCODING -1
SWIDTH 765 0
DWIDTH 12 0
BBX 14 12 -1 -4
BITMAP
07F42F40
147D87C0
003E07D0
07FC07C0
00780B80
10B41F40
A1E0BD00
6F401F00
0000AF00
00025F00
00026E00
0001F800
ENDCHAR
STARTCHAR uni04560447.liga
ENCODING -1
SWIDTH 717 0
DWIDTH 11 0
BBX 12 12 0 0
BITMAP
190000
2F0000
1E0000
000000
3D3D3D
7C3D3C
7C7C7C
B8BCB8
F4BEF8
F4AEF4
FA40F9
B900B8
ENDCHAR
STARTCHAR uni04570447.liga
ENCODING -1
SWIDTH 718 0
DWIDTH 11 0
BBX 12 11 0 0
BITMAP
B2C000
628000
000000
3D3D3D
7C3D3C
7C7C7C
B8BCB8
F4BEF8
F4AEF4
FA40F9
B900B8
ENDCHAR
STARTCHAR uni04570457.liga
ENCODING -1
SWIDTH 476 0
DWIDTH 8 0
BBX 10 11 0 0
BITMAP
B769D0
6769C0
000000
3D2E00
7C3D00
7C7C00
B87C00
F4B800
F4F800
FAF900
B97C00
ENDCHAR
STARTCHAR uni04580447.liga
ENCODING -1
SWIDTH 697 0
DWIDTH 11 0
BBX 15 15 -4 -4
BITMAP
001D0000
002E0000
00190000
003D7C7C
007C7C7C
007CB8B8
00B8B8F4
00F4FEF4
00F5BEF0
01F201F4
01F900B8
0BE00000
27D00000
67C00000
2E400000
ENDCHAR
STARTCHAR uni04580458.liga
ENCODING -1
SWIDTH 449 0
DWIDTH 7 0
BBX 11 15 -3 -4
BITMAP
007474
00B8F8
006464
00F5F0
01F1F0
01F2E0
02E3E0
02D3D0
03D7C0
07CBC0
07EF80
1B8F40
8F4F40
EFAE00
B9B800
ENDCHAR
STARTCHAR uni045B0447.liga
ENCODING -1
SWIDTH 937 0
DWIDTH 15 0
BBX 16 16 -1 -4
BITMAP
00400000
07C00000
0B800000
2FF40000
0F401F1F
1FBD2E2E
1F2E2E3D
2E2E3D7D
3D3D7FFC
3D3C6EBC
7C7C807D
B8BE003D
06F80000
0DF40000
19F00000
0B900000
ENDCHAR
STARTCHAR uni045B0458.liga
ENCODING -1
SWIDTH 691 0
DWIDTH 11 0
BBX 13 15 -1 -4
BITMAP
06800B40
0B800B40
2FF40000
0F401F00
1FBD2E00
1F2E2E00
2E2E3D00
3D3D3D00
3D3C7C00
7C7CB800
B8B8B800
02F4F400
08F5F000
1EF6E000
0B9B8000
ENDCHAR
STARTCHAR uni044E0436.liga
ENCODING -1
SWIDTH 1503 0
DWIDTH 24 0
BBX 26 8 -1 0
BITMAP
0F42F47E0F0BC0
1F1F5D8B5F2CD0
1F2E2E0B5E7840
2FFD1C0BFFF400
3D7C280B3DF000
3D7C364E3CF000
7C7CA35D78B440
B82F82F4B82F40
ENDCHAR
STARTCHAR uni044E0437.liga
ENCODING -1
SWIDTH 1001 0
DWIDTH 16 0
BBX 17 12 -1 -4
BITMAP
0F42F46E00
1F1F6D8B80
1F2E2D07C0
2FFD1C0BC0
3D7C280B80
3D7C341F00
7C7CA0FC00
B82F802E00
000000AF00
0000026E00
0000033D00
000001F800
ENDCHAR
STARTCHAR uni044E043B.liga
ENCODING -1
SWIDTH 1181 0
DWIDTH 19 0
BBX 20 8 -1 0
BITMAP
0F42F400BE
1F1F58026E
1F2E1C032D
2FFD1C063D
3D7C28097C
3D7C368C7C
7C7C779878
B82FE5F43D
ENDCHAR
STARTCHAR uni044E043C.liga
ENCODING -1
SWIDTH 1396 0
DWIDTH 22 0
BBX 24 8 -1 0
BITMAP
0F42F402E07D
1F1F5803E0BC
1F2E1C03E1FC
2FFD1C07E2F8
3D7C280AF2B4
3D7C3589F9F4
7C7C7799F8F4
B82FE5A4F4B8
ENDCHAR
STARTCHAR uni044E0445.liga
ENCODING -1
SWIDTH 1072 0
DWIDTH 17 0
BBX 18 9 -1 0
BITMAP
00000000A0
0F42F43CB0
1F1F5CBD20
1F2E2E6E90
2FFD1C2F40
3D7C287F00
3D7C35DF00
7C7CA24F80
B82F82C7D0
ENDCHAR
STARTCHAR uni044F0447.liga
ENCODING -1
SWIDTH 984 0
DWIDTH 16 0
BBX 17 8 -1 0
BITMAP
01BF8B8B80
078B4B4F40
0F0F4F4F40
0F5F1F6F00
07FE1FFF00
626E2BAE00
B72E102E00
7D1F801F40
ENDCHAR
STARTCHAR brevecombcy
ENCODING -1
SWIDTH 0 0
DWIDTH 0 0
BBX 6 3 -5 9
BITMAP
6010
B590
6E40
ENDCHAR
STARTCHAR brevecombcy.case
ENCODING -1
SWIDTH 0 0
DWIDTH 0 0
BBX 6 3 -4 12
BITMAP
6010
B580
6E40
ENDCHAR
ENDFONT
